{
.appVersion = "1141";
classes = (
{
code = "";
name = xxxx;
}
);
customParameters = (
{
name = Axes;
value = (
{
Name = Weight;
Tag = wght;
},
{
Name = Width;
Tag = wdth;
}
);
},
{
name = "Enforce Compatibility Check";
value = 1;
}
);
date = "2018-06-19 15:38:12 +0000";
designer = "Cadu Carvalho";
designerURL = caducarvalho.com.br;
familyName = "Grotesca Reforma";
featurePrefixes = (
{
automatic = 1;
code = "languagesystem DFLT dflt;\012languagesystem latn dflt;\012languagesystem latn ROM;\012languagesystem latn MOL;\012languagesystem latn KAZ;\012languagesystem latn TAT;\012languagesystem latn TRK;\012languagesystem latn CRT;\012languagesystem latn AZE;\012";
name = Languagesystems;
}
);
features = (
{
automatic = 1;
code = "feature ccmp;\012feature locl;\012feature ordn;\012feature c2sc;\012feature smcp;\012feature salt;\012feature ss01;\012feature ss02;\012feature ss03;\012feature ss04;\012feature ss05;\012feature ss06;\012feature ss07;\012feature ss08;\012feature ss09;\012feature ss10;\012";
name = aalt;
},
{
automatic = 1;
code = "lookup ccmp_Other_1 {\012	@CombiningTopAccents = [acutecomb brevecomb caroncomb circumflexcomb commaturnedabovecomb dieresiscomb dotaccentcomb gravecomb hungarumlautcomb macroncomb ringcomb tildecomb];\012	@CombiningNonTopAccents = [cedillacomb ogonekcomb];\012	sub [i j]' @CombiningTopAccents by [idotless jdotless];\012	sub [i j]' @CombiningNonTopAccents @CombiningTopAccents by [idotless jdotless];\012} ccmp_Other_1;\012";
name = ccmp;
},
{
automatic = 1;

glyphs = (
{
color = 4;
glyphname = A;
lastChange = "2018-10-25 01:50:02 +0000";
layers = (
{
anchors = (
{
name = bottom;
position = "{231, 0}";
},
{
name = ogonek;
position = "{445, 10}";
},
{
name = top;
position = "{231, 800}";
}
);
layerId = "224C4421-04A1-4518-9520-E7DE557FF670";
paths = (
{
closed = 1;
nodes = (
"344 800 LINE",
"104 800 LINE",
"17 0 LINE",
"182 0 LINE",
"219 600 LINE",
"221 690 LINE",
"227 690 LINE",
"229 600 LINE",
"270 0 LINE",
"445 0 LINE"
);
},
{
closed = 1;
nodes = (
"67 100 LINE",
"392 100 LINE",
"392 240 LINE",
"67 240 LINE"
);
}
);
width = 460;
},
{
anchors = (
{
name = bottom;
position = "{394, 0}";
},
{
name = ogonek;
position = "{753, 10}";
},
{
name = top;
position = "{394, 800}";
}
);
layerId = "E3F4EB06-25ED-4CC6-B646-097E6B7CA9B6";
paths = (
{
closed = 1;
nodes = (
"422 800 LINE",
"368 800 LINE",
"54 0 LINE",
"113 0 LINE",
"370 667 LINE",
"393 750 LINE",
"397 750 LINE",
"420 667 LINE",
"691 0 LINE",
"753 0 LINE"
);
},
{
closed = 1;
nodes = (
"188 260 LINE",
"603 260 LINE",
"603 310 LINE",
"188 310 LINE"
);
}
);
width = 801;
},
{
anchors = (
{
name = bottom;
position = "{122, 0}";
},
{
name = ogonek;
position = "{226, 10}";
},
{
name = top;
position = "{122, 800}";
}
);
layerId = "1A1EA1E7-9AE6-44CA-95A2-EC2DECCB3A5F";
paths = (
{
closed = 1;
nodes = (
"158 800 LINE",
"86 800 LINE",
"23 0 LINE",
"78 0 LINE",
"113 600 LINE",
"117 730 LINE",
"123 730 LINE",
"127 600 LINE",
"166 0 LINE",
"226 0 LINE"
);
},
{
closed = 1;
nodes = (
"63 190 LINE",
"188 190 LINE",
"188 240 LINE",
"63 240 LINE"
);
}
);
width = 247;
},
{
anchors = (
{
name = bottom;
position = "{447, 0}";
},
{
name = ogonek;
position = "{849, 10}";
},
{
name = top;
position = "{447, 800}";
}
);
layerId = "9E3A6CEF-E447-4EE0-94FA-04D82C1F8DD8";
paths = (
{
closed = 1;
nodes = (
"566 800 LINE",
"331 800 LINE",
"52 0 LINE",
"239 0 LINE",
"434 590 LINE",
"445 650 LINE",
"449 650 LINE",
"460 590 LINE",
"667 0 LINE",
"862 0 LINE"
);
},
{
closed = 1;
nodes = (
"234 150 LINE",
"669 150 LINE",
"669 305 LINE",
"234 305 LINE"
);
}
);
width = 903;
},
{
anchors = (
{
name = bottom;
position = "{258, 0}";
},
{
name = ogonek;
position = "{490, 10}";
},
{
name = top;
position = "{258, 800}";
}
);
layerId = "3822A8B4-8016-4BEB-9110-8CE71FB015E8";
paths = (
{
closed = 1;
nodes = (
"290 800 LINE",
"227 800 LINE",
"39 0 LINE",
"96 0 LINE",
"242 654 LINE",
"255 740 LINE",
"260 740 LINE",
"274 654 LINE",
"429 0 LINE",
"490 0 LINE"
);
},
{
closed = 1;
nodes = (
"126 225 LINE",
"396 225 LINE",
"396 275 LINE",
"126 275 LINE"
);
}
);
width = 524;
},
{
anchors = (
{
name = bottom;
position = "{339, 0}";
},
{
name = ogonek;
position = "{647, 10}";
},
{
name = top;
position = "{339, 800}";
}
);
layerId = "9C5E0400-F04B-47EF-A56D-29B29EB8CC41";
paths = (
{
closed = 1;
nodes = (
"455 800 LINE",
"218 800 LINE",
"35 0 LINE",
"211 0 LINE",
"327 595 LINE",
"333 670 LINE",
"338 670 LINE",
"345 595 LINE",
"469 0 LINE",
"654 0 LINE"
);
},
{
closed = 1;
nodes = (
"151 125 LINE",
"531 125 LINE",
"531 273 LINE",
"151 273 LINE"
);
}
);
width = 682;
}
);
leftKerningGroup = A;
rightKerningGroup = A;
unicode = 0041;
},
{
color = 4;
glyphname = AE;
lastChange = "2018-10-07 20:52:21 +0000";
layers = (
{
layerId = "224C4421-04A1-4518-9520-E7DE557FF670";
paths = (
{
closed = 1;
nodes = (
"182 0 LINE",
"245 660 LINE",
"252 660 LINE",
"252 0 LINE",
"597 0 LINE",
"597 140 LINE",
"417 140 LINE",
"417 370 LINE",
"547 370 LINE",
"547 510 LINE",
"417 510 LINE",
"417 660 LINE",
"577 660 LINE",
"577 800 LINE",
"106 800 LINE",
"17 0 LINE"
);
},
{
closed = 1;
nodes = (
"67 100 LINE",
"392 100 LINE",
"392 240 LINE",
"67 240 LINE"
);
}
);
width = 619;
},
{
layerId = "E3F4EB06-25ED-4CC6-B646-097E6B7CA9B6";
paths = (
{
closed = 1;
nodes = (
"114 0 LINE",
"451 750 LINE",
"501 750 LINE",
"501 0 LINE",
"996 0 LINE",
"996 50 LINE",
"556 50 LINE",
"556 460 LINE",
"906 460 LINE",
"906 510 LINE",
"556 510 LINE",
"556 750 LINE",
"976 750 LINE",
"976 800 LINE",
"413 800 LINE",
"54 0 LINE"
);
},
{
closed = 1;
nodes = (
"208 260 LINE",
"523 260 LINE",
"523 310 LINE",
"208 310 LINE"
);
}
);
width = 1061;
},
{
layerId = "1A1EA1E7-9AE6-44CA-95A2-EC2DECCB3A5F";
paths = (
{
closed = 1;
nodes = (
"78 0 LINE",
"149 750 LINE",
"163 750 LINE",
"163 0 LINE",
"318 0 LINE",
"318 50 LINE",
"218 50 LINE",
"218 420 LINE",
"293 420 LINE",
"293 470 LINE",
"218 470 LINE",
"218 750 LINE",
"308 750 LINE",
"308 800 LINE",
"109 800 LINE",
"23 0 LINE"
);
},
{
closed = 1;
nodes = (
"63 190 LINE",
"188 190 LINE",
"188 240 LINE",
"63 240 LINE"
);
}
);
width = 340;
},
{
layerId = "9E3A6CEF-E447-4EE0-94FA-04D82C1F8DD8";
paths = (
{
closed = 1;
nodes = (
"239 0 LINE",
"453 645 LINE",
"524 645 LINE",
"524 0 LINE",
"1069 0 LINE",
"1069 155 LINE",
"709 155 LINE",
"709 350 LINE",
"1019 350 LINE",
"1019 505 LINE",
"709 505 LINE",
"709 645 LINE",
"1049 645 LINE",
"1049 800 LINE",
"331 800 LINE",
"52 0 LINE"
);
},
{
closed = 1;
nodes = (
"254 150 LINE",
"689 150 LINE",
"689 305 LINE",
"254 305 LINE"
);
}
);
width = 1134;
},
{
layerId = "3822A8B4-8016-4BEB-9110-8CE71FB015E8";
paths = (
{
closed = 1;
nodes = (
"96 0 LINE",
"300 750 LINE",
"332 750 LINE",
"332 0 LINE",
"657 0 LINE",
"657 50 LINE",
"387 50 LINE",
"387 440 LINE",
"600 440 LINE",
"600 490 LINE",
"387 490 LINE",
"387 750 LINE",
"642 750 LINE",
"642 800 LINE",
"261 800 LINE",
"39 0 LINE"
);
},
{
closed = 1;
nodes = (
"136 225 LINE",
"356 225 LINE",
"356 275 LINE",
"136 275 LINE"
);
}
);
width = 700;
},
{
layerId = "9C5E0400-F04B-47EF-A56D-29B29EB8CC41";
paths = (
{
closed = 1;
nodes = (
"211 0 LINE",
"349 652 LINE",
"388 652 LINE",
"388 0 LINE",
"833 0 LINE",
"833 148 LINE",
"563 148 LINE",
"563 360 LINE",
"783 360 LINE",
"783 508 LINE",
"563 508 LINE",
"563 652 LINE",
"813 652 LINE",
"813 800 LINE",
"219 800 LINE",
"35 0 LINE"
);
},
{
closed = 1;
nodes = (
"161 125 LINE",
"541 125 LINE",
"541 273 LINE",
"161 273 LINE"
);
}
);
width = 876;
}
);
leftKerningGroup = A;
leftMetricsKey = A;
rightKerningGroup = H;
rightMetricsKey = E;
unicode = 00C6;
},
{
color = 4;
glyphname = B;
lastChange = "2018-10-07 20:52:21 +0000";
layers = (
{
layerId = "224C4421-04A1-4518-9520-E7DE557FF670";
paths = (
{
closed = 1;
nodes = (
"238 0 LINE SMOOTH",
"382 0 OFFCURVE",
"450 56 OFFCURVE",
"450 176 CURVE SMOOTH",
"450 295 LINE SMOOTH",
"450 362 OFFCURVE",
"420 409 OFFCURVE",
"369 422 CURVE",
"369 428 LINE",
"410 437 OFFCURVE",
"435 469 OFFCURVE",
"435 515 CURVE SMOOTH",
"435 624 LINE SMOOTH",
"435 744 OFFCURVE",
"372 800 OFFCURVE",
"238 800 CURVE SMOOTH",
"43 800 LINE",
"43 0 LINE"
);
},
{
closed = 1;
nodes = (
"208 340 LINE",
"247 340 LINE SMOOTH",
"273 340 OFFCURVE",
"285 327 OFFCURVE",
"285 300 CURVE SMOOTH",
"285 175 LINE SMOOTH",
"285 151 OFFCURVE",
"273 140 OFFCURVE",
"247 140 CURVE SMOOTH",
"208 140 LINE"
);
},
{
closed = 1;
nodes = (
"208 660 LINE",
"247 660 LINE SMOOTH",
"269 660 OFFCURVE",
"280 649 OFFCURVE",
"280 625 CURVE SMOOTH",
"280 510 LINE SMOOTH",
"280 483 OFFCURVE",
"269 470 OFFCURVE",
"247 470 CURVE SMOOTH",
"208 470 LINE"
);
}
);
width = 490;
},
{
layerId = "E3F4EB06-25ED-4CC6-B646-097E6B7CA9B6";
paths = (
{
closed = 1;
nodes = (
"463 0 LINE SMOOTH",
"629 0 OFFCURVE",
"727 86 OFFCURVE",
"727 232 CURVE SMOOTH",
"727 247 LINE SMOOTH",
"727 356 OFFCURVE",
"666 434 OFFCURVE",
"563 455 CURVE",
"563 459 LINE",
"635 474 OFFCURVE",
"677 529 OFFCURVE",
"677 607 CURVE SMOOTH",
"677 622 LINE SMOOTH",
"677 734 OFFCURVE",
"600 800 OFFCURVE",
"471 800 CURVE SMOOTH",
"106 800 LINE",
"106 0 LINE"
);
},
{
closed = 1;
nodes = (
"161 430 LINE",
"460 430 LINE SMOOTH",
"592 430 OFFCURVE",
"670 362 OFFCURVE",
"670 247 CURVE SMOOTH",
"670 232 LINE SMOOTH",
"670 118 OFFCURVE",
"593 50 OFFCURVE",
"464 50 CURVE SMOOTH",
"161 50 LINE"
);
},
{
closed = 1;
nodes = (
"161 750 LINE",
"470 750 LINE SMOOTH",
"564 750 OFFCURVE",
"620 702 OFFCURVE",
"620 622 CURVE SMOOTH",
"620 607 LINE SMOOTH",
"620 527 OFFCURVE",
"566 480 OFFCURVE",
"474 480 CURVE SMOOTH",
"161 480 LINE"
);
}
);
width = 782;
},
{
layerId = "1A1EA1E7-9AE6-44CA-95A2-EC2DECCB3A5F";
paths = (
{
closed = 1;
nodes = (
"133 0 LINE SMOOTH",
"185 0 OFFCURVE",
"215 32 OFFCURVE",
"215 86 CURVE SMOOTH",
"215 354 LINE SMOOTH",
"215 389 OFFCURVE",
"197 411 OFFCURVE",
"167 414 CURVE",
"167 420 LINE",
"194 424 OFFCURVE",
"210 445 OFFCURVE",
"210 476 CURVE SMOOTH",
"210 714 LINE SMOOTH",
"210 768 OFFCURVE",
"180 800 OFFCURVE",
"128 800 CURVE SMOOTH",
"43 800 LINE",
"43 0 LINE"
);
},
{
closed = 1;
nodes = (
"98 390 LINE",
"132 390 LINE SMOOTH",
"150 390 OFFCURVE",
"160 378 OFFCURVE",
"160 359 CURVE SMOOTH",
"160 81 LINE SMOOTH",
"160 62 OFFCURVE",
"150 50 OFFCURVE",
"132 50 CURVE SMOOTH",
"98 50 LINE"
);
},
{
closed = 1;
nodes = (
"98 750 LINE",
"127 750 LINE SMOOTH",
"145 750 OFFCURVE",
"155 738 OFFCURVE",
"155 719 CURVE SMOOTH",
"155 471 LINE SMOOTH",
"155 452 OFFCURVE",
"145 440 OFFCURVE",
"127 440 CURVE SMOOTH",
"98 440 LINE"
);
}
);
width = 246;
},
{
layerId = "9E3A6CEF-E447-4EE0-94FA-04D82C1F8DD8";
paths = (
{
closed = 1;
nodes = (
"460 0 LINE SMOOTH",
"639 0 OFFCURVE",
"745 86 OFFCURVE",
"745 232 CURVE SMOOTH",
"745 242 LINE SMOOTH",
"745 324 OFFCURVE",
"692 389 OFFCURVE",
"603 417 CURVE",
"603 421 LINE",
"664 453 OFFCURVE",
"700 509 OFFCURVE",
"700 572 CURVE SMOOTH",
"700 582 LINE SMOOTH",
"700 719 OFFCURVE",
"597 800 OFFCURVE",
"423 800 CURVE SMOOTH",
"96 800 LINE",
"96 0 LINE"
);
},
{
closed = 1;
nodes = (
"281 340 LINE",
"457 340 LINE SMOOTH",
"519 340 OFFCURVE",
"555 307 OFFCURVE",
"555 250 CURVE SMOOTH",
"555 245 LINE SMOOTH",
"555 188 OFFCURVE",
"520 155 OFFCURVE",
"461 155 CURVE SMOOTH",
"281 155 LINE"
);
},
{
closed = 1;
nodes = (
"281 645 LINE",
"412 645 LINE SMOOTH",
"474 645 OFFCURVE",
"510 615 OFFCURVE",
"510 563 CURVE SMOOTH",
"510 557 LINE SMOOTH",
"510 505 OFFCURVE",
"475 475 OFFCURVE",
"416 475 CURVE SMOOTH",
"281 475 LINE"
);
}
);
width = 831;
},
{
layerId = "3822A8B4-8016-4BEB-9110-8CE71FB015E8";
paths = (
{
closed = 1;
nodes = (
"278 0 LINE SMOOTH",
"399 0 OFFCURVE",
"471 70 OFFCURVE",
"471 189 CURVE SMOOTH",
"471 271 LINE SMOOTH",
"471 358 OFFCURVE",
"424 419 OFFCURVE",
"345 435 CURVE",
"345 440 LINE",
"407 451 OFFCURVE",
"444 500 OFFCURVE",
"444 572 CURVE SMOOTH",
"444 638 LINE SMOOTH",
"444 740 OFFCURVE",
"383 800 OFFCURVE",
"280 800 CURVE SMOOTH",
"75 800 LINE",
"75 0 LINE"
);
},
{
closed = 1;
nodes = (
"130 410 LINE",
"276 410 LINE SMOOTH",
"363 410 OFFCURVE",
"415 359 OFFCURVE",
"415 273 CURVE SMOOTH",
"415 187 LINE SMOOTH",
"415 101 OFFCURVE",
"364 50 OFFCURVE",
"278 50 CURVE SMOOTH",
"130 50 LINE"
);
},
{
closed = 1;
nodes = (
"130 750 LINE",
"279 750 LINE SMOOTH",
"348 750 OFFCURVE",
"388 710 OFFCURVE",
"388 641 CURVE SMOOTH",
"388 569 LINE SMOOTH",
"388 500 OFFCURVE",
"348 460 OFFCURVE",
"281 460 CURVE SMOOTH",
"130 460 LINE"
);
}
);
width = 514;
},
{
layerId = "9C5E0400-F04B-47EF-A56D-29B29EB8CC41";
paths = (
{
closed = 1;
nodes = (
"339 0 LINE SMOOTH",
"502 0 OFFCURVE",
"598 79 OFFCURVE",
"598 214 CURVE SMOOTH",
"598 259 LINE SMOOTH",
"598 339 OFFCURVE",
"556 399 OFFCURVE",
"486 420 CURVE",
"486 425 LINE",
"538 445 OFFCURVE",
"568 493 OFFCURVE",
"568 554 CURVE SMOOTH",
"568 592 LINE SMOOTH",
"568 723 OFFCURVE",
"476 800 OFFCURVE",
"321 800 CURVE SMOOTH",
"70 800 LINE",
"70 0 LINE"
);
},
{
closed = 1;
nodes = (
"245 340 LINE",
"342 340 LINE SMOOTH",
"391 340 OFFCURVE",
"420 312 OFFCURVE",
"420 265 CURVE SMOOTH",
"420 220 LINE SMOOTH",
"420 175 OFFCURVE",
"392 148 OFFCURVE",
"344 148 CURVE SMOOTH",
"245 148 LINE"
);
},
{
closed = 1;
nodes = (
"245 652 LINE",
"320 652 LINE SMOOTH",
"367 652 OFFCURVE",
"395 626 OFFCURVE",
"395 583 CURVE SMOOTH",
"395 544 LINE SMOOTH",
"395 499 OFFCURVE",
"368 473 OFFCURVE",
"322 473 CURVE SMOOTH",
"245 473 LINE"
);
}
);
width = 661;
}
);
leftKerningGroup = H;
leftMetricsKey = H;
rightKerningGroup = B;
unicode = 0042;
},
{
color = 4;
glyphname = C;
lastChange = "2018-10-07 20:52:21 +0000";
layers = (
{
anchors = (
{
name = bottom;
position = "{231, 0}";
},
{
name = top;
position = "{231, 800}";
}
);
layerId = "224C4421-04A1-4518-9520-E7DE557FF670";
paths = (
{
closed = 1;
nodes = (
"264 280 LINE",
"264 170 LINE SMOOTH",
"264 143 OFFCURVE",
"253 130 OFFCURVE",
"231 130 CURVE SMOOTH",
"209 130 OFFCURVE",
"198 141 OFFCURVE",
"198 165 CURVE SMOOTH",
"198 630 LINE SMOOTH",
"198 657 OFFCURVE",
"209 670 OFFCURVE",
"231 670 CURVE SMOOTH",
"253 670 OFFCURVE",
"264 659 OFFCURVE",
"264 635 CURVE SMOOTH",
"264 524 LINE",
"429 524 LINE",
"429 634 LINE SMOOTH",
"429 754 OFFCURVE",
"366 810 OFFCURVE",
"232 810 CURVE SMOOTH",
"97 810 OFFCURVE",
"33 754 OFFCURVE",
"33 635 CURVE SMOOTH",
"33 166 LINE SMOOTH",
"33 46 OFFCURVE",
"96 -10 OFFCURVE",
"230 -10 CURVE SMOOTH",
"365 -10 OFFCURVE",
"429 46 OFFCURVE",
"429 165 CURVE SMOOTH",
"429 280 LINE"
);
}
);
width = 451;
},
{
anchors = (
{
name = bottom;
position = "{426, 0}";
},
{
name = top;
position = "{436, 800}";
}
);
layerId = "E3F4EB06-25ED-4CC6-B646-097E6B7CA9B6";
paths = (
{
closed = 1;
nodes = (
"690 242 LINE",
"688 230 LINE SMOOTH",
"668 108 OFFCURVE",
"570 36 OFFCURVE",
"426 36 CURVE SMOOTH",
"236 36 OFFCURVE",
"123 166 OFFCURVE",
"123 386 CURVE SMOOTH",
"123 409 LINE SMOOTH",
"123 632 OFFCURVE",
"236 764 OFFCURVE",
"426 764 CURVE SMOOTH",
"559 764 OFFCURVE",
"649 696 OFFCURVE",
"668 580 CURVE SMOOTH",
"670 568 LINE",
"723 572 LINE",
"721 584 LINE SMOOTH",
"696 730 OFFCURVE",
"587 816 OFFCURVE",
"426 816 CURVE SMOOTH",
"200 816 OFFCURVE",
"66 665 OFFCURVE",
"66 409 CURVE SMOOTH",
"66 394 LINE SMOOTH",
"66 136 OFFCURVE",
"200 -16 OFFCURVE",
"426 -16 CURVE SMOOTH",
"598 -16 OFFCURVE",
"715 74 OFFCURVE",
"741 226 CURVE SMOOTH",
"743 238 LINE"
);
}
);
width = 803;
},
{
anchors = (
{
name = bottom;
position = "{121, 0}";
},
{
name = top;
position = "{121, 800}";
}
);
layerId = "1A1EA1E7-9AE6-44CA-95A2-EC2DECCB3A5F";
paths = (
{
closed = 1;
nodes = (
"154 280 LINE",
"154 80 LINE SMOOTH",
"154 55 OFFCURVE",
"142 40 OFFCURVE",
"121 40 CURVE SMOOTH",
"100 40 OFFCURVE",
"88 53 OFFCURVE",
"88 75 CURVE SMOOTH",
"88 720 LINE SMOOTH",
"88 745 OFFCURVE",
"100 760 OFFCURVE",
"121 760 CURVE SMOOTH",
"142 760 OFFCURVE",
"154 747 OFFCURVE",
"154 725 CURVE SMOOTH",
"154 524 LINE",
"209 524 LINE",
"209 724 LINE SMOOTH",
"209 778 OFFCURVE",
"177 810 OFFCURVE",
"122 810 CURVE SMOOTH",
"66 810 OFFCURVE",
"33 778 OFFCURVE",
"33 725 CURVE SMOOTH",
"33 76 LINE SMOOTH",
"33 22 OFFCURVE",
"65 -10 OFFCURVE",
"120 -10 CURVE SMOOTH",
"176 -10 OFFCURVE",
"209 22 OFFCURVE",
"209 75 CURVE SMOOTH",
"209 280 LINE"
);
}
);
width = 241;
},
{
anchors = (
{
name = bottom;
position = "{426, 0}";
},
{
name = top;
position = "{436, 800}";
}
);
layerId = "9E3A6CEF-E447-4EE0-94FA-04D82C1F8DD8";
paths = (
{
closed = 1;
nodes = (
"587 302 LINE",
"585 286 LINE SMOOTH",
"573 194 OFFCURVE",
"517 139 OFFCURVE",
"433 139 CURVE SMOOTH",
"322 139 OFFCURVE",
"256 231 OFFCURVE",
"256 386 CURVE SMOOTH",
"256 409 LINE SMOOTH",
"256 567 OFFCURVE",
"320 661 OFFCURVE",
"429 661 CURVE SMOOTH",
"507 661 OFFCURVE",
"563 615 OFFCURVE",
"579 537 CURVE SMOOTH",
"583 518 LINE",
"763 532 LINE",
"760 550 LINE SMOOTH",
"732 717 OFFCURVE",
"609 816 OFFCURVE",
"430 816 CURVE SMOOTH",
"201 816 OFFCURVE",
"66 665 OFFCURVE",
"66 409 CURVE SMOOTH",
"66 394 LINE SMOOTH",
"66 136 OFFCURVE",
"202 -16 OFFCURVE",
"432 -16 CURVE SMOOTH",
"621 -16 OFFCURVE",
"745 91 OFFCURVE",
"765 273 CURVE SMOOTH",
"767 291 LINE"
);
}
);
width = 826;
},
{
anchors = (
{
name = bottom;
position = "{274, 0}";
},
{
name = top;
position = "{279, 800}";
}
);
layerId = "3822A8B4-8016-4BEB-9110-8CE71FB015E8";
paths = (
{
closed = 1;
nodes = (
"421 261 LINE",
"421 215 LINE SMOOTH",
"421 104 OFFCURVE",
"363 38 OFFCURVE",
"264 38 CURVE SMOOTH",
"165 38 OFFCURVE",
"106 110 OFFCURVE",
"106 231 CURVE SMOOTH",
"106 565 LINE SMOOTH",
"106 689 OFFCURVE",
"165 762 OFFCURVE",
"264 762 CURVE SMOOTH",
"356 762 OFFCURVE",
"411 696 OFFCURVE",
"411 583 CURVE SMOOTH",
"411 546 LINE",
"465 548 LINE",
"465 584 LINE SMOOTH",
"465 728 OFFCURVE",
"390 813 OFFCURVE",
"264 813 CURVE SMOOTH",
"129 813 OFFCURVE",
"50 722 OFFCURVE",
"50 567 CURVE SMOOTH",
"50 235 LINE SMOOTH",
"50 79 OFFCURVE",
"129 -13 OFFCURVE",
"263 -13 CURVE SMOOTH",
"396 -13 OFFCURVE",
"475 70 OFFCURVE",
"475 211 CURVE SMOOTH",
"475 259 LINE"
);
}
);
width = 522;
},
{
anchors = (
{
name = bottom;
position = "{329, 0}";
},
{
name = top;
position = "{334, 800}";
}
);
layerId = "9C5E0400-F04B-47EF-A56D-29B29EB8CC41";
paths = (
{
closed = 1;
nodes = (
"425 291 LINE",
"425 268 LINE SMOOTH",
"425 184 OFFCURVE",
"389 135 OFFCURVE",
"327 135 CURVE SMOOTH",
"264 135 OFFCURVE",
"227 180 OFFCURVE",
"227 256 CURVE SMOOTH",
"227 540 LINE SMOOTH",
"227 619 OFFCURVE",
"263 665 OFFCURVE",
"325 665 CURVE SMOOTH",
"387 665 OFFCURVE",
"423 621 OFFCURVE",
"423 546 CURVE SMOOTH",
"423 521 LINE",
"595 528 LINE",
"595 552 LINE SMOOTH",
"595 716 OFFCURVE",
"495 813 OFFCURVE",
"326 813 CURVE SMOOTH",
"153 813 OFFCURVE",
"50 712 OFFCURVE",
"50 542 CURVE SMOOTH",
"50 260 LINE SMOOTH",
"50 88 OFFCURVE",
"153 -13 OFFCURVE",
"326 -13 CURVE SMOOTH",
"496 -13 OFFCURVE",
"597 88 OFFCURVE",
"597 259 CURVE SMOOTH",
"597 286 LINE"
);
}
);
width = 639;
}
);
leftKerningGroup = O;
leftMetricsKey = O;
rightKerningGroup = O;
unicode = 0043;
},
{
color = 4;
glyphname = D;
lastChange = "2018-10-07 20:52:21 +0000";
layers = (
{
anchors = (
{
name = bottom;
position = "{244, 0}";
},
{
name = center;
position = "{244, 400}";
},
{
name = top;
position = "{244, 800}";
}
);
layerId = "224C4421-04A1-4518-9520-E7DE557FF670";
paths = (
{
closed = 1;
nodes = (
"246 0 LINE SMOOTH",
"381 0 OFFCURVE",
"445 56 OFFCURVE",
"445 175 CURVE SMOOTH",
"445 624 LINE SMOOTH",
"445 744 OFFCURVE",
"382 800 OFFCURVE",
"248 800 CURVE SMOOTH",
"43 800 LINE",
"43 0 LINE"
);
},
{
closed = 1;
nodes = (
"208 660 LINE",
"247 660 LINE SMOOTH",
"269 660 OFFCURVE",
"280 649 OFFCURVE",
"280 625 CURVE SMOOTH",
"280 180 LINE SMOOTH",
"280 153 OFFCURVE",
"269 140 OFFCURVE",
"247 140 CURVE SMOOTH",
"208 140 LINE"
);
}
);
width = 478;
},
{
anchors = (
{
name = bottom;
position = "{372, 0}";
},
{
name = center;
position = "{372, 400}";
},
{
name = top;
position = "{372, 800}";
}
);
layerId = "E3F4EB06-25ED-4CC6-B646-097E6B7CA9B6";
paths = (
{
closed = 1;
nodes = (
"363 0 LINE SMOOTH",
"595 0 OFFCURVE",
"737 149 OFFCURVE",
"737 392 CURVE SMOOTH",
"737 407 LINE SMOOTH",
"737 651 OFFCURVE",
"594 800 OFFCURVE",
"361 800 CURVE SMOOTH",
"106 800 LINE",
"106 0 LINE"
);
},
{
closed = 1;
nodes = (
"161 750 LINE",
"360 750 LINE SMOOTH",
"558 750 OFFCURVE",
"680 623 OFFCURVE",
"680 415 CURVE SMOOTH",
"680 392 LINE SMOOTH",
"680 180 OFFCURVE",
"560 50 OFFCURVE",
"364 50 CURVE SMOOTH",
"161 50 LINE"
);
}
);
width = 803;
},
{
anchors = (
{
name = bottom;
position = "{134, 0}";
},
{
name = center;
position = "{134, 400}";
},
{
name = top;
position = "{134, 800}";
}
);
layerId = "1A1EA1E7-9AE6-44CA-95A2-EC2DECCB3A5F";
paths = (
{
closed = 1;
nodes = (
"136 0 LINE SMOOTH",
"192 0 OFFCURVE",
"225 30 OFFCURVE",
"225 80 CURVE SMOOTH",
"225 714 LINE SMOOTH",
"225 768 OFFCURVE",
"193 800 OFFCURVE",
"138 800 CURVE SMOOTH",
"43 800 LINE",
"43 0 LINE"
);
},
{
closed = 1;
nodes = (
"98 750 LINE",
"137 750 LINE SMOOTH",
"158 750 OFFCURVE",
"170 739 OFFCURVE",
"170 720 CURVE SMOOTH",
"170 85 LINE SMOOTH",
"170 63 OFFCURVE",
"158 50 OFFCURVE",
"137 50 CURVE SMOOTH",
"98 50 LINE"
);
}
);
width = 258;
},
{
anchors = (
{
name = bottom;
position = "{412, 0}";
},
{
name = center;
position = "{412, 400}";
},
{
name = top;
position = "{412, 800}";
}
);
layerId = "9E3A6CEF-E447-4EE0-94FA-04D82C1F8DD8";
paths = (
{
closed = 1;
nodes = (
"383 0 LINE SMOOTH",
"631 0 OFFCURVE",
"777 146 OFFCURVE",
"777 392 CURVE SMOOTH",
"777 407 LINE SMOOTH",
"777 654 OFFCURVE",
"630 800 OFFCURVE",
"381 800 CURVE SMOOTH",
"96 800 LINE",
"96 0 LINE"
);
},
{
closed = 1;
nodes = (
"281 645 LINE",
"380 645 LINE SMOOTH",
"510 645 OFFCURVE",
"587 560 OFFCURVE",
"587 415 CURVE SMOOTH",
"587 392 LINE SMOOTH",
"587 243 OFFCURVE",
"512 155 OFFCURVE",
"384 155 CURVE SMOOTH",
"281 155 LINE"
);
}
);
width = 843;
},
{
anchors = (
{
name = bottom;
position = "{253, 0}";
},
{
name = center;
position = "{253, 400}";
},
{
name = top;
position = "{253, 800}";
}
);
layerId = "3822A8B4-8016-4BEB-9110-8CE71FB015E8";
paths = (
{
closed = 1;
nodes = (
"250 0 LINE SMOOTH",
"394 0 OFFCURVE",
"481 90 OFFCURVE",
"481 236 CURVE SMOOTH",
"481 561 LINE SMOOTH",
"481 710 OFFCURVE",
"394 800 OFFCURVE",
"250 800 CURVE SMOOTH",
"75 800 LINE",
"75 0 LINE"
);
},
{
closed = 1;
nodes = (
"130 750 LINE",
"249 750 LINE SMOOTH",
"358 750 OFFCURVE",
"425 681 OFFCURVE",
"425 568 CURVE SMOOTH",
"425 239 LINE SMOOTH",
"425 122 OFFCURVE",
"359 50 OFFCURVE",
"251 50 CURVE SMOOTH",
"130 50 LINE"
);
}
);
width = 530;
},
{
anchors = (
{
name = bottom;
position = "{328, 0}";
},
{
name = center;
position = "{328, 400}";
},
{
name = top;
position = "{328, 800}";
}
);
layerId = "9C5E0400-F04B-47EF-A56D-29B29EB8CC41";
paths = (
{
closed = 1;
nodes = (
"305 0 LINE SMOOTH",
"497 0 OFFCURVE",
"611 113 OFFCURVE",
"611 304 CURVE SMOOTH",
"611 495 LINE SMOOTH",
"611 687 OFFCURVE",
"497 800 OFFCURVE",
"305 800 CURVE SMOOTH",
"70 800 LINE",
"70 0 LINE"
);
},
{
closed = 1;
nodes = (
"245 652 LINE",
"304 652 LINE SMOOTH",
"386 652 OFFCURVE",
"434 595 OFFCURVE",
"434 499 CURVE SMOOTH",
"434 306 LINE SMOOTH",
"434 207 OFFCURVE",
"386 148 OFFCURVE",
"306 148 CURVE SMOOTH",
"245 148 LINE"
);
}
);
width = 660;
}
);
leftKerningGroup = H;
leftMetricsKey = H;
rightKerningGroup = O;
rightMetricsKey = O;
unicode = 0044;
},
{
color = 4;
glyphname = Eth;
lastChange = "2018-10-07 20:52:21 +0000";
layers = (
{
components = (
{
name = D;
transform = "{1, 0, 0, 1, 20, 0}";
}
);
layerId = "224C4421-04A1-4518-9520-E7DE557FF670";
paths = (
{
closed = 1;
nodes = (
"5 380 LINE",
"250 380 LINE",
"270 500 LINE",
"25 500 LINE"
);
}
);
width = 498;
},
{
components = (
{
name = D;
}
);
layerId = "E3F4EB06-25ED-4CC6-B646-097E6B7CA9B6";
paths = (
{
closed = 1;
nodes = (
"26 375 LINE",
"276 375 LINE",
"296 425 LINE",
"46 425 LINE"
);
}
);
width = 803;
},
{
components = (
{
name = D;
transform = "{1, 0, 0, 1, 20, 0}";
}
);
layerId = "1A1EA1E7-9AE6-44CA-95A2-EC2DECCB3A5F";
paths = (
{
closed = 1;
nodes = (
"5 415 LINE",
"155 415 LINE",
"165 465 LINE",
"15 465 LINE"
);
}
);
width = 278;
},
{
components = (
{
name = D;
}
);
layerId = "9E3A6CEF-E447-4EE0-94FA-04D82C1F8DD8";
paths = (
{
closed = 1;
nodes = (
"26 345 LINE",
"386 345 LINE",
"426 455 LINE",
"66 455 LINE"
);
}
);
width = 843;
},
{
components = (
{
alignment = -1;
name = D;
transform = "{1, 0, 0, 1, 10, 0}";
}
);
layerId = "3822A8B4-8016-4BEB-9110-8CE71FB015E8";
paths = (
{
closed = 1;
nodes = (
"16 395 LINE",
"216 395 LINE",
"231 445 LINE",
"31 445 LINE"
);
}
);
width = 540;
},
{
components = (
{
alignment = -1;
name = D;
transform = "{1, 0, 0, 1, 10, 0}";
}
);
layerId = "9C5E0400-F04B-47EF-A56D-29B29EB8CC41";
paths = (
{
closed = 1;
nodes = (
"16 363 LINE",
"318 363 LINE",
"348 478 LINE",
"46 478 LINE"
);
}
);
width = 670;
}
);
leftKerningGroup = H;
rightKerningGroup = O;
rightMetricsKey = O;
unicode = 00D0;
},
{
color = 4;
glyphname = E;
lastChange = "2018-10-07 20:52:21 +0000";
layers = (
{
anchors = (
{
name = bottom;
position = "{216, 0}";
},
{
name = ogonek;
position = "{388, 10}";
},
{
name = top;
position = "{216, 800}";
},
{
name = topleft;
position = "{28, 800}";
}
);
layerId = "224C4421-04A1-4518-9520-E7DE557FF670";
paths = (
{
closed = 1;
nodes = (
"388 0 LINE",
"388 140 LINE",
"208 140 LINE",
"208 370 LINE",
"338 370 LINE",
"338 510 LINE",
"208 510 LINE",
"208 660 LINE",
"368 660 LINE",
"368 800 LINE",
"43 800 LINE",
"43 0 LINE"
);
}
);
width = 410;
},
{
anchors = (
{
name = bottom;
position = "{365, 0}";
},
{
name = ogonek;
position = "{661, 10}";
},
{
name = top;
position = "{375, 800}";
},
{
name = topleft;
position = "{20, 800}";
}
);
layerId = "E3F4EB06-25ED-4CC6-B646-097E6B7CA9B6";
paths = (
{
closed = 1;
nodes = (
"661 0 LINE",
"661 50 LINE",
"161 50 LINE",
"161 420 LINE",
"571 420 LINE",
"571 470 LINE",
"161 470 LINE",
"161 750 LINE",
"641 750 LINE",
"641 800 LINE",
"106 800 LINE",
"106 0 LINE"
);
}
);
width = 726;
},
{
anchors = (
{
name = bottom;
position = "{121, 0}";
},
{
name = ogonek;
position = "{198, 10}";
},
{
name = top;
position = "{116, 800}";
},
{
name = topleft;
position = "{43, 800}";
}
);
layerId = "1A1EA1E7-9AE6-44CA-95A2-EC2DECCB3A5F";
paths = (
{
closed = 1;
nodes = (
"198 0 LINE",
"198 50 LINE",
"98 50 LINE",
"98 420 LINE",
"173 420 LINE",
"173 470 LINE",
"98 470 LINE",
"98 750 LINE",
"188 750 LINE",
"188 800 LINE",
"43 800 LINE",
"43 0 LINE"
);
}
);
width = 220;
},
{
anchors = (
{
name = bottom;
position = "{356, 0}";
},
{
name = ogonek;
position = "{641, 10}";
},
{
name = top;
position = "{356, 800}";
},
{
name = topleft;
position = "{86, 800}";
}
);
layerId = "9E3A6CEF-E447-4EE0-94FA-04D82C1F8DD8";
paths = (
{
closed = 1;
nodes = (
"641 0 LINE",
"641 155 LINE",
"281 155 LINE",
"281 350 LINE",
"591 350 LINE",
"591 505 LINE",
"281 505 LINE",
"281 645 LINE",
"621 645 LINE",
"621 800 LINE",
"96 800 LINE",
"96 0 LINE"
);
}
);
width = 706;
},
{
anchors = (
{
name = bottom;
position = "{243, 0}";
},
{
name = ogonek;
position = "{430, 10}";
},
{
name = top;
position = "{246, 800}";
},
{
name = topleft;
position = "{32, 800}";
}
);
layerId = "3822A8B4-8016-4BEB-9110-8CE71FB015E8";
paths = (
{
closed = 1;
nodes = (
"430 0 LINE",
"430 50 LINE",
"130 50 LINE",
"130 420 LINE",
"372 420 LINE",
"372 470 LINE",
"130 470 LINE",
"130 750 LINE",
"415 750 LINE",
"415 800 LINE",
"75 800 LINE",
"75 0 LINE"
);
}
);
width = 473;
},
{
anchors = (
{
name = bottom;
position = "{286, 0}";
},
{
name = ogonek;
position = "{515, 10}";
},
{
name = top;
position = "{286, 800}";
},
{
name = topleft;
position = "{57, 800}";
}
);
layerId = "9C5E0400-F04B-47EF-A56D-29B29EB8CC41";
paths = (
{
closed = 1;
nodes = (
"515 0 LINE",
"515 148 LINE",
"245 148 LINE",
"245 360 LINE",
"465 360 LINE",
"465 508 LINE",
"245 508 LINE",
"245 652 LINE",
"495 652 LINE",
"495 800 LINE",
"70 800 LINE",
"70 0 LINE"
);
}
);
width = 558;
}
);
leftKerningGroup = H;
leftMetricsKey = H;
rightKerningGroup = E;
unicode = 0045;
},
{
color = 4;
glyphname = F;
lastChange = "2018-10-07 20:52:21 +0000";
layers = (
{
layerId = "224C4421-04A1-4518-9520-E7DE557FF670";
paths = (
{
closed = 1;
nodes = (
"208 0 LINE",
"208 370 LINE",
"338 370 LINE",
"338 510 LINE",
"208 510 LINE",
"208 660 LINE",
"368 660 LINE",
"368 800 LINE",
"43 800 LINE",
"43 0 LINE"
);
}
);
width = 390;
},
{
layerId = "E3F4EB06-25ED-4CC6-B646-097E6B7CA9B6";
paths = (
{
closed = 1;
nodes = (
"161 0 LINE",
"161 420 LINE",
"571 420 LINE",
"571 470 LINE",
"161 470 LINE",
"161 750 LINE",
"641 750 LINE",
"641 800 LINE",
"106 800 LINE",
"106 0 LINE"
);
}
);
width = 706;
},
{
layerId = "1A1EA1E7-9AE6-44CA-95A2-EC2DECCB3A5F";
paths = (
{
closed = 1;
nodes = (
"98 0 LINE",
"98 420 LINE",
"168 420 LINE",
"168 470 LINE",
"98 470 LINE",
"98 750 LINE",
"198 750 LINE",
"198 800 LINE",
"43 800 LINE",
"43 0 LINE"
);
}
);
width = 220;
},
{
layerId = "9E3A6CEF-E447-4EE0-94FA-04D82C1F8DD8";
paths = (
{
closed = 1;
nodes = (
"281 0 LINE",
"281 350 LINE",
"591 350 LINE",
"591 505 LINE",
"281 505 LINE",
"281 645 LINE",
"621 645 LINE",
"621 800 LINE",
"96 800 LINE",
"96 0 LINE"
);
}
);
width = 686;
},
{
layerId = "3822A8B4-8016-4BEB-9110-8CE71FB015E8";
paths = (
{
closed = 1;
nodes = (
"130 0 LINE",
"130 420 LINE",
"370 420 LINE",
"370 470 LINE",
"130 470 LINE",
"130 750 LINE",
"420 750 LINE",
"420 800 LINE",
"75 800 LINE",
"75 0 LINE"
);
}
);
width = 463;
},
{
layerId = "9C5E0400-F04B-47EF-A56D-29B29EB8CC41";
paths = (
{
closed = 1;
nodes = (
"245 0 LINE",
"245 360 LINE",
"465 360 LINE",
"465 508 LINE",
"245 508 LINE",
"245 652 LINE",
"495 652 LINE",
"495 800 LINE",
"70 800 LINE",
"70 0 LINE"
);
}
);
width = 538;
}
);
leftKerningGroup = H;
leftMetricsKey = H;
rightKerningGroup = F;
rightMetricsKey = E;
unicode = 0046;
},
{
color = 4;
glyphname = G;
lastChange = "2018-10-07 20:52:21 +0000";
layers = (
{
anchors = (
{
name = bottom;
position = "{231, 0}";
},
{
name = top;
position = "{231, 800}";
}
);
layerId = "224C4421-04A1-4518-9520-E7DE557FF670";
paths = (
{
closed = 1;
nodes = (
"224 420 LINE",
"224 300 LINE",
"264 300 LINE",
"264 170 LINE SMOOTH",
"264 143 OFFCURVE",
"253 130 OFFCURVE",
"231 130 CURVE SMOOTH",
"209 130 OFFCURVE",
"198 141 OFFCURVE",
"198 165 CURVE SMOOTH",
"198 630 LINE SMOOTH",
"198 657 OFFCURVE",
"209 670 OFFCURVE",
"231 670 CURVE SMOOTH",
"253 670 OFFCURVE",
"264 659 OFFCURVE",
"264 635 CURVE SMOOTH",
"264 524 LINE",
"429 524 LINE",
"429 634 LINE SMOOTH",
"429 754 OFFCURVE",
"366 810 OFFCURVE",
"232 810 CURVE SMOOTH",
"97 810 OFFCURVE",
"33 754 OFFCURVE",
"33 635 CURVE SMOOTH",
"33 166 LINE SMOOTH",
"33 46 OFFCURVE",
"96 -10 OFFCURVE",
"230 -10 CURVE SMOOTH",
"365 -10 OFFCURVE",
"429 46 OFFCURVE",
"429 165 CURVE SMOOTH",
"429 420 LINE"
);
}
);
width = 462;
},
{
anchors = (
{
name = bottom;
position = "{406, 0}";
},
{
name = top;
position = "{406, 800}";
}
);
layerId = "E3F4EB06-25ED-4CC6-B646-097E6B7CA9B6";
paths = (
{
closed = 1;
nodes = (
"441 425 LINE",
"441 375 LINE",
"709 375 LINE",
"709 366 LINE SMOOTH",
"709 159 OFFCURVE",
"604 36 OFFCURVE",
"426 36 CURVE SMOOTH",
"236 36 OFFCURVE",
"123 166 OFFCURVE",
"123 386 CURVE SMOOTH",
"123 409 LINE SMOOTH",
"123 632 OFFCURVE",
"236 764 OFFCURVE",
"426 764 CURVE SMOOTH",
"560 764 OFFCURVE",
"650 699 OFFCURVE",
"668 590 CURVE SMOOTH",
"670 578 LINE",
"723 582 LINE",
"721 594 LINE SMOOTH",
"697 734 OFFCURVE",
"588 816 OFFCURVE",
"426 816 CURVE SMOOTH",
"200 816 OFFCURVE",
"66 665 OFFCURVE",
"66 409 CURVE SMOOTH",
"66 394 LINE SMOOTH",
"66 136 OFFCURVE",
"200 -16 OFFCURVE",
"426 -16 CURVE SMOOTH",
"638 -16 OFFCURVE",
"764 126 OFFCURVE",
"764 366 CURVE SMOOTH",
"764 425 LINE"
);
}
);
width = 830;
},
{
anchors = (
{
name = bottom;
position = "{121, 0}";
},
{
name = top;
position = "{121, 800}";
}
);
layerId = "1A1EA1E7-9AE6-44CA-95A2-EC2DECCB3A5F";
paths = (
{
closed = 1;
nodes = (
"119 420 LINE",
"119 370 LINE",
"154 370 LINE",
"154 80 LINE SMOOTH",
"154 55 OFFCURVE",
"142 40 OFFCURVE",
"121 40 CURVE SMOOTH",
"100 40 OFFCURVE",
"88 53 OFFCURVE",
"88 75 CURVE SMOOTH",
"88 720 LINE SMOOTH",
"88 745 OFFCURVE",
"100 760 OFFCURVE",
"121 760 CURVE SMOOTH",
"142 760 OFFCURVE",
"154 747 OFFCURVE",
"154 725 CURVE SMOOTH",
"154 524 LINE",
"209 524 LINE",
"209 724 LINE SMOOTH",
"209 778 OFFCURVE",
"177 810 OFFCURVE",
"122 810 CURVE SMOOTH",
"66 810 OFFCURVE",
"33 778 OFFCURVE",
"33 725 CURVE SMOOTH",
"33 76 LINE SMOOTH",
"33 22 OFFCURVE",
"65 -10 OFFCURVE",
"120 -10 CURVE SMOOTH",
"176 -10 OFFCURVE",
"209 22 OFFCURVE",
"209 75 CURVE SMOOTH",
"209 420 LINE"
);
}
);
width = 242;
},
{
anchors = (
{
name = bottom;
position = "{406, 0}";
},
{
name = top;
position = "{406, 800}";
}
);
layerId = "9E3A6CEF-E447-4EE0-94FA-04D82C1F8DD8";
paths = (
{
closed = 1;
nodes = (
"441 435 LINE",
"441 315 LINE",
"595 315 LINE",
"595 296 LINE SMOOTH",
"595 197 OFFCURVE",
"539 139 OFFCURVE",
"443 139 CURVE SMOOTH",
"325 139 OFFCURVE",
"256 231 OFFCURVE",
"256 386 CURVE SMOOTH",
"256 409 LINE SMOOTH",
"256 567 OFFCURVE",
"320 661 OFFCURVE",
"429 661 CURVE SMOOTH",
"509 661 OFFCURVE",
"565 622 OFFCURVE",
"579 557 CURVE SMOOTH",
"583 538 LINE",
"763 552 LINE",
"760 570 LINE SMOOTH",
"734 725 OFFCURVE",
"611 816 OFFCURVE",
"430 816 CURVE SMOOTH",
"201 816 OFFCURVE",
"66 665 OFFCURVE",
"66 409 CURVE SMOOTH",
"66 394 LINE SMOOTH",
"66 136 OFFCURVE",
"206 -16 OFFCURVE",
"442 -16 CURVE SMOOTH",
"653 -16 OFFCURVE",
"777 123 OFFCURVE",
"777 357 CURVE SMOOTH",
"777 435 LINE"
);
}
);
width = 843;
},
{
anchors = (
{
name = bottom;
position = "{264, 0}";
},
{
name = top;
position = "{264, 800}";
}
);
layerId = "3822A8B4-8016-4BEB-9110-8CE71FB015E8";
paths = (
{
closed = 1;
nodes = (
"280 423 LINE",
"280 373 LINE",
"432 373 LINE",
"432 223 LINE SMOOTH",
"432 107 OFFCURVE",
"370 38 OFFCURVE",
"264 38 CURVE SMOOTH",
"165 38 OFFCURVE",
"106 110 OFFCURVE",
"106 231 CURVE SMOOTH",
"106 565 LINE SMOOTH",
"106 689 OFFCURVE",
"165 762 OFFCURVE",
"264 762 CURVE SMOOTH",
"356 762 OFFCURVE",
"411 697 OFFCURVE",
"411 588 CURVE SMOOTH",
"411 551 LINE",
"465 553 LINE",
"465 589 LINE SMOOTH",
"465 730 OFFCURVE",
"390 813 OFFCURVE",
"264 813 CURVE SMOOTH",
"129 813 OFFCURVE",
"50 722 OFFCURVE",
"50 567 CURVE SMOOTH",
"50 235 LINE SMOOTH",
"50 79 OFFCURVE",
"129 -13 OFFCURVE",
"263 -13 CURVE SMOOTH",
"404 -13 OFFCURVE",
"487 74 OFFCURVE",
"487 221 CURVE SMOOTH",
"487 423 LINE"
);
}
);
width = 536;
},
{
anchors = (
{
name = bottom;
position = "{319, 0}";
},
{
name = top;
position = "{319, 800}";
}
);
layerId = "9C5E0400-F04B-47EF-A56D-29B29EB8CC41";
paths = (
{
closed = 1;
nodes = (
"333 428 LINE",
"333 308 LINE",
"430 308 LINE",
"430 243 LINE SMOOTH",
"430 175 OFFCURVE",
"394 135 OFFCURVE",
"332 135 CURVE SMOOTH",
"266 135 OFFCURVE",
"227 180 OFFCURVE",
"227 256 CURVE SMOOTH",
"227 540 LINE SMOOTH",
"227 619 OFFCURVE",
"263 666 OFFCURVE",
"325 666 CURVE SMOOTH",
"386 666 OFFCURVE",
"422 625 OFFCURVE",
"422 556 CURVE SMOOTH",
"422 531 LINE",
"595 538 LINE",
"595 562 LINE SMOOTH",
"595 720 OFFCURVE",
"495 813 OFFCURVE",
"326 813 CURVE SMOOTH",
"153 813 OFFCURVE",
"50 712 OFFCURVE",
"50 542 CURVE SMOOTH",
"50 260 LINE SMOOTH",
"50 88 OFFCURVE",
"154 -13 OFFCURVE",
"331 -13 CURVE SMOOTH",
"502 -13 OFFCURVE",
"603 92 OFFCURVE",
"603 271 CURVE SMOOTH",
"603 428 LINE"
);
}
);
width = 652;
}
);
leftKerningGroup = O;
leftMetricsKey = O;
rightKerningGroup = O;
rightMetricsKey = O;
unicode = 0047;
},
{
color = 4;
glyphname = H;
lastChange = "2018-10-07 20:52:21 +0000";
layers = (
{
layerId = "224C4421-04A1-4518-9520-E7DE557FF670";
paths = (
{
closed = 1;
nodes = (
"208 0 LINE",
"208 350 LINE",
"278 350 LINE",
"278 0 LINE",
"443 0 LINE",
"443 800 LINE",
"278 800 LINE",
"278 490 LINE",
"208 490 LINE",
"208 800 LINE",
"43 800 LINE",
"43 0 LINE"
);
}
);
width = 486;
},
{
layerId = "E3F4EB06-25ED-4CC6-B646-097E6B7CA9B6";
paths = (
{
closed = 1;
nodes = (
"161 0 LINE",
"161 410 LINE",
"671 410 LINE",
"671 0 LINE",
"726 0 LINE",
"726 800 LINE",
"671 800 LINE",
"671 460 LINE",
"161 460 LINE",
"161 800 LINE",
"106 800 LINE",
"106 0 LINE"
);
}
);
width = 832;
},
{
layerId = "1A1EA1E7-9AE6-44CA-95A2-EC2DECCB3A5F";
paths = (
{
closed = 1;
nodes = (
"98 0 LINE",
"98 410 LINE",
"168 410 LINE",
"168 0 LINE",
"223 0 LINE",
"223 800 LINE",
"168 800 LINE",
"168 460 LINE",
"98 460 LINE",
"98 800 LINE",
"43 800 LINE",
"43 0 LINE"
);
}
);
width = 266;
},
{
layerId = "9E3A6CEF-E447-4EE0-94FA-04D82C1F8DD8";
paths = (
{
closed = 1;
nodes = (
"281 0 LINE",
"281 350 LINE",
"551 350 LINE",
"551 0 LINE",
"736 0 LINE",
"736 800 LINE",
"551 800 LINE",
"551 505 LINE",
"281 505 LINE",
"281 800 LINE",
"96 800 LINE",
"96 0 LINE"
);
}
);
width = 832;
},
{
layerId = "3822A8B4-8016-4BEB-9110-8CE71FB015E8";
paths = (
{
closed = 1;
nodes = (
"130 0 LINE",
"130 410 LINE",
"420 410 LINE",
"420 0 LINE",
"475 0 LINE",
"475 800 LINE",
"420 800 LINE",
"420 460 LINE",
"130 460 LINE",
"130 800 LINE",
"75 800 LINE",
"75 0 LINE"
);
}
);
width = 549;
},
{
layerId = "9C5E0400-F04B-47EF-A56D-29B29EB8CC41";
paths = (
{
closed = 1;
nodes = (
"245 0 LINE",
"245 350 LINE",
"415 350 LINE",
"415 0 LINE",
"590 0 LINE",
"590 800 LINE",
"415 800 LINE",
"415 498 LINE",
"245 498 LINE",
"245 800 LINE",
"70 800 LINE",
"70 0 LINE"
);
}
);
width = 659;
}
);
leftKerningGroup = H;
rightKerningGroup = H;
unicode = 0048;
},
{
color = 4;
glyphname = Hbar;
lastChange = "2018-10-07 20:52:21 +0000";
layers = (
{
components = (
{
name = H;
transform = "{1, 0, 0, 1, 9, 0}";
}
);
layerId = "224C4421-04A1-4518-9520-E7DE557FF670";
paths = (
{
closed = 1;
nodes = (
"5 580 LINE",
"475 580 LINE",
"495 700 LINE",
"25 700 LINE"
);
}
);
width = 500;
},
{
components = (
{
name = H;
}
);
layerId = "E3F4EB06-25ED-4CC6-B646-097E6B7CA9B6";
paths = (
{
closed = 1;
nodes = (
"51 620 LINE",
"761 620 LINE",
"781 670 LINE",
"71 670 LINE"
);
}
);
width = 832;
},
{
components = (
{
name = H;
transform = "{1, 0, 0, 1, 2, 0}";
}
);
layerId = "1A1EA1E7-9AE6-44CA-95A2-EC2DECCB3A5F";
paths = (
{
closed = 1;
nodes = (
"5 615 LINE",
"255 615 LINE",
"265 665 LINE",
"15 665 LINE"
);
}
);
width = 270;
},
{
components = (
{
name = H;
}
);
layerId = "9E3A6CEF-E447-4EE0-94FA-04D82C1F8DD8";
paths = (
{
closed = 1;
nodes = (
"21 590 LINE",
"791 590 LINE",
"831 700 LINE",
"61 700 LINE"
);
}
);
width = 852;
},
{
components = (
{
alignment = -1;
name = H;
transform = "{1, 0, 0, 1, 1, 0}";
}
);
layerId = "3822A8B4-8016-4BEB-9110-8CE71FB015E8";
paths = (
{
closed = 1;
nodes = (
"28 618 LINE",
"508 618 LINE",
"523 668 LINE",
"43 668 LINE"
);
}
);
width = 551;
},
{
components = (
{
alignment = -1;
name = H;
transform = "{1, 0, 0, 1, 5, 0}";
}
);
layerId = "9C5E0400-F04B-47EF-A56D-29B29EB8CC41";
paths = (
{
closed = 1;
nodes = (
"13 585 LINE",
"633 585 LINE",
"663 700 LINE",
"43 700 LINE"
);
}
);
width = 676;
}
);
leftKerningGroup = H;
rightKerningGroup = H;
unicode = 0126;
},
{
color = 4;
glyphname = I;
lastChange = "2018-10-07 20:52:21 +0000";
layers = (
{
anchors = (
{
name = bottom;
position = "{126, 0}";
},
{
name = ogonek;
position = "{208, 10}";
},
{
name = top;
position = "{126, 800}";
},
{
name = topleft;
position = "{28, 800}";
}
);
layerId = "224C4421-04A1-4518-9520-E7DE557FF670";
paths = (
{
closed = 1;
nodes = (
"43 800 LINE",
"43 0 LINE",
"208 0 LINE",
"208 800 LINE"
);
}
);
width = 251;
},
{
anchors = (
{
name = bottom;
position = "{134, 0}";
},
{
name = ogonek;
position = "{161, 10}";
},
{
name = top;
position = "{134, 800}";
},
{
name = topleft;
position = "{20, 800}";
}
);
layerId = "E3F4EB06-25ED-4CC6-B646-097E6B7CA9B6";
paths = (
{
closed = 1;
nodes = (
"106 800 LINE",
"106 0 LINE",
"161 0 LINE",
"161 800 LINE"
);
}
);
width = 267;
},
{
anchors = (
{
name = bottom;
position = "{71, 0}";
},
{
name = ogonek;
position = "{98, 10}";
},
{
name = top;
position = "{71, 800}";
},
{
name = topleft;
position = "{43, 800}";
}
);
layerId = "1A1EA1E7-9AE6-44CA-95A2-EC2DECCB3A5F";
paths = (
{
closed = 1;
nodes = (
"43 800 LINE",
"43 0 LINE",
"98 0 LINE",
"98 800 LINE"
);
}
);
width = 141;
},
{
anchors = (
{
name = bottom;
position = "{189, 0}";
},
{
name = ogonek;
position = "{281, 10}";
},
{
name = top;
position = "{189, 800}";
},
{
name = topleft;
position = "{75, 800}";
}
);
layerId = "9E3A6CEF-E447-4EE0-94FA-04D82C1F8DD8";
paths = (
{
closed = 1;
nodes = (
"96 800 LINE",
"96 0 LINE",
"281 0 LINE",
"281 800 LINE"
);
}
);
width = 377;
},
{
anchors = (
{
name = bottom;
position = "{103, 0}";
},
{
name = ogonek;
position = "{130, 10}";
},
{
name = top;
position = "{103, 800}";
},
{
name = topleft;
position = "{32, 800}";
}
);
layerId = "3822A8B4-8016-4BEB-9110-8CE71FB015E8";
paths = (
{
closed = 1;
nodes = (
"75 800 LINE",
"75 0 LINE",
"130 0 LINE",
"130 800 LINE"
);
}
);
width = 204;
},
{
anchors = (
{
name = bottom;
position = "{158, 0}";
},
{
name = ogonek;
position = "{245, 10}";
},
{
name = top;
position = "{158, 800}";
},
{
name = topleft;
position = "{52, 800}";
}
);
layerId = "9C5E0400-F04B-47EF-A56D-29B29EB8CC41";
paths = (
{
closed = 1;
nodes = (
"70 800 LINE",
"70 0 LINE",
"245 0 LINE",
"245 800 LINE"
);
}
);
width = 314;
}
);
leftKerningGroup = H;
leftMetricsKey = H;
rightKerningGroup = H;
rightMetricsKey = H;
unicode = 0049;
},
{
color = 4;
glyphname = J;
lastChange = "2018-10-25 01:50:11 +0000";
layers = (
{
layerId = "224C4421-04A1-4518-9520-E7DE557FF670";
paths = (
{
closed = 1;
nodes = (
"248 800 LINE",
"248 170 LINE SMOOTH",
"248 143 OFFCURVE",
"237 130 OFFCURVE",
"215 130 CURVE SMOOTH",
"193 130 OFFCURVE",
"182 141 OFFCURVE",
"182 165 CURVE SMOOTH",
"182 326 LINE",
"17 326 LINE",
"17 166 LINE SMOOTH",
"17 46 OFFCURVE",
"80 -10 OFFCURVE",
"214 -10 CURVE SMOOTH",
"349 -10 OFFCURVE",
"413 46 OFFCURVE",
"413 165 CURVE SMOOTH",
"413 800 LINE"
);
}
);
width = 456;
},
{
layerId = "E3F4EB06-25ED-4CC6-B646-097E6B7CA9B6";
paths = (
{
closed = 1;
nodes = (
"459 800 LINE",
"459 212 LINE SMOOTH",
"459 101 OFFCURVE",
"392 36 OFFCURVE",
"279 36 CURVE SMOOTH",
"172 36 OFFCURVE",
"109 99 OFFCURVE",
"109 206 CURVE SMOOTH",
"109 247 LINE",
"54 237 LINE",
"54 214 LINE SMOOTH",
"54 69 OFFCURVE",
"138 -16 OFFCURVE",
"279 -16 CURVE SMOOTH",
"427 -16 OFFCURVE",
"514 69 OFFCURVE",
"514 212 CURVE SMOOTH",
"514 800 LINE"
);
}
);
width = 620;
},
{
layerId = "1A1EA1E7-9AE6-44CA-95A2-EC2DECCB3A5F";
paths = (
{
closed = 1;
nodes = (
"144 800 LINE",
"144 80 LINE SMOOTH",
"144 55 OFFCURVE",
"132 40 OFFCURVE",
"111 40 CURVE SMOOTH",
"90 40 OFFCURVE",
"78 53 OFFCURVE",
"78 75 CURVE SMOOTH",
"78 326 LINE",
"23 326 LINE",
"23 76 LINE SMOOTH",
"23 22 OFFCURVE",
"55 -10 OFFCURVE",
"110 -10 CURVE SMOOTH",
"166 -10 OFFCURVE",
"199 22 OFFCURVE",
"199 75 CURVE SMOOTH",
"199 800 LINE"
);
}
);
width = 242;
},
{
layerId = "9E3A6CEF-E447-4EE0-94FA-04D82C1F8DD8";
paths = (
{
closed = 1;
nodes = (
"417 800 LINE",
"417 250 LINE SMOOTH",
"417 180 OFFCURVE",
"384 139 OFFCURVE",
"327 139 CURVE SMOOTH",
"270 139 OFFCURVE",
"237 178 OFFCURVE",
"237 244 CURVE SMOOTH",
"237 305 LINE",
"52 295 LINE",
"52 252 LINE SMOOTH",
"52 84 OFFCURVE",
"154 -16 OFFCURVE",
"327 -16 CURVE SMOOTH",
"500 -16 OFFCURVE",
"602 84 OFFCURVE",
"602 252 CURVE SMOOTH",
"602 800 LINE"
);
}
);
width = 698;
},
{
layerId = "3822A8B4-8016-4BEB-9110-8CE71FB015E8";
paths = (
{
closed = 1;
nodes = (
"302 800 LINE",
"302 156 LINE SMOOTH",
"302 82 OFFCURVE",
"262 38 OFFCURVE",
"195 38 CURVE SMOOTH",
"132 38 OFFCURVE",
"94 80 OFFCURVE",
"94 151 CURVE SMOOTH",
"94 287 LINE",
"39 282 LINE",
"39 155 LINE SMOOTH",
"39 49 OFFCURVE",
"97 -13 OFFCURVE",
"195 -13 CURVE SMOOTH",
"297 -13 OFFCURVE",
"357 49 OFFCURVE",
"357 154 CURVE SMOOTH",
"357 800 LINE"
);
}
);
width = 431;
},
{
layerId = "9C5E0400-F04B-47EF-A56D-29B29EB8CC41";
paths = (
{
closed = 1;
nodes = (
"333 800 LINE",
"333 210 LINE SMOOTH",
"333 162 OFFCURVE",
"311 135 OFFCURVE",
"271 135 CURVE SMOOTH",
"232 135 OFFCURVE",
"210 160 OFFCURVE",
"210 205 CURVE SMOOTH",
"210 316 LINE",
"35 311 LINE",
"35 209 LINE SMOOTH",
"35 65 OFFCURVE",
"117 -13 OFFCURVE",
"271 -13 CURVE SMOOTH",
"425 -13 OFFCURVE",
"508 65 OFFCURVE",
"508 209 CURVE SMOOTH",
"508 800 LINE"
);
}
);
width = 577;
}
);
leftKerningGroup = J;
leftMetricsKey = A;
rightKerningGroup = U;
rightMetricsKey = H;
unicode = 004A;
},
{
color = 4;
glyphname = K;
lastChange = "2018-10-07 20:52:21 +0000";
layers = (
{
anchors = (
{
name = bottom;
position = "{287, 0}";
},
{
name = top;
position = "{287, 800}";
}
);
background = {
paths = (
{
closed = 1;
nodes = (
"43 0 LINE",
"208 0 LINE",
"208 800 LINE",
"43 800 LINE"
);
},
{
closed = 1;
nodes = (
"193 273 LINE",
"253 400 LINE",
"321 400 LINE",
"490 800 LINE",
"323 800 LINE",
"193 459 LINE"
);
},
{
closed = 1;
nodes = (
"221 438 LINE",
"324 0 LINE",
"495 0 LINE",
"322 662 LINE"
);
}
);
};
layerId = "224C4421-04A1-4518-9520-E7DE557FF670";
paths = (
{
closed = 1;
nodes = (
"208 0 LINE",
"208 305 LINE",
"231 384 LINE",
"237 384 LINE",
"324 0 LINE",
"495 0 LINE",
"364 502 LINE",
"490 800 LINE",
"323 800 LINE",
"227 549 LINE",
"206 459 LINE",
"200 459 LINE",
"208 547.993 LINE",
"208 800 LINE",
"43 800 LINE",
"43 0 LINE"
);
}
);
width = 510;
},
{
anchors = (
{
name = bottom;
position = "{376, 0}";
},
{
name = top;
position = "{376, 800}";
}
);
background = {
paths = (
{
closed = 1;
nodes = (
"106 0 LINE",
"161 0 LINE",
"161 800 LINE",
"106 800 LINE"
);
},
{
closed = 1;
nodes = (
"146 272 LINE",
"346 473 LINE",
"359 479 LINE",
"673 800 LINE",
"596 800 LINE",
"146 339 LINE"
);
},
{
closed = 1;
nodes = (
"330 479 LINE",
"637 0 LINE",
"703 0 LINE",
"369 520 LINE"
);
}
);
};
layerId = "E3F4EB06-25ED-4CC6-B646-097E6B7CA9B6";
paths = (
{
closed = 1;
nodes = (
"161 0 LINE",
"161 287 LINE",
"336 466 LINE",
"340 466 LINE",
"637 0 LINE",
"703 0 LINE",
"381 501 LINE",
"673 800 LINE",
"596 800 LINE",
"176 370 LINE",
"159 341 LINE",
"155 341 LINE",
"161 376 LINE",
"161 800 LINE",
"106 800 LINE",
"106 0 LINE"
);
}
);
width = 751;
},
{
anchors = (
{
name = bottom;
position = "{127, 0}";
},
{
name = top;
position = "{127, 800}";
}
);
background = {
paths = (
{
closed = 1;
nodes = (
"43 0 LINE",
"98 0 LINE",
"98 800 LINE",
"43 800 LINE"
);
},
{
closed = 1;
nodes = (
"92 350 LINE",
"123 479 LINE",
"142 479 LINE",
"220 800 LINE",
"163 800 LINE",
"92 450 LINE"
);
},
{
closed = 1;
nodes = (
"115 483 LINE",
"174 0 LINE",
"235 0 LINE",
"142 557 LINE"
);
}
);
};
layerId = "1A1EA1E7-9AE6-44CA-95A2-EC2DECCB3A5F";
paths = (
{
closed = 1;
nodes = (
"98 0 LINE",
"98 365 LINE",
"103 448 LINE",
"109 448 LINE",
"174 0 LINE",
"235 0 LINE",
"147 497 LINE",
"222 800 LINE",
"165 800 LINE",
"108 522 LINE",
"102 480 LINE",
"96 480 LINE",
"98 522 LINE",
"98 800 LINE",
"43 800 LINE",
"43 0 LINE"
);
}
);
width = 256;
},
{
anchors = (
{
name = bottom;
position = "{396, 0}";
},
{
name = top;
position = "{396, 800}";
}
);
background = {
paths = (
{
closed = 1;
nodes = (
"281 0 LINE",
"281 281 LINE",
"374 393 LINE",
"574 0 LINE",
"773 0 LINE",
"513 513 LINE",
"733 800 LINE",
"525 800 LINE",
"281 473 LINE",
"281 800 LINE",
"96 800 LINE",
"96 0 LINE"
);
}
);
};
layerId = "9E3A6CEF-E447-4EE0-94FA-04D82C1F8DD8";
paths = (
{
closed = 1;
nodes = (
"281 0 LINE",
"281 281 LINE",
"372 393 LINE",
"376 393 LINE",
"574 0 LINE",
"773 0 LINE",
"513 513 LINE",
"733 800 LINE",
"525 800 LINE",
"306 507 LINE",
"277 448 LINE",
"273 448 LINE",
"281 512 LINE",
"281 800 LINE",
"96 800 LINE",
"96 0 LINE"
);
}
);
width = 814;
},
{
anchors = (
{
name = bottom;
position = "{252, 0}";
},
{
name = top;
position = "{252, 800}";
}
);
layerId = "3822A8B4-8016-4BEB-9110-8CE71FB015E8";
paths = (
{
closed = 1;
nodes = (
"130 0 LINE",
"130 326 LINE",
"220 477 LINE",
"225 477 LINE",
"406 0 LINE",
"465 0 LINE",
"264 519 LINE",
"444 800 LINE",
"381 800 LINE",
"142 426 LINE",
"131 391 LINE",
"126 391 LINE",
"130 429 LINE",
"130 800 LINE",
"75 800 LINE",
"75 0 LINE"
);
}
);
width = 499;
},
{
anchors = (
{
name = bottom;
position = "{342, 0}";
},
{
name = top;
position = "{342, 800}";
}
);
layerId = "9C5E0400-F04B-47EF-A56D-29B29EB8CC41";
paths = (
{
closed = 1;
nodes = (
"245 0 LINE",
"245 293 LINE",
"302 389 LINE",
"307 389 LINE",
"449 0 LINE",
"634 0 LINE",
"439 508 LINE",
"612 800 LINE",
"424 800 LINE",
"267 528 LINE",
"242 454 LINE",
"237 454 LINE",
"245 530 LINE",
"245 800 LINE",
"70 800 LINE",
"70 0 LINE"
);
}
);
width = 662;
}
);
leftKerningGroup = H;
leftMetricsKey = H;
rightKerningGroup = X;
rightMetricsKey = A;
unicode = 004B;
},
{
color = 4;
glyphname = L;
lastChange = "2018-10-07 20:52:21 +0000";
layers = (
{
anchors = (
{
name = bottom;
position = "{198, 0}";
},
{
name = center;
position = "{198, 400}";
},
{
name = top;
position = "{148, 800}";
},
{
name = topright;
position = "{258, 820}";
}
);
layerId = "224C4421-04A1-4518-9520-E7DE557FF670";
paths = (
{
closed = 1;
nodes = (
"378 140 LINE",
"208 140 LINE",
"208 800 LINE",
"43 800 LINE",
"43 0 LINE",
"378 0 LINE"
);
}
);
width = 393;
},
{
anchors = (
{
name = bottom;
position = "{381, 0}";
},
{
name = center;
position = "{161, 400}";
},
{
name = top;
position = "{161, 800}";
},
{
name = topright;
position = "{211, 800}";
}
);
layerId = "E3F4EB06-25ED-4CC6-B646-097E6B7CA9B6";
paths = (
{
closed = 1;
nodes = (
"661 50 LINE",
"161 50 LINE",
"161 800 LINE",
"106 800 LINE",
"106 0 LINE",
"661 0 LINE"
);
}
);
width = 709;
},
{
anchors = (
{
name = bottom;
position = "{128, 0}";
},
{
name = center;
position = "{70, 400}";
},
{
name = top;
position = "{68, 800}";
},
{
name = topright;
position = "{128, 820}";
}
);
layerId = "1A1EA1E7-9AE6-44CA-95A2-EC2DECCB3A5F";
paths = (
{
closed = 1;
nodes = (
"198 50 LINE",
"98 50 LINE",
"98 800 LINE",
"43 800 LINE",
"43 0 LINE",
"198 0 LINE"
);
}
);
width = 219;
},
{
anchors = (
{
name = bottom;
position = "{371, 0}";
},
{
name = center;
position = "{151, 400}";
},
{
name = top;
position = "{206, 800}";
},
{
name = topright;
position = "{331, 800}";
}
);
layerId = "9E3A6CEF-E447-4EE0-94FA-04D82C1F8DD8";
paths = (
{
closed = 1;
nodes = (
"651 155 LINE",
"281 155 LINE",
"281 800 LINE",
"96 800 LINE",
"96 0 LINE",
"651 0 LINE"
);
}
);
width = 692;
},
{
anchors = (
{
name = bottom;
position = "{255, 0}";
},
{
name = center;
position = "{116, 400}";
},
{
name = top;
position = "{115, 800}";
},
{
name = topright;
position = "{170, 810}";
}
);
layerId = "3822A8B4-8016-4BEB-9110-8CE71FB015E8";
paths = (
{
closed = 1;
nodes = (
"430 50 LINE",
"130 50 LINE",
"130 800 LINE",
"75 800 LINE",
"75 0 LINE",
"430 0 LINE"
);
}
);
width = 464;
},
{
anchors = (
{
name = bottom;
position = "{285, 0}";
},
{
name = center;
position = "{175, 400}";
},
{
name = top;
position = "{177, 800}";
},
{
name = topright;
position = "{295, 810}";
}
);
layerId = "9C5E0400-F04B-47EF-A56D-29B29EB8CC41";
paths = (
{
closed = 1;
nodes = (
"515 148 LINE",
"245 148 LINE",
"245 800 LINE",
"70 800 LINE",
"70 0 LINE",
"515 0 LINE"
);
}
);
width = 543;
}
);
leftKerningGroup = H;
leftMetricsKey = H;
rightKerningGroup = L;
rightMetricsKey = A;
unicode = 004C;
},
{
color = 4;
glyphname = Lslash;
lastChange = "2018-10-07 20:52:21 +0000";
layers = (
{
components = (
{
name = L;
transform = "{1, 0, 0, 1, 25, 0}";
}
);
layerId = "224C4421-04A1-4518-9520-E7DE557FF670";
paths = (
{
closed = 1;
nodes = (
"284 422 LINE",
"284 533 LINE",
"5 489 LINE",
"5 378 LINE"
);
}
);
width = 418;
},
{
components = (
{
name = L;
transform = "{1, 0, 0, 1, 25, 0}";
}
);
layerId = "E3F4EB06-25ED-4CC6-B646-097E6B7CA9B6";
paths = (
{
closed = 1;
nodes = (
"334 422 LINE",
"334 473 LINE",
"55 429 LINE",
"55 378 LINE"
);
}
);
width = 734;
},
{
components = (
{
name = L;
transform = "{1, 0, 0, 1, 25, 0}";
}
);
layerId = "1A1EA1E7-9AE6-44CA-95A2-EC2DECCB3A5F";
paths = (
{
closed = 1;
nodes = (
"185 445 LINE",
"185 491 LINE",
"5 462 LINE",
"5 416 LINE"
);
}
);
width = 244;
},
{
components = (
{
name = L;
transform = "{1, 0, 0, 1, 25, 0}";
}
);
layerId = "9E3A6CEF-E447-4EE0-94FA-04D82C1F8DD8";
paths = (
{
closed = 1;
nodes = (
"430 413 LINE",
"430 520 LINE",
"50 383 LINE",
"50 276 LINE"
);
}
);
width = 717;
},
{
components = (
{
alignment = -1;
name = L;
transform = "{1, 0, 0, 1, 25, 0}";
}
);
layerId = "3822A8B4-8016-4BEB-9110-8CE71FB015E8";
paths = (
{
closed = 1;
nodes = (
"260 434 LINE",
"260 482 LINE",
"30 446 LINE",
"30 397 LINE"
);
}
);
width = 489;
},
{
components = (
{
alignment = -1;
name = L;
transform = "{1, 0, 0, 1, 25, 0}";
}
);
layerId = "9C5E0400-F04B-47EF-A56D-29B29EB8CC41";
paths = (
{
closed = 1;
nodes = (
"357 418 LINE",
"357 527 LINE",
"28 436 LINE",
"28 327 LINE"
);
}
);
width = 568;
}
);
leftKerningGroup = H;
rightKerningGroup = L;
rightMetricsKey = L;
unicode = 0141;
},
{
color = 4;
glyphname = M;
lastChange = "2018-10-25 01:08:34 +0000";
layers = (
{
guideLines = (
{
position = "{338, 454}";
},
{
position = "{356, 673}";
}
);
layerId = "224C4421-04A1-4518-9520-E7DE557FF670";
paths = (
{
closed = 1;
nodes = (
"669 800 LINE",
"409 800 LINE",
"357 274 LINE",
"352 120 LINE",
"346 120 LINE",
"341 274 LINE",
"289 800 LINE",
"43 800 LINE",
"43 0 LINE",
"178 0 LINE",
"178 526 LINE",
"176 680 LINE",
"182 680 LINE",
"191 526 LINE",
"248 0 LINE",
"445 0 LINE",
"501 526 LINE",
"510 680 LINE",
"516 680 LINE",
"514 526 LINE",
"514 0 LINE",
"669 0 LINE"
);
}
);
width = 712;
},
{
guideLines = (
{
position = "{212, 670}";
}
);
layerId = "E3F4EB06-25ED-4CC6-B646-097E6B7CA9B6";
paths = (
{
closed = 1;
nodes = (
"875 800 LINE",
"797 800 LINE",
"503 111 LINE",
"493 65 LINE",
"489 65 LINE",
"479 111 LINE",
"183 800 LINE",
"106 800 LINE",
"106 0 LINE",
"158 0 LINE",
"158 670 LINE",
"152 750 LINE",
"156 750 LINE",
"180 670 LINE",
"468 0 LINE",
"510 0 LINE",
"798 670 LINE",
"823 750 LINE",
"827 750 LINE",
"820 670 LINE",
"820 0 LINE",
"875 0 LINE"
);
}
);
width = 981;
},
{
layerId = "1A1EA1E7-9AE6-44CA-95A2-EC2DECCB3A5F";
paths = (
{
closed = 1;
nodes = (
"348 800 LINE",
"275 800 LINE",
"202 193 LINE",
"198 70 LINE",
"192 70 LINE",
"188 193 LINE",
"118 800 LINE",
"43 800 LINE",
"43 0 LINE",
"93 0 LINE",
"93 516 LINE",
"83 730 LINE",
"89 730 LINE",
"104 516 LINE",
"164 0 LINE",
"220 0 LINE",
"282 516 LINE",
"301 730 LINE",
"307 730 LINE",
"293 516 LINE",
"293 0 LINE",
"348 0 LINE"
);
}
);
width = 391;
},
{
layerId = "9E3A6CEF-E447-4EE0-94FA-04D82C1F8DD8";
paths = (
{
closed = 1;
nodes = (
"967 800 LINE",
"712 800 LINE",
"534 307 LINE",
"529 248 LINE",
"525 248 LINE",
"520 307 LINE",
"340 800 LINE",
"96 800 LINE",
"96 0 LINE",
"266 0 LINE",
"266 509 LINE",
"254 610 LINE",
"258 610 LINE",
"276 509 LINE",
"463 0 LINE",
"588 0 LINE",
"772 509 LINE",
"790 610 LINE",
"794 610 LINE",
"782 509 LINE",
"782 0 LINE",
"967 0 LINE"
);
}
);
width = 1063;
},
{
layerId = "3822A8B4-8016-4BEB-9110-8CE71FB015E8";
paths = (
{
closed = 1;
nodes = (
"612 800 LINE",
"536 800 LINE",
"351 142 LINE",
"344 68 LINE",
"339 68 LINE",
"332 142 LINE",
"151 800 LINE",
"75 800 LINE",
"75 0 LINE",
"126 0 LINE",
"126 633 LINE",
"118 740 LINE",
"123 740 LINE",
"142 633 LINE",
"316 0 LINE",
"365 0 LINE",
"540 633 LINE",
"562 740 LINE",
"567 740 LINE",
"557 633 LINE",
"557 0 LINE",
"612 0 LINE"
);
}
);
width = 686;
},
{
layerId = "9C5E0400-F04B-47EF-A56D-29B29EB8CC41";
paths = (
{
closed = 1;
nodes = (
"818 800 LINE",
"558 800 LINE",
"445 271 LINE",
"438 174 LINE",
"433 174 LINE",
"426 271 LINE",
"312 800 LINE",
"70 800 LINE",
"70 0 LINE",
"217 0 LINE",
"217 538 LINE",
"210 645 LINE",
"215 645 LINE",
"231 538 LINE",
"351 0 LINE",
"517 0 LINE",
"635 538 LINE",
"650 645 LINE",
"655 645 LINE",
"648 538 LINE",
"648 0 LINE",
"818 0 LINE"
);
}
);
width = 887;
}
);
leftKerningGroup = H;
leftMetricsKey = H;
rightKerningGroup = H;
rightMetricsKey = H;
unicode = 004D;
},
{
color = 4;
glyphname = N;
lastChange = "2018-10-25 01:13:17 +0000";
layers = (
{
anchors = (
{
name = bottom;
position = "{248, 0}";
},
{
name = top;
position = "{248, 800}";
}
);
layerId = "224C4421-04A1-4518-9520-E7DE557FF670";
paths = (
{
closed = 1;
nodes = (
"43 0 LINE",
"183 0 LINE",
"183 400 LINE",
"169 546 LINE",
"175 546 LINE",
"197 400 LINE",
"292 0 LINE",
"463 0 LINE",
"463 800 LINE",
"323 800 LINE",
"323 400 LINE",
"337 254 LINE",
"333 254 LINE",
"308 400 LINE",
"214 800 LINE",
"43 800 LINE"
);
}
);
width = 506;
},
{
anchors = (
{
name = bottom;
position = "{400, 0}";
},
{
name = top;
position = "{400, 800}";
}
);
layerId = "E3F4EB06-25ED-4CC6-B646-097E6B7CA9B6";
paths = (
{
closed = 1;
nodes = (
"106 0 LINE",
"158 0 LINE",
"158 675 LINE",
"152 750 LINE",
"156 750 LINE",
"196 675 LINE",
"610 0 LINE",
"681 0 LINE",
"681 800 LINE",
"629 800 LINE",
"629 125 LINE",
"635 50 LINE",
"631 50 LINE",
"592 125 LINE",
"178 800 LINE",
"106 800 LINE"
);
}
);
width = 787;
},
{
anchors = (
{
name = bottom;
position = "{152, 0}";
},
{
name = top;
position = "{152, 800}";
}
);
layerId = "1A1EA1E7-9AE6-44CA-95A2-EC2DECCB3A5F";
paths = (
{
closed = 1;
nodes = (
"43 0 LINE",
"93 0 LINE",
"93 600 LINE",
"83 730 LINE",
"89 730 LINE",
"104 600 LINE",
"176 0 LINE",
"250 0 LINE",
"250 800 LINE",
"200 800 LINE",
"200 200 LINE",
"210 70 LINE",
"204 70 LINE",
"189 200 LINE",
"119 800 LINE",
"43 800 LINE"
);
}
);
width = 293;
},
{
anchors = (
{
name = bottom;
position = "{432, 0}";
},
{
name = top;
position = "{432, 800}";
}
);
layerId = "9E3A6CEF-E447-4EE0-94FA-04D82C1F8DD8";
paths = (
{
closed = 1;
nodes = (
"96 0 LINE",
"276 0 LINE",
"276 505 LINE",
"258 597 LINE",
"262 597 LINE",
"286 519 LINE",
"569 0 LINE",
"787 0 LINE",
"787 800 LINE",
"607 800 LINE",
"607 291 LINE",
"625 199 LINE",
"621 199 LINE",
"597 277 LINE",
"312 800 LINE",
"96 800 LINE"
);
}
);
width = 883;
},
{
anchors = (
{
name = bottom;
position = "{276, 0}";
},
{
name = top;
position = "{276, 800}";
}
);
layerId = "3822A8B4-8016-4BEB-9110-8CE71FB015E8";
paths = (
{
closed = 1;
nodes = (
"75 0 LINE",
"124 0 LINE",
"124 660 LINE",
"118 740 LINE",
"123 740 LINE",
"148 660 LINE",
"391 0 LINE",
"466 0 LINE",
"466 800 LINE",
"417 800 LINE",
"417 145 LINE",
"423 60 LINE",
"418 60 LINE",
"393 145 LINE",
"151 800 LINE",
"75 800 LINE"
);
}
);
width = 540;
},
{
anchors = (
{
name = bottom;
position = "{340, 0}";
},
{
name = top;
position = "{340, 800}";
}
);
layerId = "9C5E0400-F04B-47EF-A56D-29B29EB8CC41";
paths = (
{
closed = 1;
nodes = (
"70 0 LINE",
"222 0 LINE",
"222 463 LINE",
"206 572 LINE",
"211 572 LINE",
"236 470 LINE",
"423 0 LINE",
"625 0 LINE",
"625 800 LINE",
"473 800 LINE",
"473 336 LINE",
"489 227 LINE",
"485 227 LINE",
"458 329 LINE",
"271 800 LINE",
"70 800 LINE"
);
}
);
width = 694;
}
);
leftKerningGroup = H;
leftMetricsKey = H;
rightKerningGroup = H;
rightMetricsKey = H;
unicode = 004E;
},
{
color = 4;
glyphname = Eng;
lastChange = "2018-10-07 20:52:21 +0000";
layers = (
{
components = (
{
name = N;
}
);
layerId = "224C4421-04A1-4518-9520-E7DE557FF670";
paths = (
{
closed = 1;
nodes = (
"293 20 LINE",
"293 -12 LINE SMOOTH",
"293 -31 OFFCURVE",
"284 -40 OFFCURVE",
"265 -40 CURVE SMOOTH",
"258 -40 OFFCURVE",
"250 -39 OFFCURVE",
"243 -38 CURVE",
"243 -180 LINE",
"272 -187 OFFCURVE",
"301 -190 OFFCURVE",
"331 -190 CURVE SMOOTH",
"413 -190 OFFCURVE",
"453 -146 OFFCURVE",
"453 -57 CURVE SMOOTH",
"453 20 LINE"
);
}
);
width = 506;
},
{
components = (
{
name = N;
}
);
layerId = "E3F4EB06-25ED-4CC6-B646-097E6B7CA9B6";
paths = (
{
closed = 1;
nodes = (
"628 20 LINE",
"628 8 LINE SMOOTH",
"628 -85 OFFCURVE",
"573 -140 OFFCURVE",
"480 -140 CURVE SMOOTH",
"454 -140 OFFCURVE",
"423 -136 OFFCURVE",
"398 -130 CURVE",
"398 -180 LINE",
"421 -186 OFFCURVE",
"452 -190 OFFCURVE",
"480 -190 CURVE SMOOTH",
"606 -190 OFFCURVE",
"681 -118 OFFCURVE",
"681 3 CURVE SMOOTH",
"681 20 LINE"
);
}
);
width = 787;
},
{
components = (
{
name = N;
}
);
layerId = "1A1EA1E7-9AE6-44CA-95A2-EC2DECCB3A5F";
paths = (
{
closed = 1;
nodes = (
"195 20 LINE",
"195 -102 LINE SMOOTH",
"195 -120 OFFCURVE",
"185 -130 OFFCURVE",
"167 -130 CURVE SMOOTH",
"159 -130 OFFCURVE",
"151 -129 OFFCURVE",
"145 -128 CURVE",
"145 -180 LINE",
"155 -183 OFFCURVE",
"170 -185 OFFCURVE",
"183 -185 CURVE SMOOTH",
"225 -185 OFFCURVE",
"250 -162 OFFCURVE",
"250 -122 CURVE SMOOTH",
"250 20 LINE"
);
}
);
width = 293;
},
{
components = (
{
name = N;
}
);
layerId = "9E3A6CEF-E447-4EE0-94FA-04D82C1F8DD8";
paths = (
{
closed = 1;
nodes = (
"612 76 LINE",
"612 32 LINE SMOOTH",
"612 -14 OFFCURVE",
"563 -41 OFFCURVE",
"479 -41 CURVE SMOOTH",
"446 -41 OFFCURVE",
"410 -33 OFFCURVE",
"382 -20 CURVE",
"382 -170 LINE",
"417 -186 OFFCURVE",
"468 -196 OFFCURVE",
"520 -196 CURVE SMOOTH",
"694 -196 OFFCURVE",
"797 -123 OFFCURVE",
"797 0 CURVE SMOOTH",
"797 76 LINE"
);
}
);
width = 893;
},
{
components = (
{
alignment = -1;
name = N;
}
);
layerId = "3822A8B4-8016-4BEB-9110-8CE71FB015E8";
paths = (
{
closed = 1;
nodes = (
"412 20 LINE",
"412 -47 LINE SMOOTH",
"412 -103 OFFCURVE",
"379 -135 OFFCURVE",
"324 -135 CURVE SMOOTH",
"307 -135 OFFCURVE",
"287 -133 OFFCURVE",
"272 -129 CURVE",
"272 -180 LINE",
"288 -185 OFFCURVE",
"311 -188 OFFCURVE",
"332 -188 CURVE SMOOTH",
"416 -188 OFFCURVE",
"466 -140 OFFCURVE",
"466 -60 CURVE SMOOTH",
"466 20 LINE"
);
}
);
width = 540;
},
{
components = (
{
alignment = -1;
name = N;
}
);
layerId = "9C5E0400-F04B-47EF-A56D-29B29EB8CC41";
paths = (
{
closed = 1;
nodes = (
"453 48 LINE",
"453 10 LINE SMOOTH",
"453 -23 OFFCURVE",
"424 -41 OFFCURVE",
"372 -41 CURVE SMOOTH",
"352 -41 OFFCURVE",
"330 -36 OFFCURVE",
"313 -29 CURVE",
"313 -175 LINE",
"345 -187 OFFCURVE",
"385 -193 OFFCURVE",
"426 -193 CURVE SMOOTH",
"554 -193 OFFCURVE",
"625 -135 OFFCURVE",
"625 -29 CURVE SMOOTH",
"625 48 LINE"
);
}
);
width = 694;
}
);
leftKerningGroup = H;
leftMetricsKey = H;
rightKerningGroup = H;
rightMetricsKey = H;
unicode = 014A;
},
{
color = 4;
glyphname = O;
lastChange = "2018-10-07 20:52:21 +0000";
layers = (
{
anchors = (
{
name = bottom;
position = "{231, 0}";
},
{
name = center;
position = "{231, 400}";
},
{
name = ogonek;
position = "{421, 10}";
},
{
name = top;
position = "{231, 800}";
},
{
name = topleft;
position = "{13, 800}";
},
{
name = topright;
position = "{449, 800}";
}
);
layerId = "224C4421-04A1-4518-9520-E7DE557FF670";
paths = (
{
closed = 1;
nodes = (
"33 46 OFFCURVE",
"96 -10 OFFCURVE",
"230 -10 CURVE SMOOTH",
"365 -10 OFFCURVE",
"429 46 OFFCURVE",
"429 165 CURVE SMOOTH",
"429 634 LINE SMOOTH",
"429 754 OFFCURVE",
"366 810 OFFCURVE",
"232 810 CURVE SMOOTH",
"97 810 OFFCURVE",
"33 754 OFFCURVE",
"33 635 CURVE SMOOTH",
"33 166 LINE SMOOTH"
);
},
{
closed = 1;
nodes = (
"198 630 LINE SMOOTH",
"198 657 OFFCURVE",
"209 670 OFFCURVE",
"231 670 CURVE SMOOTH",
"253 670 OFFCURVE",
"264 659 OFFCURVE",
"264 635 CURVE SMOOTH",
"264 170 LINE SMOOTH",
"264 143 OFFCURVE",
"253 130 OFFCURVE",
"231 130 CURVE SMOOTH",
"209 130 OFFCURVE",
"198 141 OFFCURVE",
"198 165 CURVE SMOOTH"
);
}
);
width = 462;
},
{
anchors = (
{
name = bottom;
position = "{411, 0}";
},
{
name = center;
position = "{411, 400}";
},
{
name = ogonek;
position = "{522, 10}";
},
{
name = top;
position = "{411, 800}";
},
{
name = topleft;
position = "{3, 800}";
},
{
name = topright;
position = "{819, 800}";
}
);
layerId = "E3F4EB06-25ED-4CC6-B646-097E6B7CA9B6";
paths = (
{
closed = 1;
nodes = (
"66 140 OFFCURVE",
"197 -16 OFFCURVE",
"412 -16 CURVE SMOOTH",
"625 -16 OFFCURVE",
"756 139 OFFCURVE",
"756 392 CURVE SMOOTH",
"756 407 LINE SMOOTH",
"756 661 OFFCURVE",
"625 816 OFFCURVE",
"410 816 CURVE SMOOTH",
"197 816 OFFCURVE",
"66 661 OFFCURVE",
"66 409 CURVE SMOOTH",
"66 394 LINE SMOOTH"
);
},
{
closed = 1;
nodes = (
"123 409 LINE SMOOTH",
"123 629 OFFCURVE",
"232 764 OFFCURVE",
"409 764 CURVE SMOOTH",
"589 764 OFFCURVE",
"699 631 OFFCURVE",
"699 415 CURVE SMOOTH",
"699 392 LINE SMOOTH",
"699 171 OFFCURVE",
"590 36 OFFCURVE",
"413 36 CURVE SMOOTH",
"233 36 OFFCURVE",
"123 169 OFFCURVE",
"123 386 CURVE SMOOTH"
);
}
);
width = 822;
},
{
anchors = (
{
name = bottom;
position = "{121, 0}";
},
{
name = center;
position = "{121, 400}";
},
{
name = ogonek;
position = "{173, 10}";
},
{
name = top;
position = "{121, 800}";
},
{
name = topleft;
position = "{33, 800}";
},
{
name = topright;
position = "{209, 800}";
}
);
layerId = "1A1EA1E7-9AE6-44CA-95A2-EC2DECCB3A5F";
paths = (
{
closed = 1;
nodes = (
"33 22 OFFCURVE",
"65 -10 OFFCURVE",
"120 -10 CURVE SMOOTH",
"176 -10 OFFCURVE",
"209 22 OFFCURVE",
"209 75 CURVE SMOOTH",
"209 724 LINE SMOOTH",
"209 778 OFFCURVE",
"177 810 OFFCURVE",
"122 810 CURVE SMOOTH",
"66 810 OFFCURVE",
"33 778 OFFCURVE",
"33 725 CURVE SMOOTH",
"33 76 LINE SMOOTH"
);
},
{
closed = 1;
nodes = (
"88 720 LINE SMOOTH",
"88 745 OFFCURVE",
"100 760 OFFCURVE",
"121 760 CURVE SMOOTH",
"142 760 OFFCURVE",
"154 747 OFFCURVE",
"154 725 CURVE SMOOTH",
"154 80 LINE SMOOTH",
"154 55 OFFCURVE",
"142 40 OFFCURVE",
"121 40 CURVE SMOOTH",
"100 40 OFFCURVE",
"88 53 OFFCURVE",
"88 75 CURVE SMOOTH"
);
}
);
width = 242;
},
{
anchors = (
{
name = bottom;
position = "{431, 0}";
},
{
name = center;
position = "{431, 400}";
},
{
name = ogonek;
position = "{549, 10}";
},
{
name = top;
position = "{431, 800}";
},
{
name = topleft;
position = "{23, 800}";
},
{
name = topright;
position = "{839, 800}";
}
);
layerId = "9E3A6CEF-E447-4EE0-94FA-04D82C1F8DD8";
paths = (
{
closed = 1;
nodes = (
"66 136 OFFCURVE",
"202 -16 OFFCURVE",
"432 -16 CURVE SMOOTH",
"661 -16 OFFCURVE",
"796 136 OFFCURVE",
"796 392 CURVE SMOOTH",
"796 407 LINE SMOOTH",
"796 664 OFFCURVE",
"660 816 OFFCURVE",
"430 816 CURVE SMOOTH",
"201 816 OFFCURVE",
"66 665 OFFCURVE",
"66 409 CURVE SMOOTH",
"66 394 LINE SMOOTH"
);
},
{
closed = 1;
nodes = (
"256 409 LINE SMOOTH",
"256 567 OFFCURVE",
"320 661 OFFCURVE",
"429 661 CURVE SMOOTH",
"540 661 OFFCURVE",
"606 570 OFFCURVE",
"606 415 CURVE SMOOTH",
"606 392 LINE SMOOTH",
"606 233 OFFCURVE",
"542 139 OFFCURVE",
"433 139 CURVE SMOOTH",
"322 139 OFFCURVE",
"256 231 OFFCURVE",
"256 386 CURVE SMOOTH"
);
}
);
width = 862;
},
{
anchors = (
{
name = bottom;
position = "{266, 0}";
},
{
name = center;
position = "{266, 400}";
},
{
name = ogonek;
position = "{348, 10}";
},
{
name = top;
position = "{266, 800}";
},
{
name = topleft;
position = "{18, 800}";
},
{
name = topright;
position = "{514, 800}";
}
);
layerId = "3822A8B4-8016-4BEB-9110-8CE71FB015E8";
paths = (
{
closed = 1;
nodes = (
"50 81 OFFCURVE",
"131 -13 OFFCURVE",
"266 -13 CURVE SMOOTH",
"401 -13 OFFCURVE",
"483 81 OFFCURVE",
"483 234 CURVE SMOOTH",
"483 566 LINE SMOOTH",
"483 720 OFFCURVE",
"401 813 OFFCURVE",
"266 813 CURVE SMOOTH",
"132 813 OFFCURVE",
"50 720 OFFCURVE",
"50 567 CURVE SMOOTH",
"50 235 LINE SMOOTH"
);
},
{
closed = 1;
nodes = (
"106 565 LINE SMOOTH",
"106 687 OFFCURVE",
"166 762 OFFCURVE",
"265 762 CURVE SMOOTH",
"366 762 OFFCURVE",
"427 689 OFFCURVE",
"427 570 CURVE SMOOTH",
"427 236 LINE SMOOTH",
"427 113 OFFCURVE",
"366 38 OFFCURVE",
"267 38 CURVE SMOOTH",
"167 38 OFFCURVE",
"106 111 OFFCURVE",
"106 231 CURVE SMOOTH"
);
}
);
width = 532;
},
{
anchors = (
{
name = bottom;
position = "{331, 0}";
},
{
name = center;
position = "{331, 400}";
},
{
name = ogonek;
position = "{485, 10}";
},
{
name = top;
position = "{331, 800}";
},
{
name = topleft;
position = "{18, 800}";
},
{
name = topright;
position = "{644, 800}";
}
);
layerId = "9C5E0400-F04B-47EF-A56D-29B29EB8CC41";
paths = (
{
closed = 1;
nodes = (
"50 88 OFFCURVE",
"154 -13 OFFCURVE",
"331 -13 CURVE SMOOTH",
"508 -13 OFFCURVE",
"613 88 OFFCURVE",
"613 259 CURVE SMOOTH",
"613 541 LINE SMOOTH",
"613 712 OFFCURVE",
"508 813 OFFCURVE",
"331 813 CURVE SMOOTH",
"154 813 OFFCURVE",
"50 712 OFFCURVE",
"50 542 CURVE SMOOTH",
"50 260 LINE SMOOTH"
);
},
{
closed = 1;
nodes = (
"227 540 LINE SMOOTH",
"227 619 OFFCURVE",
"265 666 OFFCURVE",
"330 666 CURVE SMOOTH",
"396 666 OFFCURVE",
"435 621 OFFCURVE",
"435 545 CURVE SMOOTH",
"435 261 LINE SMOOTH",
"435 182 OFFCURVE",
"397 135 OFFCURVE",
"332 135 CURVE SMOOTH",
"266 135 OFFCURVE",
"227 180 OFFCURVE",
"227 256 CURVE SMOOTH"
);
}
);
width = 662;
}
);
leftKerningGroup = O;
rightKerningGroup = O;
unicode = 004F;
},
{
color = 4;
glyphname = Oslash;
lastChange = "2018-10-07 20:52:21 +0000";
layers = (
{
components = (
{
name = O;
transform = "{1, 0, 0, 1, 6, 0}";
}
);
layerId = "224C4421-04A1-4518-9520-E7DE557FF670";
paths = (
{
closed = 1;
nodes = (
"482 584 LINE",
"6 349 LINE",
"6 238 LINE",
"482 473 LINE"
);
}
);
width = 477;
},
{
components = (
{
name = O;
}
);
layerId = "E3F4EB06-25ED-4CC6-B646-097E6B7CA9B6";
paths = (
{
closed = 1;
nodes = (
"823 820 LINE",
"-20 54 LINE",
"-20 -20 LINE",
"823 746 LINE"
);
}
);
width = 822;
},
{
components = (
{
name = O;
transform = "{1, 0, 0, 1, 6, 0}";
}
);
layerId = "1A1EA1E7-9AE6-44CA-95A2-EC2DECCB3A5F";
paths = (
{
closed = 1;
nodes = (
"250 480 LINE",
"8 362 LINE",
"8 312 LINE",
"250 430 LINE"
);
}
);
width = 254;
},
{
components = (
{
name = O;
}
);
layerId = "9E3A6CEF-E447-4EE0-94FA-04D82C1F8DD8";
paths = (
{
closed = 1;
nodes = (
"853 720 LINE",
"10 198 LINE",
"10 80 LINE",
"853 602 LINE"
);
}
);
width = 822;
},
{
components = (
{
alignment = -1;
name = O;
transform = "{1, 0, 0, 1, 3, 0}";
}
);
layerId = "3822A8B4-8016-4BEB-9110-8CE71FB015E8";
paths = (
{
closed = 1;
nodes = (
"537 650 LINE",
"-6 208 LINE",
"-6 146 LINE",
"537 588 LINE"
);
}
);
width = 538;
},
{
components = (
{
alignment = -1;
name = O;
transform = "{1, 0, 0, 1, 3, 0}";
}
);
layerId = "9C5E0400-F04B-47EF-A56D-29B29EB8CC41";
paths = (
{
closed = 1;
nodes = (
"668 652 LINE",
"8 274 LINE",
"8 159 LINE",
"668 538 LINE"
);
}
);
width = 650;
}
);
leftKerningGroup = O;
rightKerningGroup = O;
unicode = 00D8;
},
{
color = 4;
glyphname = OE;
lastChange = "2018-10-07 20:52:21 +0000";
layers = (
{
background = {
paths = (
{
closed = 1;
nodes = (
"33 48 OFFCURVE",
"88 -10 OFFCURVE",
"200 -10 CURVE SMOOTH",
"269 -10 OFFCURVE",
"310 15 OFFCURVE",
"324 65 CURVE",
"304 65 LINE",
"304 0 LINE",
"609 0 LINE",
"609 140 LINE",
"429 140 LINE",
"429 370 LINE",
"559 370 LINE",
"559 510 LINE",
"429 510 LINE",
"429 660 LINE",
"589 660 LINE",
"589 800 LINE",
"304 800 LINE",
"304 745 LINE",
"334 745 LINE",
"312 789 OFFCURVE",
"268 810 OFFCURVE",
"202 810 CURVE SMOOTH",
"89 810 OFFCURVE",
"33 753 OFFCURVE",
"33 635 CURVE SMOOTH",
"33 166 LINE SMOOTH"
);
},
{
closed = 1;
nodes = (
"198 630 LINE SMOOTH",
"198 657 OFFCURVE",
"209 670 OFFCURVE",
"231 670 CURVE SMOOTH",
"253 670 OFFCURVE",
"264 659 OFFCURVE",
"264 635 CURVE SMOOTH",
"264 170 LINE SMOOTH",
"264 143 OFFCURVE",
"253 130 OFFCURVE",
"231 130 CURVE SMOOTH",
"209 130 OFFCURVE",
"198 141 OFFCURVE",
"198 165 CURVE SMOOTH"
);
}
);
};
layerId = "224C4421-04A1-4518-9520-E7DE557FF670";
paths = (
{
closed = 1;
nodes = (
"33 55 OFFCURVE",
"91 -10 OFFCURVE",
"189 -10 CURVE SMOOTH",
"245 -10 OFFCURVE",
"286 7 OFFCURVE",
"300 35 CURVE",
"304 35 LINE",
"304 0 LINE",
"609 0 LINE",
"609 140 LINE",
"429 140 LINE",
"429 370 LINE",
"559 370 LINE",
"559 510 LINE",
"429 510 LINE",
"429 660 LINE",
"589 660 LINE",
"589 800 LINE",
"304 800 LINE",
"304 765 LINE",
"300 765 LINE",
"286 793 OFFCURVE",
"246 810 OFFCURVE",
"192 810 CURVE SMOOTH",
"92 810 OFFCURVE",
"33 745 OFFCURVE",
"33 635 CURVE SMOOTH",
"33 166 LINE SMOOTH"
);
},
{
closed = 1;
nodes = (
"198 630 LINE SMOOTH",
"198 655 OFFCURVE",
"210 670 OFFCURVE",
"231 670 CURVE SMOOTH",
"252 670 OFFCURVE",
"264 657 OFFCURVE",
"264 635 CURVE SMOOTH",
"264 170 LINE SMOOTH",
"264 145 OFFCURVE",
"252 130 OFFCURVE",
"231 130 CURVE SMOOTH",
"210 130 OFFCURVE",
"198 143 OFFCURVE",
"198 165 CURVE SMOOTH"
);
}
);
width = 631;
},
{
layerId = "E3F4EB06-25ED-4CC6-B646-097E6B7CA9B6";
paths = (
{
closed = 1;
nodes = (
"66 136 OFFCURVE",
"187 -16 OFFCURVE",
"392 -16 CURVE SMOOTH",
"526 -16 OFFCURVE",
"623 46 OFFCURVE",
"655 151 CURVE",
"659 151 LINE",
"659 0 LINE",
"1154 0 LINE",
"1154 50 LINE",
"714 50 LINE",
"714 460 LINE",
"1064 460 LINE",
"1064 510 LINE",
"714 510 LINE",
"714 750 LINE",
"1134 750 LINE",
"1134 800 LINE",
"659 800 LINE",
"659 648 LINE",
"655 648 LINE",
"623 754 OFFCURVE",
"525 816 OFFCURVE",
"390 816 CURVE SMOOTH",
"186 816 OFFCURVE",
"66 665 OFFCURVE",
"66 409 CURVE SMOOTH",
"66 394 LINE SMOOTH"
);
},
{
closed = 1;
nodes = (
"123 409 LINE SMOOTH",
"123 632 OFFCURVE",
"222 764 OFFCURVE",
"389 764 CURVE SMOOTH",
"559 764 OFFCURVE",
"659 634 OFFCURVE",
"659 415 CURVE SMOOTH",
"659 392 LINE SMOOTH",
"659 168 OFFCURVE",
"560 36 OFFCURVE",
"393 36 CURVE SMOOTH",
"223 36 OFFCURVE",
"123 166 OFFCURVE",
"123 386 CURVE SMOOTH"
);
}
);
width = 1219;
},
{
layerId = "1A1EA1E7-9AE6-44CA-95A2-EC2DECCB3A5F";
paths = (
{
closed = 1;
nodes = (
"33 22 OFFCURVE",
"62 -10 OFFCURVE",
"110 -10 CURVE SMOOTH",
"138 -10 OFFCURVE",
"159 2 OFFCURVE",
"166 22 CURVE",
"170 22 LINE",
"170 0 LINE",
"349 0 LINE",
"349 50 LINE",
"209 50 LINE",
"209 420 LINE",
"299 420 LINE",
"299 470 LINE",
"209 470 LINE",
"209 750 LINE",
"329 750 LINE",
"329 800 LINE",
"170 800 LINE",
"170 778 LINE",
"166 778 LINE",
"159 798 OFFCURVE",
"139 810 OFFCURVE",
"112 810 CURVE SMOOTH",
"62 810 OFFCURVE",
"33 778 OFFCURVE",
"33 725 CURVE SMOOTH",
"33 76 LINE SMOOTH"
);
},
{
closed = 1;
nodes = (
"88 720 LINE SMOOTH",
"88 745 OFFCURVE",
"100 760 OFFCURVE",
"121 760 CURVE SMOOTH",
"142 760 OFFCURVE",
"154 747 OFFCURVE",
"154 725 CURVE SMOOTH",
"154 80 LINE SMOOTH",
"154 55 OFFCURVE",
"142 40 OFFCURVE",
"121 40 CURVE SMOOTH",
"100 40 OFFCURVE",
"88 53 OFFCURVE",
"88 75 CURVE SMOOTH"
);
}
);
width = 371;
},
{
layerId = "9E3A6CEF-E447-4EE0-94FA-04D82C1F8DD8";
paths = (
{
closed = 1;
nodes = (
"66 136 OFFCURVE",
"195 -16 OFFCURVE",
"412 -16 CURVE SMOOTH",
"503 -16 OFFCURVE",
"575 15 OFFCURVE",
"607 68 CURVE",
"611 68 LINE",
"611 0 LINE",
"1156 0 LINE",
"1156 155 LINE",
"796 155 LINE",
"796 350 LINE",
"1106 350 LINE",
"1106 505 LINE",
"796 505 LINE",
"796 645 LINE",
"1136 645 LINE",
"1136 800 LINE",
"611 800 LINE",
"611 731 LINE",
"607 731 LINE",
"575 784 OFFCURVE",
"502 816 OFFCURVE",
"410 816 CURVE SMOOTH",
"194 816 OFFCURVE",
"66 665 OFFCURVE",
"66 409 CURVE SMOOTH",
"66 394 LINE SMOOTH"
);
},
{
closed = 1;
nodes = (
"256 409 LINE SMOOTH",
"256 567 OFFCURVE",
"320 661 OFFCURVE",
"429 661 CURVE SMOOTH",
"540 661 OFFCURVE",
"606 570 OFFCURVE",
"606 415 CURVE SMOOTH",
"606 392 LINE SMOOTH",
"606 233 OFFCURVE",
"542 139 OFFCURVE",
"433 139 CURVE SMOOTH",
"322 139 OFFCURVE",
"256 231 OFFCURVE",
"256 386 CURVE SMOOTH"
);
}
);
width = 1221;
},
{
layerId = "3822A8B4-8016-4BEB-9110-8CE71FB015E8";
paths = (
{
closed = 1;
nodes = (
"50 79 OFFCURVE",
"125 -13 OFFCURVE",
"251 -13 CURVE SMOOTH",
"332 -13 OFFCURVE",
"391 24 OFFCURVE",
"411 87 CURVE",
"415 87 LINE",
"415 0 LINE",
"752 0 LINE",
"752 50 LINE",
"462 50 LINE",
"462 440 LINE",
"682 440 LINE",
"682 490 LINE",
"462 490 LINE",
"462 750 LINE",
"732 750 LINE",
"732 800 LINE",
"415 800 LINE",
"415 713 LINE",
"411 713 LINE",
"391 776 OFFCURVE",
"332 813 OFFCURVE",
"251 813 CURVE SMOOTH",
"124 813 OFFCURVE",
"50 722 OFFCURVE",
"50 567 CURVE SMOOTH",
"50 235 LINE SMOOTH"
);
},
{
closed = 1;
nodes = (
"106 565 LINE SMOOTH",
"106 689 OFFCURVE",
"161 762 OFFCURVE",
"255 762 CURVE SMOOTH",
"351 762 OFFCURVE",
"407 691 OFFCURVE",
"407 570 CURVE SMOOTH",
"407 236 LINE SMOOTH",
"407 112 OFFCURVE",
"351 38 OFFCURVE",
"257 38 CURVE SMOOTH",
"162 38 OFFCURVE",
"106 110 OFFCURVE",
"106 231 CURVE SMOOTH"
);
}
);
width = 795;
},
{
layerId = "9C5E0400-F04B-47EF-A56D-29B29EB8CC41";
paths = (
{
closed = 1;
nodes = (
"50 88 OFFCURVE",
"143 -13 OFFCURVE",
"301 -13 CURVE SMOOTH",
"374 -13 OFFCURVE",
"431 11 OFFCURVE",
"454 52 CURVE",
"458 52 LINE",
"458 0 LINE",
"883 0 LINE",
"883 148 LINE",
"613 148 LINE",
"613 360 LINE",
"833 360 LINE",
"833 508 LINE",
"613 508 LINE",
"613 653 LINE",
"863 653 LINE",
"863 800 LINE",
"458 800 LINE",
"458 748 LINE",
"454 748 LINE",
"431 789 OFFCURVE",
"374 813 OFFCURVE",
"301 813 CURVE SMOOTH",
"143 813 OFFCURVE",
"50 712 OFFCURVE",
"50 542 CURVE SMOOTH",
"50 260 LINE SMOOTH"
);
},
{
closed = 1;
nodes = (
"227 540 LINE SMOOTH",
"227 619 OFFCURVE",
"265 666 OFFCURVE",
"330 666 CURVE SMOOTH",
"396 666 OFFCURVE",
"435 621 OFFCURVE",
"435 545 CURVE SMOOTH",
"435 261 LINE SMOOTH",
"435 182 OFFCURVE",
"397 135 OFFCURVE",
"332 135 CURVE SMOOTH",
"266 135 OFFCURVE",
"227 180 OFFCURVE",
"227 256 CURVE SMOOTH"
);
}
);
width = 926;
}
);
leftKerningGroup = O;
leftMetricsKey = O;
rightKerningGroup = H;
rightMetricsKey = E;
unicode = 0152;
},
{
color = 4;
glyphname = P;
lastChange = "2018-10-07 20:52:21 +0000";
layers = (
{
associatedMasterId = "224C4421-04A1-4518-9520-E7DE557FF670";
layerId = "539B3AE4-FB9C-4BFB-989E-CAB56F33203D";
name = "Jun 25 18, 15:14";
paths = (
{
closed = 1;
nodes = (
"200 0 LINE",
"200 340 LINE",
"273 340 LINE SMOOTH",
"374 340 OFFCURVE",
"422 386 OFFCURVE",
"422 485 CURVE SMOOTH",
"422 654 LINE SMOOTH",
"422 753 OFFCURVE",
"375 800 OFFCURVE",
"275 800 CURVE SMOOTH",
"35 800 LINE",
"35 0 LINE"
);
},
{
closed = 1;
nodes = (
"200 670 LINE",
"224 670 LINE SMOOTH",
"246 670 OFFCURVE",
"257 659 OFFCURVE",
"257 635 CURVE SMOOTH",
"257 510 LINE SMOOTH",
"257 483 OFFCURVE",
"246 470 OFFCURVE",
"224 470 CURVE SMOOTH",
"200 470 LINE"
);
}
);
width = 462;
},
{
layerId = "224C4421-04A1-4518-9520-E7DE557FF670";
paths = (
{
closed = 1;
nodes = (
"208 0 LINE",
"208 300 LINE",
"236 300 LINE SMOOTH",
"371 300 OFFCURVE",
"435 356 OFFCURVE",
"435 475 CURVE SMOOTH",
"435 624 LINE SMOOTH",
"435 744 OFFCURVE",
"372 800 OFFCURVE",
"238 800 CURVE SMOOTH",
"43 800 LINE",
"43 0 LINE"
);
},
{
closed = 1;
nodes = (
"208 660 LINE",
"237 660 LINE SMOOTH",
"259 660 OFFCURVE",
"270 649 OFFCURVE",
"270 625 CURVE SMOOTH",
"270 480 LINE SMOOTH",
"270 453 OFFCURVE",
"259 440 OFFCURVE",
"237 440 CURVE SMOOTH",
"208 440 LINE"
);
}
);
width = 457;
},
{
layerId = "E3F4EB06-25ED-4CC6-B646-097E6B7CA9B6";
paths = (
{
closed = 1;
nodes = (
"161 0 LINE",
"161 370 LINE",
"437 370 LINE SMOOTH",
"587 370 OFFCURVE",
"675 448 OFFCURVE",
"675 579 CURVE SMOOTH",
"675 589 LINE SMOOTH",
"675 722 OFFCURVE",
"587 800 OFFCURVE",
"437 800 CURVE SMOOTH",
"106 800 LINE",
"106 0 LINE"
);
},
{
closed = 1;
nodes = (
"161 750 LINE",
"437 750 LINE SMOOTH",
"552 750 OFFCURVE",
"620 690 OFFCURVE",
"620 588 CURVE SMOOTH",
"620 579 LINE SMOOTH",
"620 479 OFFCURVE",
"552 420 OFFCURVE",
"437 420 CURVE SMOOTH",
"161 420 LINE"
);
}
);
width = 739;
},
{
associatedMasterId = "1A1EA1E7-9AE6-44CA-95A2-EC2DECCB3A5F";
layerId = "139F1C0C-1479-46FD-B835-99AE703703F7";
name = "Jun 25 18, 15:14";
paths = (
{
closed = 1;
nodes = (
"200 0 LINE",
"200 340 LINE",
"273 340 LINE SMOOTH",
"374 340 OFFCURVE",
"422 386 OFFCURVE",
"422 485 CURVE SMOOTH",
"422 654 LINE SMOOTH",
"422 753 OFFCURVE",
"375 800 OFFCURVE",
"275 800 CURVE SMOOTH",
"35 800 LINE",
"35 0 LINE"
);
},
{
closed = 1;
nodes = (
"200 670 LINE",
"224 670 LINE SMOOTH",
"246 670 OFFCURVE",
"257 659 OFFCURVE",
"257 635 CURVE SMOOTH",
"257 510 LINE SMOOTH",
"257 483 OFFCURVE",
"246 470 OFFCURVE",
"224 470 CURVE SMOOTH",
"200 470 LINE"
);
}
);
width = 462;
},
{
layerId = "1A1EA1E7-9AE6-44CA-95A2-EC2DECCB3A5F";
paths = (
{
closed = 1;
nodes = (
"98 0 LINE",
"98 370 LINE",
"131 370 LINE SMOOTH",
"184 370 OFFCURVE",
"215 402 OFFCURVE",
"215 456 CURVE SMOOTH",
"215 714 LINE SMOOTH",
"215 768 OFFCURVE",
"185 800 OFFCURVE",
"133 800 CURVE SMOOTH",
"43 800 LINE",
"43 0 LINE"
);
},
{
closed = 1;
nodes = (
"98 750 LINE",
"132 750 LINE SMOOTH",
"150 750 OFFCURVE",
"160 738 OFFCURVE",
"160 719 CURVE SMOOTH",
"160 451 LINE SMOOTH",
"160 432 OFFCURVE",
"150 420 OFFCURVE",
"132 420 CURVE SMOOTH",
"98 420 LINE"
);
}
);
width = 247;
},
{
layerId = "9E3A6CEF-E447-4EE0-94FA-04D82C1F8DD8";
paths = (
{
closed = 1;
nodes = (
"281 0 LINE",
"281 300 LINE",
"447 300 LINE SMOOTH",
"622 300 OFFCURVE",
"725 391 OFFCURVE",
"725 544 CURVE SMOOTH",
"725 554 LINE SMOOTH",
"725 709 OFFCURVE",
"622 800 OFFCURVE",
"447 800 CURVE SMOOTH",
"96 800 LINE",
"96 0 LINE"
);
},
{
closed = 1;
nodes = (
"281 645 LINE",
"437 645 LINE SMOOTH",
"499 645 OFFCURVE",
"535 611 OFFCURVE",
"535 553 CURVE SMOOTH",
"535 544 LINE SMOOTH",
"535 488 OFFCURVE",
"499 455 OFFCURVE",
"437 455 CURVE SMOOTH",
"281 455 LINE"
);
}
);
width = 773;
},
{
layerId = "3822A8B4-8016-4BEB-9110-8CE71FB015E8";
paths = (
{
closed = 1;
nodes = (
"130 0 LINE",
"130 370 LINE",
"254 370 LINE SMOOTH",
"374 370 OFFCURVE",
"445 436 OFFCURVE",
"445 548 CURVE SMOOTH",
"445 622 LINE SMOOTH",
"445 734 OFFCURVE",
"374 800 OFFCURVE",
"255 800 CURVE SMOOTH",
"75 800 LINE",
"75 0 LINE"
);
},
{
closed = 1;
nodes = (
"130 750 LINE",
"255 750 LINE SMOOTH",
"340 750 OFFCURVE",
"390 703 OFFCURVE",
"390 624 CURVE SMOOTH",
"390 545 LINE SMOOTH",
"390 466 OFFCURVE",
"340 420 OFFCURVE",
"255 420 CURVE SMOOTH",
"130 420 LINE"
);
}
);
width = 493;
},
{
layerId = "9C5E0400-F04B-47EF-A56D-29B29EB8CC41";
paths = (
{
closed = 1;
nodes = (
"245 0 LINE",
"245 300 LINE",
"332 300 LINE SMOOTH",
"488 300 OFFCURVE",
"580 385 OFFCURVE",
"580 530 CURVE SMOOTH",
"580 569 LINE SMOOTH",
"580 714 OFFCURVE",
"488 800 OFFCURVE",
"333 800 CURVE SMOOTH",
"70 800 LINE",
"70 0 LINE"
);
},
{
closed = 1;
nodes = (
"245 653 LINE",
"327 653 LINE SMOOTH",
"375 653 OFFCURVE",
"403 622 OFFCURVE",
"403 569 CURVE SMOOTH",
"403 532 LINE SMOOTH",
"403 479 OFFCURVE",
"375 448 OFFCURVE",
"327 448 CURVE SMOOTH",
"245 448 LINE"
);
}
);
width = 615;
}
);
leftKerningGroup = H;
leftMetricsKey = H;
rightKerningGroup = P;
unicode = 0050;
},
{
color = 4;
glyphname = Thorn;
lastChange = "2018-10-07 20:52:21 +0000";
layers = (
{
layerId = "224C4421-04A1-4518-9520-E7DE557FF670";
paths = (
{
closed = 1;
nodes = (
"208 0 LINE",
"208 170 LINE",
"236 170 LINE SMOOTH",
"371 170 OFFCURVE",
"435 226 OFFCURVE",
"435 345 CURVE SMOOTH",
"435 464 LINE SMOOTH",
"435 584 OFFCURVE",
"372 640 OFFCURVE",
"238 640 CURVE SMOOTH",
"208 640 LINE",
"208 800 LINE",
"43 800 LINE",
"43 0 LINE"
);
},
{
closed = 1;
nodes = (
"208 500 LINE",
"237 500 LINE SMOOTH",
"259 500 OFFCURVE",
"270 489 OFFCURVE",
"270 465 CURVE SMOOTH",
"270 350 LINE SMOOTH",
"270 323 OFFCURVE",
"259 310 OFFCURVE",
"237 310 CURVE SMOOTH",
"208 310 LINE"
);
}
);
width = 468;
},
{
layerId = "E3F4EB06-25ED-4CC6-B646-097E6B7CA9B6";
paths = (
{
closed = 1;
nodes = (
"161 0 LINE",
"161 190 LINE",
"437 190 LINE SMOOTH",
"587 190 OFFCURVE",
"675 268 OFFCURVE",
"675 399 CURVE SMOOTH",
"675 409 LINE SMOOTH",
"675 542 OFFCURVE",
"587 620 OFFCURVE",
"437 620 CURVE SMOOTH",
"161 620 LINE",
"161 800 LINE",
"106 800 LINE",
"106 0 LINE"
);
},
{
closed = 1;
nodes = (
"161 570 LINE",
"437 570 LINE SMOOTH",
"552 570 OFFCURVE",
"620 510 OFFCURVE",
"620 408 CURVE SMOOTH",
"620 399 LINE SMOOTH",
"620 299 OFFCURVE",
"552 240 OFFCURVE",
"437 240 CURVE SMOOTH",
"161 240 LINE"
);
}
);
width = 741;
},
{
layerId = "1A1EA1E7-9AE6-44CA-95A2-EC2DECCB3A5F";
paths = (
{
closed = 1;
nodes = (
"98 0 LINE",
"98 190 LINE",
"131 190 LINE SMOOTH",
"184 190 OFFCURVE",
"215 222 OFFCURVE",
"215 276 CURVE SMOOTH",
"215 534 LINE SMOOTH",
"215 588 OFFCURVE",
"185 620 OFFCURVE",
"133 620 CURVE SMOOTH",
"98 620 LINE",
"98 820 LINE",
"43 820 LINE",
"43 0 LINE"
);
},
{
closed = 1;
nodes = (
"98 570 LINE",
"132 570 LINE SMOOTH",
"150 570 OFFCURVE",
"160 558 OFFCURVE",
"160 539 CURVE SMOOTH",
"160 271 LINE SMOOTH",
"160 252 OFFCURVE",
"150 240 OFFCURVE",
"132 240 CURVE SMOOTH",
"98 240 LINE"
);
}
);
width = 248;
},
{
layerId = "9E3A6CEF-E447-4EE0-94FA-04D82C1F8DD8";
paths = (
{
closed = 1;
nodes = (
"281 0 LINE",
"281 160 LINE",
"427 160 LINE SMOOTH",
"602 160 OFFCURVE",
"705 251 OFFCURVE",
"705 404 CURVE SMOOTH",
"705 414 LINE SMOOTH",
"705 569 OFFCURVE",
"602 660 OFFCURVE",
"427 660 CURVE SMOOTH",
"281 660 LINE",
"281 800 LINE",
"96 800 LINE",
"96 0 LINE"
);
},
{
closed = 1;
nodes = (
"281 505 LINE",
"417 505 LINE SMOOTH",
"479 505 OFFCURVE",
"515 471 OFFCURVE",
"515 413 CURVE SMOOTH",
"515 404 LINE SMOOTH",
"515 348 OFFCURVE",
"479 315 OFFCURVE",
"417 315 CURVE SMOOTH",
"281 315 LINE"
);
}
);
width = 771;
},
{
layerId = "3822A8B4-8016-4BEB-9110-8CE71FB015E8";
paths = (
{
closed = 1;
nodes = (
"130 0 LINE",
"130 190 LINE",
"254 190 LINE SMOOTH",
"374 190 OFFCURVE",
"445 256 OFFCURVE",
"445 368 CURVE SMOOTH",
"445 442 LINE SMOOTH",
"445 554 OFFCURVE",
"374 620 OFFCURVE",
"255 620 CURVE SMOOTH",
"130 620 LINE",
"130 810 LINE",
"75 810 LINE",
"75 0 LINE"
);
},
{
closed = 1;
nodes = (
"130 570 LINE",
"255 570 LINE SMOOTH",
"340 570 OFFCURVE",
"390 523 OFFCURVE",
"390 444 CURVE SMOOTH",
"390 365 LINE SMOOTH",
"390 286 OFFCURVE",
"340 240 OFFCURVE",
"255 240 CURVE SMOOTH",
"130 240 LINE"
);
}
);
width = 494;
},
{
layerId = "9C5E0400-F04B-47EF-A56D-29B29EB8CC41";
paths = (
{
closed = 1;
nodes = (
"245 0 LINE",
"245 165 LINE",
"322 165 LINE SMOOTH",
"478 165 OFFCURVE",
"570 250 OFFCURVE",
"570 395 CURVE SMOOTH",
"570 419 LINE SMOOTH",
"570 564 OFFCURVE",
"478 650 OFFCURVE",
"323 650 CURVE SMOOTH",
"245 650 LINE",
"245 800 LINE",
"70 800 LINE",
"70 0 LINE"
);
},
{
closed = 1;
nodes = (
"245 503 LINE",
"317 503 LINE SMOOTH",
"365 503 OFFCURVE",
"393 472 OFFCURVE",
"393 419 CURVE SMOOTH",
"393 397 LINE SMOOTH",
"393 344 OFFCURVE",
"365 313 OFFCURVE",
"317 313 CURVE SMOOTH",
"245 313 LINE"
);
}
);
width = 619;
}
);
leftKerningGroup = H;
leftMetricsKey = H;
rightKerningGroup = P;
rightMetricsKey = O;
unicode = 00DE;
},
{
color = 4;
glyphname = Q;
lastChange = "2018-10-07 20:52:21 +0000";
layers = (
{
layerId = "224C4421-04A1-4518-9520-E7DE557FF670";
paths = (
{
closed = 1;
nodes = (
"33 48 OFFCURVE",
"98 -10 OFFCURVE",
"230 -10 CURVE SMOOTH",
"364 -10 OFFCURVE",
"429 47 OFFCURVE",
"429 165 CURVE SMOOTH",
"429 634 LINE SMOOTH",
"429 752 OFFCURVE",
"364 810 OFFCURVE",
"232 810 CURVE SMOOTH",
"98 810 OFFCURVE",
"33 753 OFFCURVE",
"33 635 CURVE SMOOTH",
"33 166 LINE SMOOTH"
);
},
{
closed = 1;
nodes = (
"198 630 LINE SMOOTH",
"198 657 OFFCURVE",
"209 670 OFFCURVE",
"231 670 CURVE SMOOTH",
"253 670 OFFCURVE",
"264 659 OFFCURVE",
"264 635 CURVE SMOOTH",
"264 170 LINE SMOOTH",
"264 143 OFFCURVE",
"253 130 OFFCURVE",
"231 130 CURVE SMOOTH",
"209 130 OFFCURVE",
"198 141 OFFCURVE",
"198 165 CURVE SMOOTH"
);
},
{
closed = 1;
nodes = (
"262 4 LINE SMOOTH",
"262 -84 OFFCURVE",
"309 -136 OFFCURVE",
"388 -136 CURVE SMOOTH",
"403 -136 OFFCURVE",
"417 -134 OFFCURVE",
"424 -131 CURVE",
"424 -11 LINE",
"414 -14 OFFCURVE",
"400 -16 OFFCURVE",
"387 -16 CURVE SMOOTH",
"356 -16 OFFCURVE",
"337 -3 OFFCURVE",
"337 19 CURVE SMOOTH",
"337 24 LINE",
"262 24 LINE"
);
}
);
width = 462;
},
{
layerId = "E3F4EB06-25ED-4CC6-B646-097E6B7CA9B6";
paths = (
{
closed = 1;
nodes = (
"66 140 OFFCURVE",
"197 -16 OFFCURVE",
"412 -16 CURVE SMOOTH",
"625 -16 OFFCURVE",
"756 139 OFFCURVE",
"756 392 CURVE SMOOTH",
"756 407 LINE SMOOTH",
"756 661 OFFCURVE",
"625 816 OFFCURVE",
"410 816 CURVE SMOOTH",
"197 816 OFFCURVE",
"66 661 OFFCURVE",
"66 409 CURVE SMOOTH",
"66 394 LINE SMOOTH"
);
},
{
closed = 1;
nodes = (
"123 409 LINE SMOOTH",
"123 629 OFFCURVE",
"232 764 OFFCURVE",
"409 764 CURVE SMOOTH",
"589 764 OFFCURVE",
"699 631 OFFCURVE",
"699 415 CURVE SMOOTH",
"699 392 LINE SMOOTH",
"699 171 OFFCURVE",
"590 36 OFFCURVE",
"413 36 CURVE SMOOTH",
"233 36 OFFCURVE",
"123 169 OFFCURVE",
"123 386 CURVE SMOOTH"
);
},
{
closed = 1;
nodes = (
"482 -6 LINE SMOOTH",
"482 -94 OFFCURVE",
"545 -146 OFFCURVE",
"652 -146 CURVE SMOOTH",
"666 -146 OFFCURVE",
"681 -144 OFFCURVE",
"694 -141 CURVE",
"694 -91 LINE",
"678 -94 OFFCURVE",
"661 -96 OFFCURVE",
"647 -96 CURVE SMOOTH",
"572 -96 OFFCURVE",
"527 -59 OFFCURVE",
"527 4 CURVE SMOOTH",
"527 24 LINE",
"482 24 LINE"
);
}
);
width = 822;
},
{
layerId = "1A1EA1E7-9AE6-44CA-95A2-EC2DECCB3A5F";
paths = (
{
closed = 1;
nodes = (
"33 22 OFFCURVE",
"65 -10 OFFCURVE",
"120 -10 CURVE SMOOTH",
"176 -10 OFFCURVE",
"209 22 OFFCURVE",
"209 75 CURVE SMOOTH",
"209 724 LINE SMOOTH",
"209 778 OFFCURVE",
"177 810 OFFCURVE",
"122 810 CURVE SMOOTH",
"66 810 OFFCURVE",
"33 778 OFFCURVE",
"33 725 CURVE SMOOTH",
"33 76 LINE SMOOTH"
);
},
{
closed = 1;
nodes = (
"88 720 LINE SMOOTH",
"88 745 OFFCURVE",
"100 760 OFFCURVE",
"121 760 CURVE SMOOTH",
"142 760 OFFCURVE",
"154 747 OFFCURVE",
"154 725 CURVE SMOOTH",
"154 80 LINE SMOOTH",
"154 55 OFFCURVE",
"142 40 OFFCURVE",
"121 40 CURVE SMOOTH",
"100 40 OFFCURVE",
"88 53 OFFCURVE",
"88 75 CURVE SMOOTH"
);
},
{
closed = 1;
nodes = (
"122 4 LINE SMOOTH",
"122 -46 OFFCURVE",
"147 -76 OFFCURVE",
"190 -76 CURVE SMOOTH",
"197 -76 OFFCURVE",
"204 -75 OFFCURVE",
"209 -73 CURVE",
"209 -23 LINE",
"203 -25 OFFCURVE",
"196 -26 OFFCURVE",
"190 -26 CURVE SMOOTH",
"166 -26 OFFCURVE",
"152 -13 OFFCURVE",
"152 9 CURVE SMOOTH",
"152 14 LINE",
"122 14 LINE"
);
}
);
width = 242;
},
{
background = {
paths = (
{
closed = 1;
nodes = (
"502 -6 LINE SMOOTH",
"502 -94 OFFCURVE",
"565 -146 OFFCURVE",
"672 -146 CURVE SMOOTH",
"694 -146 LINE",
"694 -96 LINE",
"667 -96 LINE SMOOTH",
"592 -96 OFFCURVE",
"547 -59 OFFCURVE",
"547 4 CURVE SMOOTH",
"547 24 LINE",
"502 24 LINE"
);
}
);
};
layerId = "9E3A6CEF-E447-4EE0-94FA-04D82C1F8DD8";
paths = (
{
closed = 1;
nodes = (
"66 136 OFFCURVE",
"202 -16 OFFCURVE",
"432 -16 CURVE SMOOTH",
"661 -16 OFFCURVE",
"796 136 OFFCURVE",
"796 392 CURVE SMOOTH",
"796 407 LINE SMOOTH",
"796 664 OFFCURVE",
"660 816 OFFCURVE",
"430 816 CURVE SMOOTH",
"201 816 OFFCURVE",
"66 665 OFFCURVE",
"66 409 CURVE SMOOTH",
"66 394 LINE SMOOTH"
);
},
{
closed = 1;
nodes = (
"256 409 LINE SMOOTH",
"256 567 OFFCURVE",
"320 661 OFFCURVE",
"429 661 CURVE SMOOTH",
"540 661 OFFCURVE",
"606 570 OFFCURVE",
"606 415 CURVE SMOOTH",
"606 392 LINE SMOOTH",
"606 233 OFFCURVE",
"542 139 OFFCURVE",
"433 139 CURVE SMOOTH",
"322 139 OFFCURVE",
"256 231 OFFCURVE",
"256 386 CURVE SMOOTH"
);
},
{
closed = 1;
nodes = (
"412 10 LINE SMOOTH",
"412 -109 OFFCURVE",
"494 -180 OFFCURVE",
"634 -180 CURVE SMOOTH",
"669 -180 OFFCURVE",
"706 -176 OFFCURVE",
"734 -170 CURVE",
"734 -30 LINE",
"701 -37 OFFCURVE",
"662 -41 OFFCURVE",
"629 -41 CURVE SMOOTH",
"559 -41 OFFCURVE",
"517 -13 OFFCURVE",
"517 35 CURVE SMOOTH",
"517 40 LINE",
"412 40 LINE"
);
}
);
width = 862;
},
{
layerId = "3822A8B4-8016-4BEB-9110-8CE71FB015E8";
paths = (
{
closed = 1;
nodes = (
"50 81 OFFCURVE",
"131 -13 OFFCURVE",
"266 -13 CURVE SMOOTH",
"401 -13 OFFCURVE",
"483 81 OFFCURVE",
"483 234 CURVE SMOOTH",
"483 566 LINE SMOOTH",
"483 720 OFFCURVE",
"401 813 OFFCURVE",
"266 813 CURVE SMOOTH",
"132 813 OFFCURVE",
"50 720 OFFCURVE",
"50 567 CURVE SMOOTH",
"50 235 LINE SMOOTH"
);
},
{
closed = 1;
nodes = (
"106 565 LINE SMOOTH",
"106 687 OFFCURVE",
"166 762 OFFCURVE",
"265 762 CURVE SMOOTH",
"366 762 OFFCURVE",
"427 689 OFFCURVE",
"427 570 CURVE SMOOTH",
"427 236 LINE SMOOTH",
"427 113 OFFCURVE",
"366 38 OFFCURVE",
"267 38 CURVE SMOOTH",
"167 38 OFFCURVE",
"106 111 OFFCURVE",
"106 231 CURVE SMOOTH"
);
},
{
closed = 1;
nodes = (
"302 -1 LINE SMOOTH",
"302 -70 OFFCURVE",
"346 -111 OFFCURVE",
"421 -111 CURVE SMOOTH",
"432 -111 OFFCURVE",
"443 -110 OFFCURVE",
"452 -107 CURVE",
"452 -57 LINE",
"441 -60 OFFCURVE",
"429 -61 OFFCURVE",
"419 -61 CURVE SMOOTH",
"369 -61 OFFCURVE",
"340 -36 OFFCURVE",
"340 7 CURVE SMOOTH",
"340 19 LINE",
"302 19 LINE"
);
}
);
width = 532;
},
{
layerId = "9C5E0400-F04B-47EF-A56D-29B29EB8CC41";
paths = (
{
closed = 1;
nodes = (
"50 88 OFFCURVE",
"154 -13 OFFCURVE",
"331 -13 CURVE SMOOTH",
"508 -13 OFFCURVE",
"613 88 OFFCURVE",
"613 259 CURVE SMOOTH",
"613 541 LINE SMOOTH",
"613 712 OFFCURVE",
"508 813 OFFCURVE",
"331 813 CURVE SMOOTH",
"154 813 OFFCURVE",
"50 712 OFFCURVE",
"50 542 CURVE SMOOTH",
"50 260 LINE SMOOTH"
);
},
{
closed = 1;
nodes = (
"227 540 LINE SMOOTH",
"227 619 OFFCURVE",
"265 666 OFFCURVE",
"330 666 CURVE SMOOTH",
"396 666 OFFCURVE",
"435 621 OFFCURVE",
"435 545 CURVE SMOOTH",
"435 261 LINE SMOOTH",
"435 182 OFFCURVE",
"397 135 OFFCURVE",
"332 135 CURVE SMOOTH",
"266 135 OFFCURVE",
"227 180 OFFCURVE",
"227 256 CURVE SMOOTH"
);
},
{
closed = 1;
nodes = (
"337 7 LINE SMOOTH",
"337 -97 OFFCURVE",
"402 -158 OFFCURVE",
"511 -158 CURVE SMOOTH",
"535 -158 OFFCURVE",
"560 -155 OFFCURVE",
"579 -151 CURVE",
"579 -21 LINE",
"558 -26 OFFCURVE",
"532 -29 OFFCURVE",
"508 -29 CURVE SMOOTH",
"457 -29 OFFCURVE",
"427 -8 OFFCURVE",
"427 27 CURVE SMOOTH",
"427 32 LINE",
"337 32 LINE"
);
}
);
width = 662;
}
);
leftKerningGroup = O;
leftMetricsKey = O;
rightKerningGroup = O;
rightMetricsKey = O;
unicode = 0051;
},
{
color = 4;
glyphname = R;
lastChange = "2018-10-07 20:52:21 +0000";
layers = (
{
anchors = (
{
name = bottom;
position = "{261, 0}";
},
{
name = top;
position = "{221, 800}";
}
);
layerId = "224C4421-04A1-4518-9520-E7DE557FF670";
paths = (
{
closed = 1;
nodes = (
"208 0 LINE",
"208 340 LINE",
"245 340 LINE",
"303 0 LINE",
"473 0 LINE",
"413 309 LINE SMOOTH",
"405 352 OFFCURVE",
"375 384 OFFCURVE",
"335 395 CURVE",
"335 399 LINE",
"398 417 OFFCURVE",
"435 471 OFFCURVE",
"435 545 CURVE SMOOTH",
"435 624 LINE SMOOTH",
"435 744 OFFCURVE",
"372 800 OFFCURVE",
"238 800 CURVE SMOOTH",
"43 800 LINE",
"43 0 LINE"
);
},
{
closed = 1;
nodes = (
"208 660 LINE",
"237 660 LINE SMOOTH",
"259 660 OFFCURVE",
"270 649 OFFCURVE",
"270 625 CURVE SMOOTH",
"270 510 LINE SMOOTH",
"270 483 OFFCURVE",
"259 470 OFFCURVE",
"237 470 CURVE SMOOTH",
"208 470 LINE"
);
}
);
width = 488;
},
{
anchors = (
{
name = bottom;
position = "{384, 0}";
},
{
name = top;
position = "{384, 800}";
}
);
layerId = "E3F4EB06-25ED-4CC6-B646-097E6B7CA9B6";
paths = (
{
closed = 1;
nodes = (
"161 0 LINE",
"161 390 LINE",
"443 390 LINE",
"659 0 LINE",
"721 0 LINE",
"516 373 LINE SMOOTH",
"509 386 OFFCURVE",
"497 396 OFFCURVE",
"487 399 CURVE",
"487 403 LINE",
"605 410 OFFCURVE",
"675 480 OFFCURVE",
"675 590 CURVE SMOOTH",
"675 599 LINE SMOOTH",
"675 725 OFFCURVE",
"592 800 OFFCURVE",
"451 800 CURVE SMOOTH",
"106 800 LINE",
"106 0 LINE"
);
},
{
closed = 1;
nodes = (
"161 750 LINE",
"450 750 LINE SMOOTH",
"557 750 OFFCURVE",
"620 694 OFFCURVE",
"620 599 CURVE SMOOTH",
"620 590 LINE SMOOTH",
"620 496 OFFCURVE",
"558 440 OFFCURVE",
"454 440 CURVE SMOOTH",
"161 440 LINE"
);
}
);
width = 769;
},
{
associatedMasterId = "E3F4EB06-25ED-4CC6-B646-097E6B7CA9B6";
layerId = "9E74492C-5CC6-43C4-A1D9-754267CBFEE7";
name = "Jul 21 18, 00:31";
paths = (
{
closed = 1;
nodes = (
"161 0 LINE",
"161 430 LINE",
"493 430 LINE",
"709 0 LINE",
"770 0 LINE",
"553 434 LINE SMOOTH",
"543 455 OFFCURVE",
"524 468 OFFCURVE",
"502 468 CURVE",
"502 435 LINE",
"612 449 OFFCURVE",
"677 513 OFFCURVE",
"677 607 CURVE SMOOTH",
"677 622 LINE SMOOTH",
"677 732 OFFCURVE",
"599 800 OFFCURVE",
"471 800 CURVE SMOOTH",
"106 800 LINE",
"106 0 LINE"
);
},
{
closed = 1;
nodes = (
"161 750 LINE",
"470 750 LINE SMOOTH",
"563 750 OFFCURVE",
"620 701 OFFCURVE",
"620 622 CURVE SMOOTH",
"620 607 LINE SMOOTH",
"620 528 OFFCURVE",
"565 480 OFFCURVE",
"474 480 CURVE SMOOTH",
"161 480 LINE"
);
}
);
width = 818;
},
{
anchors = (
{
name = bottom;
position = "{141, 0}";
},
{
name = top;
position = "{121, 800}";
}
);
layerId = "1A1EA1E7-9AE6-44CA-95A2-EC2DECCB3A5F";
paths = (
{
closed = 1;
nodes = (
"98 0 LINE",
"98 390 LINE",
"135 390 LINE",
"193 0 LINE",
"249 0 LINE",
"189 379 LINE SMOOTH",
"187 390 OFFCURVE",
"178 400 OFFCURVE",
"165 406 CURVE",
"165 410 LINE",
"196 417 OFFCURVE",
"215 443 OFFCURVE",
"215 480 CURVE SMOOTH",
"215 710 LINE SMOOTH",
"215 767 OFFCURVE",
"183 800 OFFCURVE",
"128 800 CURVE SMOOTH",
"43 800 LINE",
"43 0 LINE"
);
},
{
closed = 1;
nodes = (
"98 750 LINE",
"127 750 LINE SMOOTH",
"148 750 OFFCURVE",
"160 737 OFFCURVE",
"160 715 CURVE SMOOTH",
"160 475 LINE SMOOTH",
"160 453 OFFCURVE",
"148 440 OFFCURVE",
"127 440 CURVE SMOOTH",
"98 440 LINE"
);
}
);
width = 270;
},
{
anchors = (
{
name = bottom;
position = "{374, 0}";
},
{
name = top;
position = "{374, 800}";
}
);
layerId = "9E3A6CEF-E447-4EE0-94FA-04D82C1F8DD8";
paths = (
{
closed = 1;
nodes = (
"281 0 LINE",
"281 310 LINE",
"453 310 LINE",
"595 0 LINE",
"797 0 LINE",
"653 286 LINE SMOOTH",
"640 312 OFFCURVE",
"617 331 OFFCURVE",
"592 339 CURVE",
"592 343 LINE",
"688 366 OFFCURVE",
"745 443 OFFCURVE",
"745 549 CURVE SMOOTH",
"745 559 LINE SMOOTH",
"745 710 OFFCURVE",
"642 800 OFFCURVE",
"467 800 CURVE SMOOTH",
"96 800 LINE",
"96 0 LINE"
);
},
{
closed = 1;
nodes = (
"281 645 LINE",
"457 645 LINE SMOOTH",
"519 645 OFFCURVE",
"555 613 OFFCURVE",
"555 558 CURVE SMOOTH",
"555 549 LINE SMOOTH",
"555 496 OFFCURVE",
"519 465 OFFCURVE",
"457 465 CURVE SMOOTH",
"281 465 LINE"
);
}
);
width = 838;
},
{
associatedMasterId = "9E3A6CEF-E447-4EE0-94FA-04D82C1F8DD8";
layerId = "33F3865D-D721-4DF8-8054-78E0E4737A76";
name = "Jul 21 18, 00:31";
paths = (
{
closed = 1;
nodes = (
"161 0 LINE",
"161 430 LINE",
"493 430 LINE",
"709 0 LINE",
"770 0 LINE",
"553 434 LINE SMOOTH",
"543 455 OFFCURVE",
"524 468 OFFCURVE",
"502 468 CURVE",
"502 435 LINE",
"612 449 OFFCURVE",
"677 513 OFFCURVE",
"677 607 CURVE SMOOTH",
"677 622 LINE SMOOTH",
"677 732 OFFCURVE",
"599 800 OFFCURVE",
"471 800 CURVE SMOOTH",
"106 800 LINE",
"106 0 LINE"
);
},
{
closed = 1;
nodes = (
"161 750 LINE",
"470 750 LINE SMOOTH",
"563 750 OFFCURVE",
"620 701 OFFCURVE",
"620 622 CURVE SMOOTH",
"620 607 LINE SMOOTH",
"620 528 OFFCURVE",
"565 480 OFFCURVE",
"474 480 CURVE SMOOTH",
"161 480 LINE"
);
}
);
width = 818;
},
{
anchors = (
{
name = bottom;
position = "{263, 0}";
},
{
name = top;
position = "{253, 800}";
}
);
layerId = "3822A8B4-8016-4BEB-9110-8CE71FB015E8";
paths = (
{
closed = 1;
nodes = (
"130 0 LINE",
"130 390 LINE",
"289 390 LINE",
"426 0 LINE",
"485 0 LINE",
"353 376 LINE SMOOTH",
"349 388 OFFCURVE",
"338 398 OFFCURVE",
"326 403 CURVE",
"326 407 LINE",
"401 424 OFFCURVE",
"445 482 OFFCURVE",
"445 565 CURVE SMOOTH",
"445 625 LINE SMOOTH",
"445 735 OFFCURVE",
"376 800 OFFCURVE",
"260 800 CURVE SMOOTH",
"75 800 LINE",
"75 0 LINE"
);
},
{
closed = 1;
nodes = (
"130 750 LINE",
"259 750 LINE SMOOTH",
"341 750 OFFCURVE",
"390 704 OFFCURVE",
"390 627 CURVE SMOOTH",
"390 563 LINE SMOOTH",
"390 486 OFFCURVE",
"342 440 OFFCURVE",
"261 440 CURVE SMOOTH",
"130 440 LINE"
);
}
);
width = 519;
},
{
anchors = (
{
name = bottom;
position = "{318, 0}";
},
{
name = top;
position = "{298, 800}";
}
);
layerId = "9C5E0400-F04B-47EF-A56D-29B29EB8CC41";
paths = (
{
closed = 1;
nodes = (
"245 0 LINE",
"245 325 LINE",
"349 325 LINE",
"449 0 LINE",
"635 0 LINE",
"533 298 LINE SMOOTH",
"521 333 OFFCURVE",
"495 358 OFFCURVE",
"464 367 CURVE",
"464 371 LINE",
"543 392 OFFCURVE",
"590 465 OFFCURVE",
"590 567 CURVE SMOOTH",
"590 572 LINE SMOOTH",
"590 715 OFFCURVE",
"498 800 OFFCURVE",
"343 800 CURVE SMOOTH",
"70 800 LINE",
"70 0 LINE"
);
},
{
closed = 1;
nodes = (
"245 653 LINE",
"337 653 LINE SMOOTH",
"385 653 OFFCURVE",
"413 623 OFFCURVE",
"413 572 CURVE SMOOTH",
"413 550 LINE SMOOTH",
"413 498 OFFCURVE",
"385 468 OFFCURVE",
"337 468 CURVE SMOOTH",
"245 468 LINE"
);
}
);
width = 663;
}
);
leftKerningGroup = H;
leftMetricsKey = H;
rightKerningGroup = R;
rightMetricsKey = A;
unicode = 0052;
},
{
color = 4;
glyphname = S;
lastChange = "2018-10-07 20:52:21 +0000";
layers = (
{
anchors = (
{
name = bottom;
position = "{228, 0}";
},
{
name = top;
position = "{228, 800}";
}
);
layerId = "224C4421-04A1-4518-9520-E7DE557FF670";
paths = (
{
closed = 1;
nodes = (
"22 195 LINE SMOOTH",
"22 57 OFFCURVE",
"89 -10 OFFCURVE",
"225 -10 CURVE SMOOTH",
"365 -10 OFFCURVE",
"434 54 OFFCURVE",
"434 186 CURVE SMOOTH",
"434 226 OFFCURVE",
"424 267 OFFCURVE",
"405 310 CURVE SMOOTH",
"383 358 OFFCURVE",
"354 401 OFFCURVE",
"317 440 CURVE SMOOTH",
"254 506 LINE SMOOTH",
"235 525 OFFCURVE",
"221 545 OFFCURVE",
"211 567 CURVE SMOOTH",
"202 587 OFFCURVE",
"197 605 OFFCURVE",
"197 623 CURVE SMOOTH",
"197 637 LINE SMOOTH",
"197 666 OFFCURVE",
"209 680 OFFCURVE",
"233 680 CURVE SMOOTH",
"254 680 OFFCURVE",
"264 663 OFFCURVE",
"264 627 CURVE SMOOTH",
"264 556 LINE",
"414 556 LINE",
"414 609 LINE SMOOTH",
"414 744 OFFCURVE",
"353 810 OFFCURVE",
"229 810 CURVE SMOOTH",
"93 810 OFFCURVE",
"27 746 OFFCURVE",
"27 615 CURVE SMOOTH",
"27 578 OFFCURVE",
"37 541 OFFCURVE",
"56 501 CURVE SMOOTH",
"78 456 OFFCURVE",
"107 415 OFFCURVE",
"144 377 CURVE SMOOTH",
"207 311 LINE SMOOTH",
"226 291 OFFCURVE",
"241 270 OFFCURVE",
"252 246 CURVE SMOOTH",
"260 229 OFFCURVE",
"264 212 OFFCURVE",
"264 194 CURVE SMOOTH",
"264 177 LINE SMOOTH",
"264 139 OFFCURVE",
"251 120 OFFCURVE",
"223 120 CURVE SMOOTH",
"195 120 OFFCURVE",
"182 137 OFFCURVE",
"182 172 CURVE SMOOTH",
"182 265 LINE",
"22 265 LINE"
);
}
);
width = 456;
},
{
anchors = (
{
name = bottom;
position = "{353, 0}";
},
{
name = top;
position = "{353, 800}";
}
);
layerId = "E3F4EB06-25ED-4CC6-B646-097E6B7CA9B6";
paths = (
{
closed = 1;
nodes = (
"59 230 LINE SMOOTH",
"81 75 OFFCURVE",
"194 -16 OFFCURVE",
"363 -16 CURVE SMOOTH",
"545 -16 OFFCURVE",
"652 68 OFFCURVE",
"652 211 CURVE SMOOTH",
"652 262 OFFCURVE",
"631 315 OFFCURVE",
"596 353 CURVE SMOOTH",
"560 393 OFFCURVE",
"498 425 OFFCURVE",
"432 440 CURVE SMOOTH",
"304 470 LINE SMOOTH",
"260 480 OFFCURVE",
"220 500 OFFCURVE",
"195 523 CURVE SMOOTH",
"168 548 OFFCURVE",
"152 583 OFFCURVE",
"152 618 CURVE SMOOTH",
"152 622 LINE SMOOTH",
"152 711 OFFCURVE",
"227 764 OFFCURVE",
"354 764 CURVE SMOOTH",
"470 764 OFFCURVE",
"548 714 OFFCURVE",
"565 629 CURVE SMOOTH",
"568 614 LINE",
"621 628 LINE",
"618 643 LINE SMOOTH",
"596 752 OFFCURVE",
"498 816 OFFCURVE",
"354 816 CURVE SMOOTH",
"191 816 OFFCURVE",
"95 741 OFFCURVE",
"95 615 CURVE SMOOTH",
"95 568 OFFCURVE",
"113 521 OFFCURVE",
"146 488 CURVE SMOOTH",
"176 458 OFFCURVE",
"226 432 OFFCURVE",
"280 420 CURVE SMOOTH",
"408 391 LINE SMOOTH",
"467 378 OFFCURVE",
"520 351 OFFCURVE",
"552 318 CURVE SMOOTH",
"579 290 OFFCURVE",
"595 251 OFFCURVE",
"595 214 CURVE SMOOTH",
"595 207 LINE SMOOTH",
"595 100 OFFCURVE",
"509 36 OFFCURVE",
"364 36 CURVE SMOOTH",
"225 36 OFFCURVE",
"131 113 OFFCURVE",
"112 243 CURVE SMOOTH",
"110 257 LINE",
"57 244 LINE"
);
}
);
width = 700;
},
{
anchors = (
{
name = bottom;
position = "{123, 0}";
},
{
name = top;
position = "{123, 800}";
}
);
layerId = "1A1EA1E7-9AE6-44CA-95A2-EC2DECCB3A5F";
paths = (
{
closed = 1;
nodes = (
"32 85 LINE SMOOTH",
"32 25 OFFCURVE",
"67 -10 OFFCURVE",
"127 -10 CURVE SMOOTH",
"184 -10 OFFCURVE",
"218 27 OFFCURVE",
"218 90 CURVE SMOOTH",
"218 118 OFFCURVE",
"214 160 OFFCURVE",
"207 201 CURVE SMOOTH",
"199 250 OFFCURVE",
"186 306 OFFCURVE",
"173 351 CURVE SMOOTH",
"138 472 LINE SMOOTH",
"123 524 OFFCURVE",
"110 579 OFFCURVE",
"103 619 CURVE SMOOTH",
"96 658 OFFCURVE",
"92 693 OFFCURVE",
"92 715 CURVE SMOOTH",
"92 720 LINE SMOOTH",
"92 745 OFFCURVE",
"104 760 OFFCURVE",
"125 760 CURVE SMOOTH",
"146 760 OFFCURVE",
"158 745 OFFCURVE",
"158 720 CURVE SMOOTH",
"158 574 LINE",
"213 574 LINE",
"213 719 LINE SMOOTH",
"213 776 OFFCURVE",
"180 810 OFFCURVE",
"124 810 CURVE SMOOTH",
"69 810 OFFCURVE",
"37 775 OFFCURVE",
"37 715 CURVE SMOOTH",
"37 691 OFFCURVE",
"41 652 OFFCURVE",
"48 612 CURVE SMOOTH",
"55 571 OFFCURVE",
"69 513 OFFCURVE",
"85 457 CURVE SMOOTH",
"120 336 LINE SMOOTH",
"133 292 OFFCURVE",
"145 239 OFFCURVE",
"153 194 CURVE SMOOTH",
"160 152 OFFCURVE",
"163 113 OFFCURVE",
"163 90 CURVE SMOOTH",
"163 85 LINE SMOOTH",
"163 57 OFFCURVE",
"149 40 OFFCURVE",
"125 40 CURVE SMOOTH",
"101 40 OFFCURVE",
"87 57 OFFCURVE",
"87 85 CURVE SMOOTH",
"87 230 LINE",
"32 230 LINE"
);
}
);
width = 251;
},
{
anchors = (
{
name = bottom;
position = "{351, 0}";
},
{
name = top;
position = "{351, 800}";
}
);
layerId = "9E3A6CEF-E447-4EE0-94FA-04D82C1F8DD8";
paths = (
{
closed = 1;
nodes = (
"59 230 LINE SMOOTH",
"81 75 OFFCURVE",
"196 -16 OFFCURVE",
"370 -16 CURVE SMOOTH",
"573 -16 OFFCURVE",
"693 74 OFFCURVE",
"693 227 CURVE SMOOTH",
"693 291 OFFCURVE",
"668 354 OFFCURVE",
"626 396 CURVE SMOOTH",
"587 435 OFFCURVE",
"523 467 OFFCURVE",
"454 484 CURVE SMOOTH",
"358 507 LINE SMOOTH",
"332 513 OFFCURVE",
"309 524 OFFCURVE",
"296 537 CURVE SMOOTH",
"283 550 OFFCURVE",
"275 569 OFFCURVE",
"275 588 CURVE SMOOTH",
"275 592 LINE SMOOTH",
"275 635 OFFCURVE",
"314 661 OFFCURVE",
"379 661 CURVE SMOOTH",
"432 661 OFFCURVE",
"469 634 OFFCURVE",
"478 589 CURVE SMOOTH",
"481 574 LINE",
"653 588 LINE",
"650 603 LINE SMOOTH",
"623 737 OFFCURVE",
"521 816 OFFCURVE",
"374 816 CURVE SMOOTH",
"192 816 OFFCURVE",
"85 730 OFFCURVE",
"85 585 CURVE SMOOTH",
"85 527 OFFCURVE",
"108 468 OFFCURVE",
"148 426 CURVE SMOOTH",
"182 391 OFFCURVE",
"242 360 OFFCURVE",
"308 344 CURVE SMOOTH",
"404 321 LINE SMOOTH",
"438 313 OFFCURVE",
"466 299 OFFCURVE",
"480 285 CURVE SMOOTH",
"494 271 OFFCURVE",
"503 250 OFFCURVE",
"503 230 CURVE SMOOTH",
"503 223 LINE SMOOTH",
"503 170 OFFCURVE",
"455 139 OFFCURVE",
"375 139 CURVE SMOOTH",
"294 139 OFFCURVE",
"241 178 OFFCURVE",
"232 243 CURVE SMOOTH",
"230 257 LINE",
"57 244 LINE"
);
}
);
width = 751;
},
{
anchors = (
{
name = bottom;
position = "{238, 0}";
},
{
name = top;
position = "{238, 800}";
}
);
layerId = "3822A8B4-8016-4BEB-9110-8CE71FB015E8";
paths = (
{
closed = 1;
nodes = (
"46 188 LINE SMOOTH",
"46 62 OFFCURVE",
"120 -13 OFFCURVE",
"245 -13 CURVE SMOOTH",
"364 -13 OFFCURVE",
"435 49 OFFCURVE",
"435 155 CURVE SMOOTH",
"435 197 OFFCURVE",
"423 245 OFFCURVE",
"403 282 CURVE SMOOTH",
"383 320 OFFCURVE",
"343 363 OFFCURVE",
"303 400 CURVE SMOOTH",
"222 475 LINE SMOOTH",
"189 506 OFFCURVE",
"160 541 OFFCURVE",
"146 569 CURVE SMOOTH",
"131 598 OFFCURVE",
"122 634 OFFCURVE",
"122 667 CURVE SMOOTH",
"122 671 LINE SMOOTH",
"122 728 OFFCURVE",
"166 762 OFFCURVE",
"240 762 CURVE SMOOTH",
"317 762 OFFCURVE",
"362 719 OFFCURVE",
"362 645 CURVE SMOOTH",
"362 594 LINE",
"416 601 LINE",
"416 651 LINE SMOOTH",
"416 753 OFFCURVE",
"350 813 OFFCURVE",
"239 813 CURVE SMOOTH",
"130 813 OFFCURVE",
"66 757 OFFCURVE",
"66 661 CURVE SMOOTH",
"66 625 OFFCURVE",
"77 582 OFFCURVE",
"96 545 CURVE SMOOTH",
"114 510 OFFCURVE",
"147 469 OFFCURVE",
"183 435 CURVE SMOOTH",
"264 360 LINE SMOOTH",
"306 321 OFFCURVE",
"339 284 OFFCURVE",
"353 260 CURVE SMOOTH",
"370 231 OFFCURVE",
"379 193 OFFCURVE",
"379 156 CURVE SMOOTH",
"379 150 LINE SMOOTH",
"379 80 OFFCURVE",
"329 38 OFFCURVE",
"245 38 CURVE SMOOTH",
"154 38 OFFCURVE",
"100 96 OFFCURVE",
"100 194 CURVE SMOOTH",
"100 244 LINE",
"46 237 LINE"
);
}
);
width = 476;
},
{
anchors = (
{
name = bottom;
position = "{300, 0}";
},
{
name = top;
position = "{300, 800}";
}
);
layerId = "9C5E0400-F04B-47EF-A56D-29B29EB8CC41";
paths = (
{
closed = 1;
nodes = (
"41 223 LINE SMOOTH",
"41 75 OFFCURVE",
"136 -13 OFFCURVE",
"298 -13 CURVE SMOOTH",
"465 -13 OFFCURVE",
"564 69 OFFCURVE",
"564 207 CURVE SMOOTH",
"564 257 OFFCURVE",
"546 311 OFFCURVE",
"516 353 CURVE SMOOTH",
"489 390 OFFCURVE",
"441 431 OFFCURVE",
"386 462 CURVE SMOOTH",
"306 507 LINE SMOOTH",
"283 520 OFFCURVE",
"264 536 OFFCURVE",
"254 552 CURVE SMOOTH",
"243 569 OFFCURVE",
"236 590 OFFCURVE",
"236 606 CURVE SMOOTH",
"236 615 LINE SMOOTH",
"236 650 OFFCURVE",
"262 671 OFFCURVE",
"306 671 CURVE SMOOTH",
"347 671 OFFCURVE",
"371 644 OFFCURVE",
"371 598 CURVE SMOOTH",
"371 565 LINE",
"532 572 LINE",
"532 596 LINE SMOOTH",
"532 732 OFFCURVE",
"447 813 OFFCURVE",
"302 813 CURVE SMOOTH",
"147 813 OFFCURVE",
"56 734 OFFCURVE",
"56 600 CURVE SMOOTH",
"56 555 OFFCURVE",
"73 505 OFFCURVE",
"102 464 CURVE SMOOTH",
"127 428 OFFCURVE",
"173 391 OFFCURVE",
"226 361 CURVE SMOOTH",
"306 316 LINE SMOOTH",
"333 301 OFFCURVE",
"355 282 OFFCURVE",
"366 266 CURVE SMOOTH",
"378 248 OFFCURVE",
"384 227 OFFCURVE",
"384 212 CURVE SMOOTH",
"384 200 LINE SMOOTH",
"384 156 OFFCURVE",
"352 130 OFFCURVE",
"299 130 CURVE SMOOTH",
"241 130 OFFCURVE",
"207 163 OFFCURVE",
"207 218 CURVE SMOOTH",
"207 261 LINE",
"41 255 LINE"
);
}
);
width = 604;
}
);
leftKerningGroup = S;
rightKerningGroup = S;
unicode = 0053;
},
{
color = 4;
glyphname = T;
lastChange = "2018-10-07 20:52:21 +0000";
layers = (
{
anchors = (
{
name = bottom;
position = "{210, 0}";
},
{
name = center;
position = "{210, 400}";
},
{
name = top;
position = "{210, 800}";
}
);
layerId = "224C4421-04A1-4518-9520-E7DE557FF670";
paths = (
{
closed = 1;
nodes = (
"17 660 LINE",
"127 660 LINE",
"127 0 LINE",
"292 0 LINE",
"292 660 LINE",
"402 660 LINE",
"402 800 LINE",
"17 800 LINE"
);
}
);
width = 417;
},
{
anchors = (
{
name = bottom;
position = "{351, 0}";
},
{
name = center;
position = "{349, 400}";
},
{
name = top;
position = "{349, 800}";
}
);
layerId = "E3F4EB06-25ED-4CC6-B646-097E6B7CA9B6";
paths = (
{
closed = 1;
nodes = (
"54 750 LINE",
"324 750 LINE",
"324 0 LINE",
"379 0 LINE",
"379 750 LINE",
"649 750 LINE",
"649 800 LINE",
"54 800 LINE"
);
}
);
width = 697;
},
{
anchors = (
{
name = bottom;
position = "{116, 0}";
},
{
name = center;
position = "{116, 400}";
},
{
name = top;
position = "{116, 800}";
}
);
layerId = "1A1EA1E7-9AE6-44CA-95A2-EC2DECCB3A5F";
paths = (
{
closed = 1;
nodes = (
"23 750 LINE",
"88 750 LINE",
"88 0 LINE",
"143 0 LINE",
"143 750 LINE",
"208 750 LINE",
"208 800 LINE",
"23 800 LINE"
);
}
);
width = 229;
},
{
anchors = (
{
name = bottom;
position = "{390, 0}";
},
{
name = center;
position = "{390, 400}";
},
{
name = top;
position = "{390, 800}";
}
);
layerId = "9E3A6CEF-E447-4EE0-94FA-04D82C1F8DD8";
paths = (
{
closed = 1;
nodes = (
"52 645 LINE",
"297 645 LINE",
"297 0 LINE",
"482 0 LINE",
"482 645 LINE",
"727 645 LINE",
"727 800 LINE",
"52 800 LINE"
);
}
);
width = 768;
},
{
anchors = (
{
name = bottom;
position = "{234, 0}";
},
{
name = center;
position = "{233, 400}";
},
{
name = top;
position = "{233, 800}";
}
);
layerId = "3822A8B4-8016-4BEB-9110-8CE71FB015E8";
paths = (
{
closed = 1;
nodes = (
"39 750 LINE",
"206 750 LINE",
"206 0 LINE",
"261 0 LINE",
"261 750 LINE",
"429 750 LINE",
"429 800 LINE",
"39 800 LINE"
);
}
);
width = 463;
},
{
anchors = (
{
name = bottom;
position = "{300, 0}";
},
{
name = center;
position = "{300, 400}";
},
{
name = top;
position = "{300, 800}";
}
);
layerId = "9C5E0400-F04B-47EF-A56D-29B29EB8CC41";
paths = (
{
closed = 1;
nodes = (
"35 653 LINE",
"212 653 LINE",
"212 0 LINE",
"387 0 LINE",
"387 653 LINE",
"565 653 LINE",
"565 800 LINE",
"35 800 LINE"
);
}
);
width = 593;
}
);
leftKerningGroup = T;
leftMetricsKey = A;
rightKerningGroup = T;
rightMetricsKey = A;
unicode = 0054;
},
{
color = 4;
glyphname = Tbar;
lastChange = "2018-10-19 02:36:53 +0000";
layers = (
{
components = (
{
name = T;
}
);
layerId = "224C4421-04A1-4518-9520-E7DE557FF670";
paths = (
{
closed = 1;
nodes = (
"32 380 LINE",
"357 380 LINE",
"377 500 LINE",
"52 500 LINE"
);
}
);
width = 409;
},
{
components = (
{
name = T;
}
);
layerId = "E3F4EB06-25ED-4CC6-B646-097E6B7CA9B6";
paths = (
{
closed = 1;
nodes = (
"86 415 LINE",
"596 415 LINE",
"616 465 LINE",
"106 465 LINE"
);
}
);
width = 697;
},
{
components = (
{
name = T;
}
);
layerId = "1A1EA1E7-9AE6-44CA-95A2-EC2DECCB3A5F";
paths = (
{
closed = 1;
nodes = (
"15 415 LINE",
"205 415 LINE",
"215 465 LINE",
"25 465 LINE"
);
}
);
width = 229;
},
{
components = (
{
name = T;
}
);
layerId = "9E3A6CEF-E447-4EE0-94FA-04D82C1F8DD8";
paths = (
{
closed = 1;
nodes = (
"126 380 LINE",
"616 380 LINE",
"656 490 LINE",
"166 490 LINE"
);
}
);
width = 757;
},
{
components = (
{
alignment = -1;
name = T;
}
);
layerId = "3822A8B4-8016-4BEB-9110-8CE71FB015E8";
paths = (
{
closed = 1;
nodes = (
"51 415 LINE",
"401 415 LINE",
"416 465 LINE",
"66 465 LINE"
);
}
);
width = 463;
},
{
components = (
{
alignment = -1;
name = T;
}
);
layerId = "9C5E0400-F04B-47EF-A56D-29B29EB8CC41";
paths = (
{
closed = 1;
nodes = (
"69 380 LINE",
"477 380 LINE",
"507 495 LINE",
"99 495 LINE"
);
}
);
width = 553;
}
);
leftKerningGroup = T;
rightKerningGroup = T;
unicode = 0166;
},
{
color = 4;
glyphname = U;
lastChange = "2018-10-07 20:52:21 +0000";
layers = (
{
anchors = (
{
name = bottom;
position = "{241, 0}";
},
{
name = ogonek;
position = "{327, 10}";
},
{
name = top;
position = "{241, 800}";
},
{
name = topright;
position = "{454, 800}";
}
);
layerId = "224C4421-04A1-4518-9520-E7DE557FF670";
paths = (
{
closed = 1;
nodes = (
"274 800 LINE",
"274 170 LINE SMOOTH",
"274 143 OFFCURVE",
"263 130 OFFCURVE",
"241 130 CURVE SMOOTH",
"219 130 OFFCURVE",
"208 141 OFFCURVE",
"208 165 CURVE SMOOTH",
"208 800 LINE",
"43 800 LINE",
"43 166 LINE SMOOTH",
"43 46 OFFCURVE",
"106 -10 OFFCURVE",
"240 -10 CURVE SMOOTH",
"375 -10 OFFCURVE",
"439 46 OFFCURVE",
"439 165 CURVE SMOOTH",
"439 800 LINE"
);
}
);
width = 482;
},
{
anchors = (
{
name = bottom;
position = "{411, 0}";
},
{
name = ogonek;
position = "{516, 10}";
},
{
name = top;
position = "{411, 800}";
},
{
name = topright;
position = "{802, 800}";
}
);
layerId = "E3F4EB06-25ED-4CC6-B646-097E6B7CA9B6";
paths = (
{
closed = 1;
nodes = (
"661 800 LINE",
"661 332 LINE SMOOTH",
"661 146 OFFCURVE",
"568 36 OFFCURVE",
"411 36 CURVE SMOOTH",
"254 36 OFFCURVE",
"161 144 OFFCURVE",
"161 326 CURVE SMOOTH",
"161 800 LINE",
"106 800 LINE",
"106 334 LINE SMOOTH",
"106 114 OFFCURVE",
"219 -16 OFFCURVE",
"411 -16 CURVE SMOOTH",
"603 -16 OFFCURVE",
"716 113 OFFCURVE",
"716 332 CURVE SMOOTH",
"716 800 LINE"
);
}
);
width = 822;
},
{
anchors = (
{
name = bottom;
position = "{131, 0}";
},
{
name = ogonek;
position = "{184, 10}";
},
{
name = top;
position = "{131, 800}";
},
{
name = topright;
position = "{249, 800}";
}
);
layerId = "1A1EA1E7-9AE6-44CA-95A2-EC2DECCB3A5F";
paths = (
{
closed = 1;
nodes = (
"164 800 LINE",
"164 80 LINE SMOOTH",
"164 55 OFFCURVE",
"152 40 OFFCURVE",
"131 40 CURVE SMOOTH",
"110 40 OFFCURVE",
"98 53 OFFCURVE",
"98 75 CURVE SMOOTH",
"98 800 LINE",
"43 800 LINE",
"43 76 LINE SMOOTH",
"43 22 OFFCURVE",
"75 -10 OFFCURVE",
"130 -10 CURVE SMOOTH",
"186 -10 OFFCURVE",
"219 22 OFFCURVE",
"219 75 CURVE SMOOTH",
"219 800 LINE"
);
}
);
width = 262;
},
{
anchors = (
{
name = bottom;
position = "{431, 0}";
},
{
name = ogonek;
position = "{536, 10}";
},
{
name = top;
position = "{431, 800}";
},
{
name = topright;
position = "{822, 800}";
}
);
layerId = "9E3A6CEF-E447-4EE0-94FA-04D82C1F8DD8";
paths = (
{
closed = 1;
nodes = (
"581 800 LINE",
"581 312 LINE SMOOTH",
"581 203 OFFCURVE",
"525 139 OFFCURVE",
"431 139 CURVE SMOOTH",
"337 139 OFFCURVE",
"281 201 OFFCURVE",
"281 306 CURVE SMOOTH",
"281 800 LINE",
"96 800 LINE",
"96 314 LINE SMOOTH",
"96 107 OFFCURVE",
"220 -16 OFFCURVE",
"431 -16 CURVE SMOOTH",
"642 -16 OFFCURVE",
"766 106 OFFCURVE",
"766 312 CURVE SMOOTH",
"766 800 LINE"
);
}
);
width = 862;
},
{
anchors = (
{
name = bottom;
position = "{271, 0}";
},
{
name = ogonek;
position = "{350, 10}";
},
{
name = top;
position = "{271, 800}";
},
{
name = topright;
position = "{526, 800}";
}
);
layerId = "3822A8B4-8016-4BEB-9110-8CE71FB015E8";
paths = (
{
closed = 1;
nodes = (
"413 800 LINE",
"413 206 LINE SMOOTH",
"413 101 OFFCURVE",
"360 38 OFFCURVE",
"271 38 CURVE SMOOTH",
"182 38 OFFCURVE",
"130 99 OFFCURVE",
"130 201 CURVE SMOOTH",
"130 800 LINE",
"75 800 LINE",
"75 205 LINE SMOOTH",
"75 68 OFFCURVE",
"147 -13 OFFCURVE",
"271 -13 CURVE SMOOTH",
"395 -13 OFFCURVE",
"468 68 OFFCURVE",
"468 204 CURVE SMOOTH",
"468 800 LINE"
);
}
);
width = 542;
},
{
anchors = (
{
name = bottom;
position = "{336, 0}";
},
{
name = ogonek;
position = "{432, 10}";
},
{
name = top;
position = "{336, 800}";
},
{
name = topright;
position = "{638, 800}";
}
);
layerId = "9C5E0400-F04B-47EF-A56D-29B29EB8CC41";
paths = (
{
closed = 1;
nodes = (
"428 800 LINE",
"428 251 LINE SMOOTH",
"428 178 OFFCURVE",
"394 135 OFFCURVE",
"336 135 CURVE SMOOTH",
"279 135 OFFCURVE",
"245 176 OFFCURVE",
"245 246 CURVE SMOOTH",
"245 800 LINE",
"70 800 LINE",
"70 250 LINE SMOOTH",
"70 85 OFFCURVE",
"169 -13 OFFCURVE",
"336 -13 CURVE SMOOTH",
"504 -13 OFFCURVE",
"603 84 OFFCURVE",
"603 249 CURVE SMOOTH",
"603 800 LINE"
);
}
);
width = 672;
}
);
leftKerningGroup = U;
leftMetricsKey = H;
rightKerningGroup = U;
rightMetricsKey = H;
unicode = 0055;
},
{
color = 4;
glyphname = V;
lastChange = "2018-10-07 20:52:21 +0000";
layers = (
{
layerId = "224C4421-04A1-4518-9520-E7DE557FF670";
paths = (
{
closed = 1;
nodes = (
"118 0 LINE",
"348 0 LINE",
"445 800 LINE",
"280 800 LINE",
"246 290 LINE",
"240 110 LINE",
"234 110 LINE",
"228 290 LINE",
"192 800 LINE",
"17 800 LINE"
);
}
);
width = 460;
},
{
layerId = "E3F4EB06-25ED-4CC6-B646-097E6B7CA9B6";
paths = (
{
closed = 1;
nodes = (
"389 0 LINE",
"439 0 LINE",
"749 800 LINE",
"692 800 LINE",
"438 133 LINE",
"417 50 LINE",
"413 50 LINE",
"389 133 LINE",
"114 800 LINE",
"54 800 LINE"
);
}
);
width = 797;
},
{
layerId = "1A1EA1E7-9AE6-44CA-95A2-EC2DECCB3A5F";
paths = (
{
closed = 1;
nodes = (
"89 0 LINE",
"161 0 LINE",
"226 800 LINE",
"171 800 LINE",
"132 200 LINE",
"129 70 LINE",
"123 70 LINE",
"120 200 LINE",
"83 800 LINE",
"23 800 LINE"
);
}
);
width = 247;
},
{
layerId = "9E3A6CEF-E447-4EE0-94FA-04D82C1F8DD8";
paths = (
{
closed = 1;
nodes = (
"322 0 LINE",
"535 0 LINE",
"799 800 LINE",
"618 800 LINE",
"438 214 LINE",
"433 150 LINE",
"429 150 LINE",
"424 214 LINE",
"242 800 LINE",
"52 800 LINE"
);
}
);
width = 840;
},
{
layerId = "3822A8B4-8016-4BEB-9110-8CE71FB015E8";
paths = (
{
closed = 1;
nodes = (
"239 0 LINE",
"300 0 LINE",
"488 800 LINE",
"432 800 LINE",
"285 147 LINE",
"273 60 LINE",
"268 60 LINE",
"255 147 LINE",
"99 800 LINE",
"39 800 LINE"
);
}
);
width = 522;
},
{
layerId = "9C5E0400-F04B-47EF-A56D-29B29EB8CC41";
paths = (
{
closed = 1;
nodes = (
"220 0 LINE",
"442 0 LINE",
"622 800 LINE",
"449 800 LINE",
"342 232 LINE",
"337 120 LINE",
"332 120 LINE",
"326 232 LINE",
"217 800 LINE",
"35 800 LINE"
);
}
);
width = 650;
}
);
leftKerningGroup = V;
leftMetricsKey = A;
rightKerningGroup = V;
rightMetricsKey = A;
unicode = 0056;
},
{
color = 4;
glyphname = W;
lastChange = "2018-10-07 20:52:21 +0000";
layers = (
{
anchors = (
{
name = bottom;
position = "{366, 0}";
},
{
name = top;
position = "{366, 800}";
}
);
guideLines = (
{
position = "{266, 264}";
}
);
layerId = "224C4421-04A1-4518-9520-E7DE557FF670";
paths = (
{
closed = 1;
nodes = (
"91 0 LINE",
"301 0 LINE",
"351 560 LINE",
"352 690 LINE",
"360 690 LINE",
"361 560 LINE",
"401 0 LINE",
"631 0 LINE",
"695 800 LINE",
"530 800 LINE",
"510 240 LINE",
"508 110 LINE",
"500 110 LINE",
"500 240 LINE",
"462 800 LINE",
"255 800 LINE",
"220 240 LINE",
"219 110 LINE",
"211 110 LINE",
"210 240 LINE",
"192 800 LINE",
"17 800 LINE"
);
}
);
width = 710;
},
{
anchors = (
{
name = bottom;
position = "{582, 0}";
},
{
name = top;
position = "{582, 800}";
}
);
layerId = "E3F4EB06-25ED-4CC6-B646-097E6B7CA9B6";
paths = (
{
closed = 1;
nodes = (
"302 0 LINE",
"362 0 LINE",
"573 685 LINE",
"582 750 LINE",
"586 750 LINE",
"595 685 LINE",
"807 0 LINE",
"867 0 LINE",
"1114 800 LINE",
"1059 800 LINE",
"849 115 LINE",
"840 50 LINE",
"836 50 LINE",
"827 115 LINE",
"616 800 LINE",
"554 800 LINE",
"344 115 LINE",
"335 50 LINE",
"331 50 LINE",
"322 115 LINE",
"111 800 LINE",
"54 800 LINE"
);
}
);
width = 1162;
},
{
anchors = (
{
name = bottom;
position = "{197, 0}";
},
{
name = top;
position = "{197, 800}";
}
);
guideLines = (
{
position = "{247, 264}";
}
);
layerId = "1A1EA1E7-9AE6-44CA-95A2-EC2DECCB3A5F";
paths = (
{
closed = 1;
nodes = (
"79 0 LINE",
"161 0 LINE",
"194 590 LINE",
"194 730 LINE",
"200 730 LINE",
"200 590 LINE",
"234 0 LINE",
"311 0 LINE",
"366 800 LINE",
"311 800 LINE",
"281 200 LINE",
"278 70 LINE",
"272 70 LINE",
"269 200 LINE",
"233 800 LINE",
"161 800 LINE",
"124 200 LINE",
"121 70 LINE",
"115 70 LINE",
"112 200 LINE",
"83 800 LINE",
"23 800 LINE"
);
}
);
width = 387;
},
{
anchors = (
{
name = bottom;
position = "{604, 0}";
},
{
name = top;
position = "{604, 800}";
}
);
guideLines = (
{
position = "{362, 288}";
}
);
layerId = "9E3A6CEF-E447-4EE0-94FA-04D82C1F8DD8";
paths = (
{
closed = 1;
nodes = (
"240 0 LINE",
"456 0 LINE",
"586 538 LINE",
"595 642 LINE",
"599 642 LINE",
"608 538 LINE",
"738 0 LINE",
"954 0 LINE",
"1142 800 LINE",
"977 800 LINE",
"868 288 LINE",
"858 184 LINE",
"854 184 LINE",
"844 288 LINE",
"710 800 LINE",
"500 800 LINE",
"369 288 LINE",
"359 184 LINE",
"355 184 LINE",
"345 288 LINE",
"239 800 LINE",
"52 800 LINE"
);
}
);
width = 1183;
},
{
anchors = (
{
name = bottom;
position = "{390, 0}";
},
{
name = top;
position = "{390, 800}";
}
);
layerId = "3822A8B4-8016-4BEB-9110-8CE71FB015E8";
paths = (
{
closed = 1;
nodes = (
"191 0 LINE",
"262 0 LINE",
"384 658 LINE",
"388 740 LINE",
"393 740 LINE",
"398 658 LINE",
"521 0 LINE",
"589 0 LINE",
"740 800 LINE",
"685 800 LINE",
"565 138 LINE",
"559 60 LINE",
"554 60 LINE",
"548 138 LINE",
"425 800 LINE",
"358 800 LINE",
"234 138 LINE",
"228 60 LINE",
"223 60 LINE",
"217 138 LINE",
"97 800 LINE",
"39 800 LINE"
);
}
);
width = 774;
},
{
anchors = (
{
name = bottom;
position = "{485, 0}";
},
{
name = top;
position = "{485, 800}";
}
);
layerId = "9C5E0400-F04B-47EF-A56D-29B29EB8CC41";
paths = (
{
closed = 1;
nodes = (
"166 0 LINE",
"379 0 LINE",
"469 579 LINE",
"474 676 LINE",
"480 676 LINE",
"485 579 LINE",
"570 0 LINE",
"793 0 LINE",
"919 800 LINE",
"754 800 LINE",
"689 234 LINE",
"683 137 LINE",
"677 137 LINE",
"672 234 LINE",
"586 800 LINE",
"378 800 LINE",
"295 234 LINE",
"289 137 LINE",
"283 137 LINE",
"278 234 LINE",
"216 800 LINE",
"35 800 LINE"
);
}
);
width = 947;
}
);
leftKerningGroup = V;
leftMetricsKey = V;
rightKerningGroup = V;
rightMetricsKey = V;
unicode = 0057;
},
{
color = 4;
glyphname = X;
lastChange = "2018-10-07 20:52:21 +0000";
layers = (
{
layerId = "224C4421-04A1-4518-9520-E7DE557FF670";
paths = (
{
closed = 1;
nodes = (
"177 0 LINE",
"232 237 LINE",
"238 357 LINE",
"244 357 LINE",
"250 237 LINE",
"308 0 LINE",
"478 0 LINE",
"354 405 LINE",
"456 800 LINE",
"296 800 LINE",
"257 573 LINE",
"251 453 LINE",
"245 453 LINE",
"239 573 LINE",
"191 800 LINE",
"21 800 LINE",
"131 405 LINE",
"17 0 LINE"
);
}
);
width = 493;
},
{
layerId = "E3F4EB06-25ED-4CC6-B646-097E6B7CA9B6";
paths = (
{
closed = 1;
nodes = (
"115 0 LINE",
"342 348 LINE",
"358 387 LINE",
"362 387 LINE",
"378 348 LINE",
"606 0 LINE",
"672 0 LINE",
"391 422 LINE",
"644 800 LINE",
"582 800 LINE",
"379 490 LINE",
"363 451 LINE",
"359 451 LINE",
"343 490 LINE",
"141 800 LINE",
"76 800 LINE",
"331 420 LINE",
"54 0 LINE"
);
}
);
width = 720;
},
{
layerId = "1A1EA1E7-9AE6-44CA-95A2-EC2DECCB3A5F";
paths = (
{
closed = 1;
nodes = (
"75 0 LINE",
"122 279 LINE",
"126 369 LINE",
"132 369 LINE",
"136 279 LINE",
"188 0 LINE",
"248 0 LINE",
"165 405 LINE",
"226 800 LINE",
"174 800 LINE",
"140 533 LINE",
"136 441 LINE",
"130 441 LINE",
"126 533 LINE",
"87 800 LINE",
"27 800 LINE",
"96 405 LINE",
"23 0 LINE"
);
}
);
width = 269;
},
{
layerId = "9E3A6CEF-E447-4EE0-94FA-04D82C1F8DD8";
paths = (
{
closed = 1;
nodes = (
"248 0 LINE",
"400 283 LINE",
"410 342 LINE",
"414 342 LINE",
"424 283 LINE",
"573 0 LINE",
"780 0 LINE",
"538 434 LINE",
"744 800 LINE",
"545 800 LINE",
"424 565 LINE",
"414 506 LINE",
"410 506 LINE",
"400 565 LINE",
"279 800 LINE",
"73 800 LINE",
"285 418 LINE",
"52 0 LINE"
);
}
);
width = 821;
},
{
layerId = "3822A8B4-8016-4BEB-9110-8CE71FB015E8";
paths = (
{
closed = 1;
nodes = (
"95 0 LINE",
"232 324 LINE",
"242 378 LINE",
"247 378 LINE",
"257 324 LINE",
"397 0 LINE",
"460 0 LINE",
"278 414 LINE",
"435 800 LINE",
"378 800 LINE",
"260 502 LINE",
"250 446 LINE",
"245 446 LINE",
"235 502 LINE",
"114 800 LINE",
"52 800 LINE",
"214 413 LINE",
"39 0 LINE"
);
}
);
width = 494;
},
{
layerId = "9C5E0400-F04B-47EF-A56D-29B29EB8CC41";
paths = (
{
closed = 1;
nodes = (
"213 0 LINE",
"316 280 LINE",
"324 360 LINE",
"329 360 LINE",
"337 280 LINE",
"441 0 LINE",
"629 0 LINE",
"446 420 LINE",
"600 800 LINE",
"421 800 LINE",
"341 549 LINE",
"333 470 LINE",
"328 470 LINE",
"320 549 LINE",
"235 800 LINE",
"47 800 LINE",
"208 412 LINE",
"35 0 LINE"
);
}
);
width = 657;
}
);
leftKerningGroup = X;
leftMetricsKey = A;
rightKerningGroup = X;
rightMetricsKey = A;
unicode = 0058;
},
{
color = 4;
glyphname = Y;
lastChange = "2018-10-07 20:52:21 +0000";
layers = (
{
anchors = (
{
name = bottom;
position = "{236, 0}";
},
{
name = top;
position = "{236, 800}";
},
{
name = topleft;
position = "{27, 800}";
}
);
guideLines = (
{
angle = 90;
position = "{17, 800}";
},
{
angle = 90;
position = "{455, 800}";
}
);
layerId = "224C4421-04A1-4518-9520-E7DE557FF670";
paths = (
{
closed = 1;
nodes = (
"156 270 LINE",
"156 0 LINE",
"321 0 LINE",
"321 270 LINE",
"455 800 LINE",
"295 800 LINE",
"251 477 LINE",
"249 390 LINE",
"243 390 LINE",
"241 477 LINE",
"187 800 LINE",
"17 800 LINE"
);
}
);
width = 470;
},
{
anchors = (
{
name = bottom;
position = "{367, 0}";
},
{
name = top;
position = "{367, 800}";
},
{
name = topleft;
position = "{20, 800}";
}
);
layerId = "E3F4EB06-25ED-4CC6-B646-097E6B7CA9B6";
paths = (
{
closed = 1;
nodes = (
"337 343 LINE",
"337 0 LINE",
"392 0 LINE",
"392 343 LINE",
"673 800 LINE",
"611 800 LINE",
"396 446 LINE",
"368 384 LINE",
"364 384 LINE",
"336 446 LINE",
"119 800 LINE",
"54 800 LINE"
);
}
);
width = 721;
},
{
anchors = (
{
name = bottom;
position = "{125, 0}";
},
{
name = top;
position = "{125, 800}";
},
{
name = topleft;
position = "{-7, 800}";
}
);
guideLines = (
{
angle = 90;
position = "{-97, 800}";
},
{
angle = 90;
position = "{341, 800}";
}
);
layerId = "1A1EA1E7-9AE6-44CA-95A2-EC2DECCB3A5F";
paths = (
{
closed = 1;
nodes = (
"97 270 LINE",
"97 0 LINE",
"152 0 LINE",
"152 270 LINE",
"226 800 LINE",
"171 800 LINE",
"130 440 LINE",
"129 380 LINE",
"123 380 LINE",
"122 440 LINE",
"83 800 LINE",
"23 800 LINE"
);
}
);
width = 247;
},
{
anchors = (
{
name = bottom;
position = "{442, 0}";
},
{
name = top;
position = "{442, 800}";
},
{
name = topleft;
position = "{95, 800}";
}
);
layerId = "9E3A6CEF-E447-4EE0-94FA-04D82C1F8DD8";
paths = (
{
closed = 1;
nodes = (
"347 220 LINE",
"347 0 LINE",
"532 0 LINE",
"532 220 LINE",
"806 800 LINE",
"618 800 LINE",
"452 424 LINE",
"444 370 LINE",
"440 370 LINE",
"432 424 LINE",
"254 800 LINE",
"52 800 LINE"
);
}
);
width = 847;
},
{
anchors = (
{
name = bottom;
position = "{246, 0}";
},
{
name = top;
position = "{246, 800}";
},
{
name = topleft;
position = "{7, 800}";
}
);
layerId = "3822A8B4-8016-4BEB-9110-8CE71FB015E8";
paths = (
{
closed = 1;
nodes = (
"217 307 LINE",
"217 0 LINE",
"272 0 LINE",
"272 307 LINE",
"450 800 LINE",
"391 800 LINE",
"263 433 LINE",
"249 372 LINE",
"244 372 LINE",
"229 433 LINE",
"101 800 LINE",
"39 800 LINE"
);
}
);
width = 484;
},
{
anchors = (
{
name = bottom;
position = "{339, 0}";
},
{
name = top;
position = "{339, 800}";
},
{
name = topleft;
position = "{61, 800}";
}
);
layerId = "9C5E0400-F04B-47EF-A56D-29B29EB8CC41";
paths = (
{
closed = 1;
nodes = (
"252 245 LINE",
"252 0 LINE",
"427 0 LINE",
"427 245 LINE",
"631 800 LINE",
"457 800 LINE",
"352 431 LINE",
"347 370 LINE",
"342 370 LINE",
"337 431 LINE",
"221 800 LINE",
"35 800 LINE"
);
}
);
width = 659;
}
);
leftKerningGroup = Y;
leftMetricsKey = A;
rightKerningGroup = Y;
rightMetricsKey = A;
unicode = 0059;
},
{
color = 4;
glyphname = Z;
lastChange = "2018-10-07 20:52:21 +0000";
layers = (
{
anchors = (
{
name = bottom;
position = "{228, 0}";
},
{
name = top;
position = "{228, 800}";
}
);
layerId = "224C4421-04A1-4518-9520-E7DE557FF670";
paths = (
{
closed = 1;
nodes = (
"433 0 LINE",
"433 130 LINE",
"192 130 LINE",
"192 134 LINE",
"208 154 LINE",
"423 704 LINE",
"423 800 LINE",
"42 800 LINE",
"42 670 LINE",
"252 670 LINE",
"252 666 LINE",
"236 646 LINE",
"22 96 LINE",
"22 0 LINE"
);
}
);
width = 455;
},
{
anchors = (
{
name = bottom;
position = "{347, 0}";
},
{
name = top;
position = "{347, 800}";
}
);
layerId = "E3F4EB06-25ED-4CC6-B646-097E6B7CA9B6";
paths = (
{
closed = 1;
nodes = (
"642 0 LINE",
"642 50 LINE",
"107 50 LINE",
"107 54 LINE",
"132 74 LINE",
"632 744 LINE",
"632 800 LINE",
"72 800 LINE",
"72 750 LINE",
"577 750 LINE",
"577 746 LINE",
"552 726 LINE",
"52 56 LINE",
"52 0 LINE"
);
}
);
width = 694;
},
{
anchors = (
{
name = bottom;
position = "{121, 0}";
},
{
name = top;
position = "{121, 800}";
}
);
layerId = "1A1EA1E7-9AE6-44CA-95A2-EC2DECCB3A5F";
paths = (
{
closed = 1;
nodes = (
"218 0 LINE",
"218 50 LINE",
"71 50 LINE",
"71 54 LINE",
"81 60 LINE",
"208 764 LINE",
"208 800 LINE",
"42 800 LINE",
"42 750 LINE",
"158 750 LINE",
"158 746 LINE",
"148 740 LINE",
"22 36 LINE",
"22 0 LINE"
);
}
);
width = 240;
},
{
anchors = (
{
name = bottom;
position = "{367, 0}";
},
{
name = top;
position = "{367, 800}";
}
);
layerId = "9E3A6CEF-E447-4EE0-94FA-04D82C1F8DD8";
paths = (
{
closed = 1;
nodes = (
"702 0 LINE",
"702 155 LINE",
"277 155 LINE",
"277 161 LINE",
"317 187 LINE",
"672 669 LINE",
"672 800 LINE",
"72 800 LINE",
"72 645 LINE",
"447 645 LINE",
"447 639 LINE",
"407 613 LINE",
"52 131 LINE",
"52 0 LINE"
);
}
);
width = 754;
},
{
anchors = (
{
name = bottom;
position = "{234, 0}";
},
{
name = top;
position = "{234, 800}";
}
);
layerId = "3822A8B4-8016-4BEB-9110-8CE71FB015E8";
paths = (
{
closed = 1;
nodes = (
"430 0 LINE",
"430 50 LINE",
"89 50 LINE",
"89 54 LINE",
"107 67 LINE",
"420 754 LINE",
"420 800 LINE",
"57 800 LINE",
"57 750 LINE",
"368 750 LINE",
"368 746 LINE",
"350 733 LINE",
"37 46 LINE",
"37 0 LINE"
);
}
);
width = 467;
},
{
anchors = (
{
name = bottom;
position = "{298, 0}";
},
{
name = top;
position = "{298, 800}";
}
);
layerId = "9C5E0400-F04B-47EF-A56D-29B29EB8CC41";
paths = (
{
closed = 1;
nodes = (
"568 0 LINE",
"568 143 LINE",
"235 143 LINE",
"235 148 LINE",
"263 171 LINE",
"548 687 LINE",
"548 800 LINE",
"57 800 LINE",
"57 658 LINE",
"350 658 LINE",
"350 653 LINE",
"322 630 LINE",
"37 114 LINE",
"37 0 LINE"
);
}
);
width = 605;
}
);
leftKerningGroup = Z;
rightKerningGroup = Z;
unicode = 005A;
},
{
color = 5;
glyphname = G.ss02;
lastChange = "2018-10-07 20:52:21 +0000";
layers = (
{
anchors = (
{
name = bottom;
position = "{231, 0}";
},
{
name = top;
position = "{231, 800}";
}
);
background = {
paths = (
{
closed = 1;
nodes = (
"229 420 LINE",
"229 280 LINE",
"264 280 LINE",
"264 170 LINE SMOOTH",
"264 143 OFFCURVE",
"253 130 OFFCURVE",
"231 130 CURVE SMOOTH",
"209 130 OFFCURVE",
"198 141 OFFCURVE",
"198 165 CURVE SMOOTH",
"198 630 LINE SMOOTH",
"198 657 OFFCURVE",
"209 670 OFFCURVE",
"231 670 CURVE SMOOTH",
"253 670 OFFCURVE",
"264 659 OFFCURVE",
"264 635 CURVE SMOOTH",
"264 524 LINE",
"429 524 LINE",
"429 634 LINE SMOOTH",
"429 754 OFFCURVE",
"366 810 OFFCURVE",
"232 810 CURVE SMOOTH",
"97 810 OFFCURVE",
"33 754 OFFCURVE",
"33 635 CURVE SMOOTH",
"33 166 LINE SMOOTH",
"33 55 OFFCURVE",
"99 -10 OFFCURVE",
"210 -10 CURVE SMOOTH",
"279 -10 OFFCURVE",
"330 26 OFFCURVE",
"346 87 CURVE",
"326 87 LINE",
"339 0 LINE",
"429 0 LINE",
"429 420 LINE"
);
}
);
};
layerId = "224C4421-04A1-4518-9520-E7DE557FF670";
paths = (
{
closed = 1;
nodes = (
"229 420 LINE",
"229 280 LINE",
"264 280 LINE",
"264 170 LINE SMOOTH",
"264 143 OFFCURVE",
"253 130 OFFCURVE",
"231 130 CURVE SMOOTH",
"209 130 OFFCURVE",
"198 141 OFFCURVE",
"198 165 CURVE SMOOTH",
"198 630 LINE SMOOTH",
"198 657 OFFCURVE",
"209 670 OFFCURVE",
"231 670 CURVE SMOOTH",
"253 670 OFFCURVE",
"264 659 OFFCURVE",
"264 635 CURVE SMOOTH",
"264 524 LINE",
"429 524 LINE",
"429 634 LINE SMOOTH",
"429 754 OFFCURVE",
"366 810 OFFCURVE",
"232 810 CURVE SMOOTH",
"97 810 OFFCURVE",
"33 754 OFFCURVE",
"33 635 CURVE SMOOTH",
"33 166 LINE SMOOTH",
"33 55 OFFCURVE",
"91 -10 OFFCURVE",
"190 -10 CURVE SMOOTH",
"258 -10 OFFCURVE",
"307 23 OFFCURVE",
"323 80 CURVE",
"329 80 LINE",
"339 0 LINE",
"429 0 LINE",
"429 420 LINE"
);
}
);
width = 451;
},
{
anchors = (
{
name = bottom;
position = "{406, 0}";
},
{
name = top;
position = "{406, 800}";
}
);
layerId = "E3F4EB06-25ED-4CC6-B646-097E6B7CA9B6";
paths = (
{
closed = 1;
nodes = (
"441 425 LINE",
"441 375 LINE",
"709 375 LINE",
"709 326 LINE SMOOTH",
"709 156 OFFCURVE",
"608 36 OFFCURVE",
"436 36 CURVE SMOOTH",
"239 36 OFFCURVE",
"123 166 OFFCURVE",
"123 386 CURVE SMOOTH",
"123 409 LINE SMOOTH",
"123 632 OFFCURVE",
"239 764 OFFCURVE",
"436 764 CURVE SMOOTH",
"570 764 OFFCURVE",
"660 699 OFFCURVE",
"678 590 CURVE SMOOTH",
"680 578 LINE",
"733 582 LINE",
"731 594 LINE SMOOTH",
"708 734 OFFCURVE",
"598 816 OFFCURVE",
"436 816 CURVE SMOOTH",
"203 816 OFFCURVE",
"66 665 OFFCURVE",
"66 409 CURVE SMOOTH",
"66 394 LINE SMOOTH",
"66 136 OFFCURVE",
"203 -16 OFFCURVE",
"436 -16 CURVE SMOOTH",
"572 -16 OFFCURVE",
"676 46 OFFCURVE",
"715 150 CURVE",
"719 150 LINE",
"729 0 LINE",
"764 0 LINE",
"764 425 LINE"
);
}
);
width = 812;
},
{
anchors = (
{
name = bottom;
position = "{121, 0}";
},
{
name = top;
position = "{121, 800}";
}
);
layerId = "1A1EA1E7-9AE6-44CA-95A2-EC2DECCB3A5F";
paths = (
{
closed = 1;
nodes = (
"119 420 LINE",
"119 370 LINE",
"154 370 LINE",
"154 80 LINE SMOOTH",
"154 55 OFFCURVE",
"142 40 OFFCURVE",
"121 40 CURVE SMOOTH",
"100 40 OFFCURVE",
"88 53 OFFCURVE",
"88 75 CURVE SMOOTH",
"88 720 LINE SMOOTH",
"88 745 OFFCURVE",
"100 760 OFFCURVE",
"121 760 CURVE SMOOTH",
"142 760 OFFCURVE",
"154 747 OFFCURVE",
"154 725 CURVE SMOOTH",
"154 524 LINE",
"209 524 LINE",
"209 724 LINE SMOOTH",
"209 778 OFFCURVE",
"177 810 OFFCURVE",
"122 810 CURVE SMOOTH",
"66 810 OFFCURVE",
"33 778 OFFCURVE",
"33 725 CURVE SMOOTH",
"33 76 LINE SMOOTH",
"33 22 OFFCURVE",
"63 -10 OFFCURVE",
"115 -10 CURVE SMOOTH",
"152 -10 OFFCURVE",
"179 9 OFFCURVE",
"187 40 CURVE",
"193 40 LINE",
"197 0 LINE",
"209 0 LINE",
"209 420 LINE"
);
}
);
width = 241;
},
{
anchors = (
{
name = bottom;
position = "{406, 0}";
},
{
name = top;
position = "{406, 800}";
}
);
layerId = "9E3A6CEF-E447-4EE0-94FA-04D82C1F8DD8";
paths = (
{
closed = 1;
nodes = (
"441 435 LINE",
"441 315 LINE",
"595 315 LINE",
"595 296 LINE SMOOTH",
"595 194 OFFCURVE",
"539 134 OFFCURVE",
"443 134 CURVE SMOOTH",
"325 134 OFFCURVE",
"256 228 OFFCURVE",
"256 386 CURVE SMOOTH",
"256 409 LINE SMOOTH",
"256 571 OFFCURVE",
"320 666 OFFCURVE",
"429 666 CURVE SMOOTH",
"509 666 OFFCURVE",
"564 626 OFFCURVE",
"579 557 CURVE SMOOTH",
"583 538 LINE",
"763 552 LINE",
"760 570 LINE SMOOTH",
"734 725 OFFCURVE",
"618 816 OFFCURVE",
"430 816 CURVE SMOOTH",
"201 816 OFFCURVE",
"66 665 OFFCURVE",
"66 409 CURVE SMOOTH",
"66 394 LINE SMOOTH",
"66 136 OFFCURVE",
"198 -16 OFFCURVE",
"422 -16 CURVE SMOOTH",
"548 -16 OFFCURVE",
"639 38 OFFCURVE",
"667 130 CURVE",
"671 130 LINE",
"697 0 LINE",
"777 0 LINE",
"777 435 LINE"
);
}
);
width = 812;
},
{
anchors = (
{
name = bottom;
position = "{264, 0}";
},
{
name = top;
position = "{264, 800}";
}
);
layerId = "3822A8B4-8016-4BEB-9110-8CE71FB015E8";
paths = (
{
closed = 1;
nodes = (
"280 423 LINE",
"280 373 LINE",
"432 373 LINE",
"432 203 LINE SMOOTH",
"432 99 OFFCURVE",
"371 38 OFFCURVE",
"269 38 CURVE SMOOTH",
"167 38 OFFCURVE",
"106 110 OFFCURVE",
"106 231 CURVE SMOOTH",
"106 565 LINE SMOOTH",
"106 689 OFFCURVE",
"167 762 OFFCURVE",
"269 762 CURVE SMOOTH",
"361 762 OFFCURVE",
"416 697 OFFCURVE",
"416 588 CURVE SMOOTH",
"416 551 LINE",
"470 553 LINE",
"470 589 LINE SMOOTH",
"470 730 OFFCURVE",
"395 813 OFFCURVE",
"269 813 CURVE SMOOTH",
"131 813 OFFCURVE",
"50 722 OFFCURVE",
"50 567 CURVE SMOOTH",
"50 235 LINE SMOOTH",
"50 79 OFFCURVE",
"130 -13 OFFCURVE",
"266 -13 CURVE SMOOTH",
"359 -13 OFFCURVE",
"428 27 OFFCURVE",
"451 95 CURVE",
"456 95 LINE",
"463 0 LINE",
"487 0 LINE",
"487 423 LINE"
);
}
);
width = 527;
},
{
anchors = (
{
name = bottom;
position = "{319, 0}";
},
{
name = top;
position = "{319, 800}";
}
);
layerId = "9C5E0400-F04B-47EF-A56D-29B29EB8CC41";
paths = (
{
closed = 1;
nodes = (
"335 428 LINE",
"335 298 LINE",
"430 298 LINE",
"430 253 LINE SMOOTH",
"430 177 OFFCURVE",
"394 132 OFFCURVE",
"332 132 CURVE SMOOTH",
"266 132 OFFCURVE",
"227 178 OFFCURVE",
"227 256 CURVE SMOOTH",
"227 540 LINE SMOOTH",
"227 620 OFFCURVE",
"263 668 OFFCURVE",
"325 668 CURVE SMOOTH",
"386 668 OFFCURVE",
"422 626 OFFCURVE",
"422 556 CURVE SMOOTH",
"422 531 LINE",
"595 538 LINE",
"595 562 LINE SMOOTH",
"595 720 OFFCURVE",
"495 813 OFFCURVE",
"326 813 CURVE SMOOTH",
"153 813 OFFCURVE",
"50 712 OFFCURVE",
"50 542 CURVE SMOOTH",
"50 260 LINE SMOOTH",
"50 88 OFFCURVE",
"143 -13 OFFCURVE",
"301 -13 CURVE SMOOTH",
"401 -13 OFFCURVE",
"473 31 OFFCURVE",
"495 105 CURVE",
"500 105 LINE",
"518 0 LINE",
"603 0 LINE",
"603 428 LINE"
);
}
);
width = 632;
}
);
leftKerningGroup = O;
leftMetricsKey = O;
rightKerningGroup = O;
},
{
color = 5;
glyphname = J.ss03;
lastChange = "2018-10-07 20:52:21 +0000";
layers = (
{
layerId = "224C4421-04A1-4518-9520-E7DE557FF670";
paths = (
{
closed = 1;
nodes = (
"232 800 LINE",
"67 800 LINE",
"67 168 LINE SMOOTH",
"67 149 OFFCURVE",
"58 140 OFFCURVE",
"39 140 CURVE SMOOTH",
"31 140 OFFCURVE",
"23 141 OFFCURVE",
"17 142 CURVE",
"17 0 LINE",
"47 -7 OFFCURVE",
"77 -10 OFFCURVE",
"110 -10 CURVE SMOOTH",
"193 -10 OFFCURVE",
"232 33 OFFCURVE",
"232 123 CURVE SMOOTH"
);
}
);
width = 275;
},
{
background = {
paths = (
{
closed = 1;
nodes = (
"339 800 LINE",
"284 800 LINE",
"284 188 LINE SMOOTH",
"284 95 OFFCURVE",
"233 40 OFFCURVE",
"146 40 CURVE SMOOTH",
"54 40 LINE",
"54 0 LINE",
"79 -6 OFFCURVE",
"113 -10 OFFCURVE",
"146 -10 CURVE SMOOTH",
"267 -10 OFFCURVE",
"339 62 OFFCURVE",
"339 183 CURVE SMOOTH"
);
}
);
};
layerId = "E3F4EB06-25ED-4CC6-B646-097E6B7CA9B6";
paths = (
{
closed = 1;
nodes = (
"339 800 LINE",
"284 800 LINE",
"284 188 LINE SMOOTH",
"284 95 OFFCURVE",
"223 40 OFFCURVE",
"136 40 CURVE SMOOTH",
"109 40 OFFCURVE",
"78 44 OFFCURVE",
"54 50 CURVE",
"54 0 LINE",
"76 -6 OFFCURVE",
"107 -10 OFFCURVE",
"136 -10 CURVE SMOOTH",
"257 -10 OFFCURVE",
"339 62 OFFCURVE",
"339 183 CURVE SMOOTH"
);
}
);
width = 445;
},
{
layerId = "1A1EA1E7-9AE6-44CA-95A2-EC2DECCB3A5F";
paths = (
{
closed = 1;
nodes = (
"128 800 LINE",
"73 800 LINE",
"73 78 LINE SMOOTH",
"73 60 OFFCURVE",
"63 50 OFFCURVE",
"45 50 CURVE SMOOTH",
"37 50 OFFCURVE",
"29 51 OFFCURVE",
"23 52 CURVE",
"23 0 LINE",
"33 -3 OFFCURVE",
"48 -5 OFFCURVE",
"61 -5 CURVE SMOOTH",
"103 -5 OFFCURVE",
"128 18 OFFCURVE",
"128 58 CURVE SMOOTH"
);
}
);
width = 171;
},
{
background = {
paths = (
{
closed = 1;
nodes = (
"337 800 LINE",
"282 800 LINE",
"282 188 LINE SMOOTH",
"282 95 OFFCURVE",
"221 40 OFFCURVE",
"134 40 CURVE SMOOTH",
"107 40 OFFCURVE",
"76 44 OFFCURVE",
"52 50 CURVE",
"52 0 LINE",
"74 -6 OFFCURVE",
"105 -10 OFFCURVE",
"134 -10 CURVE SMOOTH",
"255 -10 OFFCURVE",
"337 62 OFFCURVE",
"337 183 CURVE SMOOTH"
);
}
);
};
layerId = "9E3A6CEF-E447-4EE0-94FA-04D82C1F8DD8";
paths = (
{
closed = 1;
nodes = (
"467 800 LINE",
"282 800 LINE",
"282 262 LINE SMOOTH",
"282 188 OFFCURVE",
"236 139 OFFCURVE",
"149 139 CURVE SMOOTH",
"116 139 OFFCURVE",
"80 147 OFFCURVE",
"52 160 CURVE",
"52 10 LINE",
"87 -6 OFFCURVE",
"138 -16 OFFCURVE",
"190 -16 CURVE SMOOTH",
"367 -16 OFFCURVE",
"467 93 OFFCURVE",
"467 253 CURVE SMOOTH"
);
}
);
width = 563;
},
{
layerId = "3822A8B4-8016-4BEB-9110-8CE71FB015E8";
paths = (
{
closed = 1;
nodes = (
"234 800 LINE",
"179 800 LINE",
"179 133 LINE SMOOTH",
"179 78 OFFCURVE",
"143 45 OFFCURVE",
"91 45 CURVE SMOOTH",
"73 45 OFFCURVE",
"54 48 OFFCURVE",
"39 51 CURVE",
"39 0 LINE",
"55 -5 OFFCURVE",
"78 -8 OFFCURVE",
"99 -8 CURVE SMOOTH",
"180 -8 OFFCURVE",
"234 40 OFFCURVE",
"234 121 CURVE SMOOTH"
);
}
);
width = 308;
},
{
layerId = "9C5E0400-F04B-47EF-A56D-29B29EB8CC41";
paths = (
{
closed = 1;
nodes = (
"350 800 LINE",
"175 800 LINE",
"175 215 LINE SMOOTH",
"175 169 OFFCURVE",
"147 140 OFFCURVE",
"94 140 CURVE SMOOTH",
"74 140 OFFCURVE",
"52 144 OFFCURVE",
"35 151 CURVE",
"35 5 LINE",
"67 -7 OFFCURVE",
"108 -13 OFFCURVE",
"150 -13 CURVE SMOOTH",
"280 -13 OFFCURVE",
"350 63 OFFCURVE",
"350 188 CURVE SMOOTH"
);
}
);
width = 419;
}
);
leftKerningGroup = A;
leftMetricsKey = A;
rightKerningGroup = U;
rightMetricsKey = H;
},
{
color = 5;
glyphname = K.ss04;
lastChange = "2018-10-07 20:52:21 +0000";
layers = (
{
anchors = (
{
name = bottom;
position = "{240, 0}";
},
{
name = top;
position = "{240, 800}";
}
);
background = {
paths = (
{
closed = 1;
nodes = (
"43 800 LINE",
"43 0 LINE",
"208 0 LINE",
"208 800 LINE"
);
},
{
closed = 1;
nodes = (
"297 0 LINE",
"462 0 LINE",
"363 432 LINE",
"457 800 LINE",
"292 800 LINE",
"201 416 LINE"
);
}
);
};
layerId = "224C4421-04A1-4518-9520-E7DE557FF670";
paths = (
{
closed = 1;
nodes = (
"208 0 LINE",
"208 339 LINE",
"204 394 LINE",
"210 394 LINE",
"219 339 LINE",
"297 0 LINE",
"462 0 LINE",
"363 432 LINE",
"457 800 LINE",
"292 800 LINE",
"219 493 LINE",
"210 438 LINE",
"204 438 LINE",
"208 493 LINE",
"208 800 LINE",
"43 800 LINE",
"43 0 LINE"
);
}
);
width = 477;
},
{
anchors = (
{
name = bottom;
position = "{354, 0}";
},
{
name = top;
position = "{354, 800}";
}
);
layerId = "E3F4EB06-25ED-4CC6-B646-097E6B7CA9B6";
paths = (
{
closed = 1;
nodes = (
"161 0 LINE",
"161 368 LINE",
"158 394 LINE",
"162 394 LINE",
"181 368 LINE",
"539 0 LINE",
"619 0 LINE",
"208 417 LINE",
"592 800 LINE",
"512 800 LINE",
"181 464 LINE",
"162 438 LINE",
"158 438 LINE",
"161 464 LINE",
"161 800 LINE",
"106 800 LINE",
"106 0 LINE"
);
}
);
width = 667;
},
{
anchors = (
{
name = bottom;
position = "{134, 0}";
},
{
name = top;
position = "{134, 800}";
}
);
layerId = "1A1EA1E7-9AE6-44CA-95A2-EC2DECCB3A5F";
paths = (
{
closed = 1;
nodes = (
"98 0 LINE",
"98 360 LINE",
"95 398 LINE",
"101 398 LINE",
"106 360 LINE",
"189 0 LINE",
"248 0 LINE",
"145 422 LINE",
"239 800 LINE",
"184 800 LINE",
"106 471 LINE",
"101 433 LINE",
"95 433 LINE",
"98 471 LINE",
"98 800 LINE",
"43 800 LINE",
"43 0 LINE"
);
}
);
width = 269;
},
{
anchors = (
{
name = bottom;
position = "{374, 0}";
},
{
name = top;
position = "{374, 800}";
}
);
layerId = "9E3A6CEF-E447-4EE0-94FA-04D82C1F8DD8";
paths = (
{
closed = 1;
nodes = (
"281 0 LINE",
"281 363 LINE",
"276 403 LINE",
"280 403 LINE",
"296 363 LINE",
"506 0 LINE",
"716 0 LINE",
"455 437 LINE",
"689 800 LINE",
"481 800 LINE",
"296 504 LINE",
"280 467 LINE",
"276 467 LINE",
"281 504 LINE",
"281 800 LINE",
"96 800 LINE",
"96 0 LINE"
);
}
);
width = 757;
},
{
anchors = (
{
name = bottom;
position = "{244, 0}";
},
{
name = top;
position = "{244, 800}";
}
);
layerId = "3822A8B4-8016-4BEB-9110-8CE71FB015E8";
paths = (
{
closed = 1;
nodes = (
"130 0 LINE",
"130 364 LINE",
"127 396 LINE",
"132 396 LINE",
"144 364 LINE",
"364 0 LINE",
"434 0 LINE",
"177 420 LINE",
"416 800 LINE",
"348 800 LINE",
"144 468 LINE",
"132 436 LINE",
"127 436 LINE",
"130 468 LINE",
"130 800 LINE",
"75 800 LINE",
"75 0 LINE"
);
}
);
width = 468;
},
{
anchors = (
{
name = bottom;
position = "{307, 0}";
},
{
name = top;
position = "{307, 800}";
}
);
layerId = "9C5E0400-F04B-47EF-A56D-29B29EB8CC41";
paths = (
{
closed = 1;
nodes = (
"245 0 LINE",
"245 351 LINE",
"240 399 LINE",
"245 399 LINE",
"258 351 LINE",
"402 0 LINE",
"589 0 LINE",
"409 435 LINE",
"573 800 LINE",
"387 800 LINE",
"258 499 LINE",
"245 453 LINE",
"240 453 LINE",
"245 499 LINE",
"245 800 LINE",
"70 800 LINE",
"70 0 LINE"
);
}
);
width = 617;
}
);
leftKerningGroup = H;
leftMetricsKey = H;
rightKerningGroup = X;
rightMetricsKey = A;
},
{
color = 5;
glyphname = R.ss05;
lastChange = "2018-10-07 20:52:21 +0000";
layers = (
{
anchors = (
{
name = bottom;
position = "{248, 0}";
},
{
name = top;
position = "{248, 800}";
}
);
layerId = "224C4421-04A1-4518-9520-E7DE557FF670";
paths = (
{
closed = 1;
nodes = (
"208 0 LINE",
"208 330 LINE",
"242 330 LINE SMOOTH",
"275 330 OFFCURVE",
"280 311 OFFCURVE",
"280 270 CURVE SMOOTH",
"280 80 LINE SMOOTH",
"280 50 OFFCURVE",
"286 20 OFFCURVE",
"297 0 CURVE",
"456 0 LINE",
"458 4 LINE",
"447 26 OFFCURVE",
"440 59 OFFCURVE",
"440 89 CURVE SMOOTH",
"440 264 LINE SMOOTH",
"440 344 OFFCURVE",
"410 392 OFFCURVE",
"358 394 CURVE",
"358 400 LINE",
"406 406 OFFCURVE",
"435 445 OFFCURVE",
"435 505 CURVE SMOOTH",
"435 624 LINE SMOOTH",
"435 744 OFFCURVE",
"372 800 OFFCURVE",
"238 800 CURVE SMOOTH",
"43 800 LINE",
"43 0 LINE"
);
},
{
closed = 1;
nodes = (
"208 660 LINE",
"237 660 LINE SMOOTH",
"259 660 OFFCURVE",
"270 649 OFFCURVE",
"270 625 CURVE SMOOTH",
"270 500 LINE SMOOTH",
"270 473 OFFCURVE",
"259 460 OFFCURVE",
"237 460 CURVE SMOOTH",
"208 460 LINE"
);
}
);
width = 498;
},
{
anchors = (
{
name = bottom;
position = "{374, 0}";
},
{
name = top;
position = "{374, 800}";
}
);
layerId = "E3F4EB06-25ED-4CC6-B646-097E6B7CA9B6";
paths = (
{
closed = 1;
nodes = (
"161 0 LINE",
"161 390 LINE",
"426 390 LINE SMOOTH",
"539 390 OFFCURVE",
"605 330 OFFCURVE",
"605 229 CURVE SMOOTH",
"605 80 LINE SMOOTH",
"605 42 OFFCURVE",
"611 13 OFFCURVE",
"622 0 CURVE",
"681 0 LINE",
"683 4 LINE",
"672 28 OFFCURVE",
"665 59 OFFCURVE",
"665 89 CURVE SMOOTH",
"665 229 LINE SMOOTH",
"665 324 OFFCURVE",
"612 392 OFFCURVE",
"522 410 CURVE",
"522 414 LINE",
"606 434 OFFCURVE",
"655 499 OFFCURVE",
"655 590 CURVE SMOOTH",
"655 599 LINE SMOOTH",
"655 725 OFFCURVE",
"572 800 OFFCURVE",
"431 800 CURVE SMOOTH",
"106 800 LINE",
"106 0 LINE"
);
},
{
closed = 1;
nodes = (
"161 750 LINE",
"430 750 LINE SMOOTH",
"537 750 OFFCURVE",
"600 694 OFFCURVE",
"600 599 CURVE SMOOTH",
"600 590 LINE SMOOTH",
"600 496 OFFCURVE",
"538 440 OFFCURVE",
"434 440 CURVE SMOOTH",
"161 440 LINE"
);
}
);
width = 738;
},
{
anchors = (
{
name = bottom;
position = "{138, 0}";
},
{
name = top;
position = "{138, 800}";
}
);
layerId = "1A1EA1E7-9AE6-44CA-95A2-EC2DECCB3A5F";
paths = (
{
closed = 1;
nodes = (
"98 0 LINE",
"98 390 LINE",
"135 390 LINE SMOOTH",
"154 390 OFFCURVE",
"165 368 OFFCURVE",
"165 330 CURVE SMOOTH",
"165 80 LINE SMOOTH",
"165 48 OFFCURVE",
"171 18 OFFCURVE",
"182 0 CURVE",
"236 0 LINE",
"238 4 LINE",
"227 27 OFFCURVE",
"220 58 OFFCURVE",
"220 89 CURVE SMOOTH",
"220 324 LINE SMOOTH",
"220 370 OFFCURVE",
"204 403 OFFCURVE",
"177 413 CURVE",
"177 417 LINE",
"201 428 OFFCURVE",
"215 451 OFFCURVE",
"215 480 CURVE SMOOTH",
"215 710 LINE SMOOTH",
"215 767 OFFCURVE",
"183 800 OFFCURVE",
"128 800 CURVE SMOOTH",
"43 800 LINE",
"43 0 LINE"
);
},
{
closed = 1;
nodes = (
"98 750 LINE",
"127 750 LINE SMOOTH",
"148 750 OFFCURVE",
"160 737 OFFCURVE",
"160 715 CURVE SMOOTH",
"160 475 LINE SMOOTH",
"160 453 OFFCURVE",
"148 440 OFFCURVE",
"127 440 CURVE SMOOTH",
"98 440 LINE"
);
}
);
width = 269;
},
{
anchors = (
{
name = bottom;
position = "{364, 0}";
},
{
name = top;
position = "{364, 800}";
}
);
layerId = "9E3A6CEF-E447-4EE0-94FA-04D82C1F8DD8";
paths = (
{
closed = 1;
nodes = (
"281 0 LINE",
"281 310 LINE",
"462 310 LINE SMOOTH",
"511 310 OFFCURVE",
"540 278 OFFCURVE",
"540 223 CURVE SMOOTH",
"540 100 LINE SMOOTH",
"540 65 OFFCURVE",
"550 28 OFFCURVE",
"567 0 CURVE",
"751 0 LINE",
"753 4 LINE",
"735 32 OFFCURVE",
"725 71 OFFCURVE",
"725 109 CURVE SMOOTH",
"725 223 LINE SMOOTH",
"725 313 OFFCURVE",
"690 378 OFFCURVE",
"631 398 CURVE",
"631 402 LINE",
"690 422 OFFCURVE",
"725 477 OFFCURVE",
"725 549 CURVE SMOOTH",
"725 559 LINE SMOOTH",
"725 710 OFFCURVE",
"622 800 OFFCURVE",
"447 800 CURVE SMOOTH",
"96 800 LINE",
"96 0 LINE"
);
},
{
closed = 1;
nodes = (
"281 645 LINE",
"437 645 LINE SMOOTH",
"499 645 OFFCURVE",
"535 613 OFFCURVE",
"535 558 CURVE SMOOTH",
"535 549 LINE SMOOTH",
"535 496 OFFCURVE",
"499 465 OFFCURVE",
"437 465 CURVE SMOOTH",
"281 465 LINE"
);
}
);
width = 839;
},
{
anchors = (
{
name = bottom;
position = "{256, 0}";
},
{
name = top;
position = "{256, 800}";
}
);
layerId = "3822A8B4-8016-4BEB-9110-8CE71FB015E8";
paths = (
{
closed = 1;
nodes = (
"130 0 LINE",
"130 390 LINE",
"251 390 LINE SMOOTH",
"335 390 OFFCURVE",
"385 342 OFFCURVE",
"385 260 CURVE SMOOTH",
"385 80 LINE SMOOTH",
"385 45 OFFCURVE",
"391 16 OFFCURVE",
"402 0 CURVE",
"459 0 LINE",
"461 4 LINE",
"450 30 OFFCURVE",
"443 61 OFFCURVE",
"443 89 CURVE SMOOTH",
"443 257 LINE SMOOTH",
"443 337 OFFCURVE",
"401 395 OFFCURVE",
"330 412 CURVE",
"330 416 LINE",
"396 434 OFFCURVE",
"435 486 OFFCURVE",
"435 555 CURVE SMOOTH",
"435 625 LINE SMOOTH",
"435 735 OFFCURVE",
"366 800 OFFCURVE",
"250 800 CURVE SMOOTH",
"75 800 LINE",
"75 0 LINE"
);
},
{
closed = 1;
nodes = (
"130 750 LINE",
"249 750 LINE SMOOTH",
"331 750 OFFCURVE",
"380 704 OFFCURVE",
"380 627 CURVE SMOOTH",
"380 553 LINE SMOOTH",
"380 482 OFFCURVE",
"332 440 OFFCURVE",
"251 440 CURVE SMOOTH",
"130 440 LINE"
);
}
);
width = 504;
},
{
anchors = (
{
name = bottom;
position = "{306, 0}";
},
{
name = top;
position = "{306, 800}";
}
);
layerId = "9C5E0400-F04B-47EF-A56D-29B29EB8CC41";
paths = (
{
closed = 1;
nodes = (
"245 0 LINE",
"245 320 LINE",
"342 320 LINE SMOOTH",
"385 320 OFFCURVE",
"410 289 OFFCURVE",
"410 237 CURVE SMOOTH",
"410 90 LINE SMOOTH",
"410 57 OFFCURVE",
"418 24 OFFCURVE",
"432 0 CURVE",
"604 0 LINE",
"606 4 LINE",
"592 28 OFFCURVE",
"583 63 OFFCURVE",
"583 99 CURVE SMOOTH",
"583 234 LINE SMOOTH",
"583 325 OFFCURVE",
"550 385 OFFCURVE",
"495 396 CURVE",
"495 401 LINE",
"548 414 OFFCURVE",
"580 468 OFFCURVE",
"580 547 CURVE SMOOTH",
"580 572 LINE SMOOTH",
"580 715 OFFCURVE",
"488 800 OFFCURVE",
"333 800 CURVE SMOOTH",
"70 800 LINE",
"70 0 LINE"
);
},
{
closed = 1;
nodes = (
"245 653 LINE",
"327 653 LINE SMOOTH",
"375 653 OFFCURVE",
"403 623 OFFCURVE",
"403 572 CURVE SMOOTH",
"403 545 LINE SMOOTH",
"403 493 OFFCURVE",
"375 463 OFFCURVE",
"327 463 CURVE SMOOTH",
"245 463 LINE"
);
}
);
width = 669;
}
);
leftKerningGroup = H;
leftMetricsKey = R;
rightKerningGroup = B;
rightMetricsKey = B;
},
{
color = 6;
glyphname = a;
lastChange = "2018-10-25 02:42:41 +0000";
layers = (
{
anchors = (
{
name = bottom;
position = "{205, 0}";
},
{
name = ogonek;
position = "{403, 10}";
},
{
name = top;
position = "{215, 590}";
}
);
layerId = "224C4421-04A1-4518-9520-E7DE557FF670";
paths = (
{
closed = 1;
nodes = (
"191 400 LINE",
"191 460 LINE SMOOTH",
"191 480 OFFCURVE",
"198 490 OFFCURVE",
"214 490 CURVE SMOOTH",
"230 490 OFFCURVE",
"237 482 OFFCURVE",
"237 465 CURVE SMOOTH",
"237 80 LINE SMOOTH",
"237 48 OFFCURVE",
"243 18 OFFCURVE",
"254 0 CURVE",
"403 0 LINE",
"405 4 LINE",
"394 26 OFFCURVE",
"387 59 OFFCURVE",
"387 89 CURVE SMOOTH",
"387 424 LINE SMOOTH",
"387 544 OFFCURVE",
"325 600 OFFCURVE",
"215 600 CURVE SMOOTH",
"103 600 OFFCURVE",
"41 544 OFFCURVE",
"41 425 CURVE SMOOTH",
"41 400 LINE"
);
},
{
closed = 1;
nodes = (
"237 140 LINE",
"237 113 OFFCURVE",
"227 100 OFFCURVE",
"207 100 CURVE SMOOTH",
"189 100 OFFCURVE",
"181 110 OFFCURVE",
"181 130 CURVE SMOOTH",
"181 210 LINE SMOOTH",
"181 240 OFFCURVE",
"194 263 OFFCURVE",
"223 280 CURVE SMOOTH",
"267 306 LINE",
"267 399 LINE",
"143 339 LINE SMOOTH",
"64 301 OFFCURVE",
"26 253 OFFCURVE",
"26 190 CURVE SMOOTH",
"26 130 LINE SMOOTH",
"26 35 OFFCURVE",
"61 -10 OFFCURVE",
"134 -10 CURVE SMOOTH",
"194 -10 OFFCURVE",
"242 33 OFFCURVE",
"262 106 CURVE",
"262 140 LINE"
);
}
);
width = 419;
},
{
anchors = (
{
name = bottom;
position = "{295, 0}";
},
{
name = ogonek;
position = "{527, 10}";
},
{
name = top;
position = "{299, 590}";
}
);
background = {
paths = (
{
closed = 1;
nodes = (
"124 478 OFFCURVE",
"134 487 OFFCURVE",
"134 501 CURVE SMOOTH",
"134 514 OFFCURVE",
"124 523 OFFCURVE",
"111 523 CURVE SMOOTH",
"98 523 OFFCURVE",
"89 514 OFFCURVE",
"89 501 CURVE SMOOTH",
"89 487 OFFCURVE",
"98 478 OFFCURVE",
"111 478 CURVE SMOOTH"
);
}
);
};
layerId = "E3F4EB06-25ED-4CC6-B646-097E6B7CA9B6";
paths = (
{
closed = 1;
nodes = (
"133 438 LINE",
"135 450 LINE SMOOTH",
"146 515 OFFCURVE",
"212 561 OFFCURVE",
"294 561 CURVE SMOOTH",
"392 561 OFFCURVE",
"461 491 OFFCURVE",
"461 393 CURVE SMOOTH",
"461 110 LINE SMOOTH",
"461 68 OFFCURVE",
"467 27 OFFCURVE",
"478 0 CURVE",
"527 0 LINE",
"529 4 LINE",
"518 35 OFFCURVE",
"511 77 OFFCURVE",
"511 119 CURVE SMOOTH",
"511 398 LINE SMOOTH",
"511 520 OFFCURVE",
"422 606 OFFCURVE",
"295 606 CURVE SMOOTH",
"187 606 OFFCURVE",
"100 543 OFFCURVE",
"85 454 CURVE SMOOTH",
"83 442 LINE"
);
},
{
closed = 1;
nodes = (
"461 245 LINE",
"461 118 OFFCURVE",
"371 29 OFFCURVE",
"243 29 CURVE SMOOTH",
"160 29 OFFCURVE",
"102 83 OFFCURVE",
"102 160 CURVE SMOOTH",
"102 165 LINE SMOOTH",
"102 233 OFFCURVE",
"155 282 OFFCURVE",
"246 297 CURVE SMOOTH",
"491 337 LINE",
"491 383 LINE",
"237 341 LINE SMOOTH",
"119 322 OFFCURVE",
"50 255 OFFCURVE",
"50 160 CURVE SMOOTH",
"50 155 LINE SMOOTH",
"50 55 OFFCURVE",
"131 -16 OFFCURVE",
"246 -16 CURVE SMOOTH",
"370 -16 OFFCURVE",
"459 53 OFFCURVE",
"486 171 CURVE",
"486 245 LINE"
);
}
);
width = 589;
},
{
anchors = (
{
name = bottom;
position = "{84, 0}";
},
{
name = ogonek;
position = "{208, 10}";
},
{
name = top;
position = "{115, 590}";
}
);
layerId = "1A1EA1E7-9AE6-44CA-95A2-EC2DECCB3A5F";
paths = (
{
closed = 1;
nodes = (
"86 410 LINE",
"86 525 LINE SMOOTH",
"86 544 OFFCURVE",
"96 555 OFFCURVE",
"114 555 CURVE SMOOTH",
"132 555 OFFCURVE",
"142 544 OFFCURVE",
"142 525 CURVE SMOOTH",
"142 80 LINE SMOOTH",
"142 50 OFFCURVE",
"148 20 OFFCURVE",
"159 0 CURVE",
"208 0 LINE",
"210 4 LINE",
"199 26 OFFCURVE",
"192 59 OFFCURVE",
"192 89 CURVE SMOOTH",
"192 514 LINE SMOOTH",
"192 568 OFFCURVE",
"163 600 OFFCURVE",
"115 600 CURVE SMOOTH",
"65 600 OFFCURVE",
"36 568 OFFCURVE",
"36 515 CURVE SMOOTH",
"36 410 LINE"
);
},
{
closed = 1;
nodes = (
"142 90 LINE",
"142 59 OFFCURVE",
"129 40 OFFCURVE",
"107 40 CURVE SMOOTH",
"88 40 OFFCURVE",
"76 55 OFFCURVE",
"76 80 CURVE SMOOTH",
"76 210 LINE SMOOTH",
"76 244 OFFCURVE",
"92 272 OFFCURVE",
"118 286 CURVE SMOOTH",
"167 312 LINE",
"167 359 LINE",
"95 319 LINE SMOOTH",
"48 293 OFFCURVE",
"26 249 OFFCURVE",
"26 200 CURVE SMOOTH",
"26 70 LINE SMOOTH",
"26 20 OFFCURVE",
"44 -10 OFFCURVE",
"84 -10 CURVE SMOOTH",
"125 -10 OFFCURVE",
"154 22 OFFCURVE",
"162 76 CURVE",
"162 90 LINE"
);
}
);
width = 220;
},
{
anchors = (
{
name = bottom;
position = "{295, 0}";
},
{
name = ogonek;
position = "{527, 10}";
},
{
name = top;
position = "{299, 590}";
}
);
associatedMasterId = "E3F4EB06-25ED-4CC6-B646-097E6B7CA9B6";
background = {
paths = (
{
closed = 1;
nodes = (
"124 478 OFFCURVE",
"134 487 OFFCURVE",
"134 501 CURVE SMOOTH",
"134 514 OFFCURVE",
"124 523 OFFCURVE",
"111 523 CURVE SMOOTH",
"98 523 OFFCURVE",
"89 514 OFFCURVE",
"89 501 CURVE SMOOTH",
"89 487 OFFCURVE",
"98 478 OFFCURVE",
"111 478 CURVE SMOOTH"
);
}
);
};
layerId = "39B3F82D-FF0B-4C2D-A7F5-E9E4F75D9979";
name = "Aug 26 18, 20:38";
paths = (
{
closed = 1;
nodes = (
"114 468 LINE",
"127 484 LINE SMOOTH",
"168 532 OFFCURVE",
"230 561 OFFCURVE",
"295 561 CURVE SMOOTH",
"399 561 OFFCURVE",
"461 491 OFFCURVE",
"461 373 CURVE SMOOTH",
"461 110 LINE SMOOTH",
"461 68 OFFCURVE",
"467 27 OFFCURVE",
"478 0 CURVE",
"527 0 LINE",
"529 4 LINE",
"518 35 OFFCURVE",
"511 77 OFFCURVE",
"511 119 CURVE SMOOTH",
"511 388 LINE SMOOTH",
"511 525 OFFCURVE",
"431 606 OFFCURVE",
"296 606 CURVE SMOOTH",
"216 606 OFFCURVE",
"140 572 OFFCURVE",
"93 515 CURVE SMOOTH",
"79 498 LINE"
);
},
{
closed = 1;
nodes = (
"461 245 LINE",
"461 118 OFFCURVE",
"371 29 OFFCURVE",
"243 29 CURVE SMOOTH",
"160 29 OFFCURVE",
"102 83 OFFCURVE",
"102 160 CURVE SMOOTH",
"102 165 LINE SMOOTH",
"102 227 OFFCURVE",
"158 282 OFFCURVE",
"236 297 CURVE SMOOTH",
"491 346 LINE",
"491 393 LINE",
"227 341 LINE SMOOTH",
"123 320 OFFCURVE",
"50 245 OFFCURVE",
"50 160 CURVE SMOOTH",
"50 155 LINE SMOOTH",
"50 55 OFFCURVE",
"131 -16 OFFCURVE",
"246 -16 CURVE SMOOTH",
"370 -16 OFFCURVE",
"459 53 OFFCURVE",
"486 171 CURVE",
"486 245 LINE"
);
}
);
width = 589;
},
{
anchors = (
{
name = bottom;
position = "{315, 0}";
},
{
name = ogonek;
position = "{547, 10}";
},
{
name = top;
position = "{319, 590}";
}
);
layerId = "9E3A6CEF-E447-4EE0-94FA-04D82C1F8DD8";
paths = (
{
closed = 1;
nodes = (
"229 406 LINE",
"231 420 LINE SMOOTH",
"236 455 OFFCURVE",
"266 476 OFFCURVE",
"312 476 CURVE SMOOTH",
"362 476 OFFCURVE",
"391 441 OFFCURVE",
"391 383 CURVE SMOOTH",
"391 110 LINE SMOOTH",
"391 62 OFFCURVE",
"397 21 OFFCURVE",
"408 0 CURVE",
"587 0 LINE",
"589 4 LINE",
"578 41 OFFCURVE",
"571 84 OFFCURVE",
"571 119 CURVE SMOOTH",
"571 388 LINE SMOOTH",
"571 525 OFFCURVE",
"478 606 OFFCURVE",
"320 606 CURVE SMOOTH",
"168 606 OFFCURVE",
"79 538 OFFCURVE",
"71 424 CURVE SMOOTH",
"70 410 LINE"
);
},
{
closed = 1;
nodes = (
"391 225 LINE",
"391 155 OFFCURVE",
"354 114 OFFCURVE",
"291 114 CURVE SMOOTH",
"248 114 OFFCURVE",
"222 137 OFFCURVE",
"222 175 CURVE SMOOTH",
"222 180 LINE SMOOTH",
"222 219 OFFCURVE",
"246 245 OFFCURVE",
"286 250 CURVE SMOOTH",
"426 267 LINE",
"426 368 LINE",
"247 345 LINE SMOOTH",
"117 328 OFFCURVE",
"40 259 OFFCURVE",
"40 160 CURVE SMOOTH",
"40 155 LINE SMOOTH",
"40 48 OFFCURVE",
"113 -16 OFFCURVE",
"236 -16 CURVE SMOOTH",
"339 -16 OFFCURVE",
"410 53 OFFCURVE",
"426 171 CURVE",
"426 225 LINE"
);
}
);
width = 649;
},
{
anchors = (
{
name = bottom;
position = "{295, 0}";
},
{
name = ogonek;
position = "{527, 10}";
},
{
name = top;
position = "{299, 590}";
}
);
associatedMasterId = "9E3A6CEF-E447-4EE0-94FA-04D82C1F8DD8";
background = {
paths = (
{
closed = 1;
nodes = (
"124 478 OFFCURVE",
"134 487 OFFCURVE",
"134 501 CURVE SMOOTH",
"134 514 OFFCURVE",
"124 523 OFFCURVE",
"111 523 CURVE SMOOTH",
"98 523 OFFCURVE",
"89 514 OFFCURVE",
"89 501 CURVE SMOOTH",
"89 487 OFFCURVE",
"98 478 OFFCURVE",
"111 478 CURVE SMOOTH"
);
}
);
};
layerId = "B62E592C-0AF8-4F74-85A2-7BA4289E488F";
name = "Aug 26 18, 20:38";
paths = (
{
closed = 1;
nodes = (
"114 468 LINE",
"127 484 LINE SMOOTH",
"168 532 OFFCURVE",
"230 561 OFFCURVE",
"295 561 CURVE SMOOTH",
"399 561 OFFCURVE",
"461 491 OFFCURVE",
"461 373 CURVE SMOOTH",
"461 110 LINE SMOOTH",
"461 68 OFFCURVE",
"467 27 OFFCURVE",
"478 0 CURVE",
"527 0 LINE",
"529 4 LINE",
"518 35 OFFCURVE",
"511 77 OFFCURVE",
"511 119 CURVE SMOOTH",
"511 388 LINE SMOOTH",
"511 525 OFFCURVE",
"431 606 OFFCURVE",
"296 606 CURVE SMOOTH",
"216 606 OFFCURVE",
"140 572 OFFCURVE",
"93 515 CURVE SMOOTH",
"79 498 LINE"
);
},
{
closed = 1;
nodes = (
"461 245 LINE",
"461 118 OFFCURVE",
"371 29 OFFCURVE",
"243 29 CURVE SMOOTH",
"160 29 OFFCURVE",
"102 83 OFFCURVE",
"102 160 CURVE SMOOTH",
"102 165 LINE SMOOTH",
"102 227 OFFCURVE",
"158 282 OFFCURVE",
"236 297 CURVE SMOOTH",
"491 346 LINE",
"491 393 LINE",
"227 341 LINE SMOOTH",
"123 320 OFFCURVE",
"50 245 OFFCURVE",
"50 160 CURVE SMOOTH",
"50 155 LINE SMOOTH",
"50 55 OFFCURVE",
"131 -16 OFFCURVE",
"246 -16 CURVE SMOOTH",
"370 -16 OFFCURVE",
"459 53 OFFCURVE",
"486 171 CURVE",
"486 245 LINE"
);
}
);
width = 589;
},
{
anchors = (
{
name = bottom;
position = "{190, 0}";
},
{
name = ogonek;
position = "{368, 10}";
},
{
name = top;
position = "{207, 590}";
}
);
layerId = "3822A8B4-8016-4BEB-9110-8CE71FB015E8";
paths = (
{
closed = 1;
nodes = (
"111 424 LINE",
"111 458 LINE SMOOTH",
"111 521 OFFCURVE",
"147 558 OFFCURVE",
"209 558 CURVE SMOOTH",
"267 558 OFFCURVE",
"302 521 OFFCURVE",
"302 459 CURVE SMOOTH",
"302 95 LINE SMOOTH",
"302 59 OFFCURVE",
"308 23 OFFCURVE",
"319 0 CURVE",
"368 0 LINE",
"370 4 LINE",
"359 32 OFFCURVE",
"352 69 OFFCURVE",
"352 104 CURVE SMOOTH",
"352 456 LINE SMOOTH",
"352 548 OFFCURVE",
"299 603 OFFCURVE",
"210 603 CURVE SMOOTH",
"116 603 OFFCURVE",
"61 548 OFFCURVE",
"61 455 CURVE SMOOTH",
"61 426 LINE"
);
},
{
closed = 1;
nodes = (
"302 168 LINE",
"302 84 OFFCURVE",
"259 35 OFFCURVE",
"185 35 CURVE SMOOTH",
"125 35 OFFCURVE",
"89 78 OFFCURVE",
"89 150 CURVE SMOOTH",
"89 168 LINE SMOOTH",
"89 232 OFFCURVE",
"131 280 OFFCURVE",
"201 296 CURVE SMOOTH",
"329 325 LINE",
"329 371 LINE",
"184 334 LINE SMOOTH",
"92 311 OFFCURVE",
"38 246 OFFCURVE",
"38 160 CURVE SMOOTH",
"38 143 LINE SMOOTH",
"38 45 OFFCURVE",
"89 -13 OFFCURVE",
"175 -13 CURVE SMOOTH",
"252 -13 OFFCURVE",
"307 38 OFFCURVE",
"324 124 CURVE",
"324 168 LINE"
);
}
);
width = 405;
},
{
anchors = (
{
name = bottom;
position = "{260, 0}";
},
{
name = ogonek;
position = "{475, 10}";
},
{
name = top;
position = "{267, 590}";
}
);
layerId = "9C5E0400-F04B-47EF-A56D-29B29EB8CC41";
paths = (
{
closed = 1;
nodes = (
"211 403 LINE",
"211 420 LINE SMOOTH",
"211 460 OFFCURVE",
"230 483 OFFCURVE",
"263 483 CURVE SMOOTH",
"295 483 OFFCURVE",
"314 457 OFFCURVE",
"314 414 CURVE SMOOTH",
"314 95 LINE SMOOTH",
"314 51 OFFCURVE",
"320 16 OFFCURVE",
"331 0 CURVE",
"495 0 LINE",
"497 4 LINE",
"486 38 OFFCURVE",
"479 75 OFFCURVE",
"479 104 CURVE SMOOTH",
"479 416 LINE SMOOTH",
"479 534 OFFCURVE",
"401 603 OFFCURVE",
"268 603 CURVE SMOOTH",
"135 603 OFFCURVE",
"56 537 OFFCURVE",
"56 425 CURVE SMOOTH",
"56 405 LINE"
);
},
{
closed = 1;
nodes = (
"314 183 LINE",
"314 135 OFFCURVE",
"292 107 OFFCURVE",
"254 107 CURVE SMOOTH",
"221 107 OFFCURVE",
"202 132 OFFCURVE",
"202 173 CURVE SMOOTH",
"202 185 LINE SMOOTH",
"202 227 OFFCURVE",
"228 258 OFFCURVE",
"273 269 CURVE SMOOTH",
"347 287 LINE",
"347 384 LINE",
"213 347 LINE SMOOTH",
"100 316 OFFCURVE",
"33 248 OFFCURVE",
"33 165 CURVE SMOOTH",
"33 153 LINE SMOOTH",
"33 49 OFFCURVE",
"89 -13 OFFCURVE",
"185 -13 CURVE SMOOTH",
"267 -13 OFFCURVE",
"326 43 OFFCURVE",
"344 139 CURVE",
"344 183 LINE"
);
}
);
width = 534;
}
);
leftKerningGroup = a;
leftMetricsKey = o;
rightKerningGroup = n;
unicode = 0061;
},
{
color = 6;
glyphname = ae;
lastChange = "2018-10-07 20:52:21 +0000";
layers = (
{
layerId = "224C4421-04A1-4518-9520-E7DE557FF670";
paths = (
{
closed = 1;
nodes = (
"26 35 OFFCURVE",
"67 -10 OFFCURVE",
"154 -10 CURVE SMOOTH",
"220 -10 OFFCURVE",
"264 21 OFFCURVE",
"292 86 CURVE",
"292 183 LINE",
"237 183 LINE",
"237 135 LINE SMOOTH",
"237 111 OFFCURVE",
"227 100 OFFCURVE",
"207 100 CURVE SMOOTH",
"189 100 OFFCURVE",
"181 108 OFFCURVE",
"181 125 CURVE SMOOTH",
"181 210 LINE SMOOTH",
"181 240 OFFCURVE",
"194 263 OFFCURVE",
"223 280 CURVE SMOOTH",
"267 306 LINE",
"267 399 LINE",
"143 339 LINE SMOOTH",
"64 301 OFFCURVE",
"26 253 OFFCURVE",
"26 190 CURVE SMOOTH",
"26 130 LINE SMOOTH"
);
},
{
closed = 1;
nodes = (
"191 400 LINE",
"191 460 LINE SMOOTH",
"191 480 OFFCURVE",
"198 490 OFFCURVE",
"214 490 CURVE SMOOTH",
"230 490 OFFCURVE",
"237 482 OFFCURVE",
"237 465 CURVE SMOOTH",
"237 166 LINE SMOOTH",
"237 46 OFFCURVE",
"299 -10 OFFCURVE",
"409 -10 CURVE SMOOTH",
"521 -10 OFFCURVE",
"583 46 OFFCURVE",
"583 165 CURVE SMOOTH",
"583 205 LINE",
"443 205 LINE",
"443 130 LINE SMOOTH",
"443 110 OFFCURVE",
"431 100 OFFCURVE",
"415 100 CURVE SMOOTH",
"399 100 OFFCURVE",
"387 108 OFFCURVE",
"387 125 CURVE SMOOTH",
"387 460 LINE SMOOTH",
"387 480 OFFCURVE",
"394 490 OFFCURVE",
"410 490 CURVE SMOOTH",
"426 490 OFFCURVE",
"433 482 OFFCURVE",
"433 465 CURVE SMOOTH",
"433 300 LINE",
"507 374 LINE",
"367 374 LINE",
"367 274 LINE",
"583 274 LINE",
"583 424 LINE SMOOTH",
"583 542 OFFCURVE",
"533 600 OFFCURVE",
"431 600 CURVE SMOOTH",
"368 600 OFFCURVE",
"330 579 OFFCURVE",
"315 536 CURVE",
"309 536 LINE",
"294 579 OFFCURVE",
"257 600 OFFCURVE",
"195 600 CURVE SMOOTH",
"92 600 OFFCURVE",
"41 543 OFFCURVE",
"41 425 CURVE SMOOTH",
"41 400 LINE"
);
}
);
width = 611;
},
{
layerId = "E3F4EB06-25ED-4CC6-B646-097E6B7CA9B6";
paths = (
{
closed = 1;
nodes = (
"50 55 OFFCURVE",
"131 -16 OFFCURVE",
"246 -16 CURVE SMOOTH",
"370 -16 OFFCURVE",
"459 53 OFFCURVE",
"486 171 CURVE",
"486 301 LINE",
"461 301 LINE",
"461 245 LINE SMOOTH",
"461 118 OFFCURVE",
"371 29 OFFCURVE",
"243 29 CURVE SMOOTH",
"160 29 OFFCURVE",
"102 83 OFFCURVE",
"102 160 CURVE SMOOTH",
"102 165 LINE SMOOTH",
"102 233 OFFCURVE",
"155 282 OFFCURVE",
"246 297 CURVE SMOOTH",
"491 337 LINE",
"491 383 LINE",
"237 341 LINE SMOOTH",
"119 322 OFFCURVE",
"50 255 OFFCURVE",
"50 160 CURVE SMOOTH",
"50 155 LINE SMOOTH"
);
},
{
closed = 1;
nodes = (
"142 428 LINE",
"143 440 LINE SMOOTH",
"148 505 OFFCURVE",
"212 561 OFFCURVE",
"298 561 CURVE SMOOTH",
"400 561 OFFCURVE",
"461 506 OFFCURVE",
"461 414 CURVE SMOOTH",
"461 290 LINE SMOOTH",
"461 111 OFFCURVE",
"567 -16 OFFCURVE",
"716 -16 CURVE SMOOTH",
"832 -16 OFFCURVE",
"926 59 OFFCURVE",
"944 166 CURVE SMOOTH",
"946 178 LINE",
"896 182 LINE",
"894 170 LINE SMOOTH",
"880 87 OFFCURVE",
"807 29 OFFCURVE",
"717 29 CURVE SMOOTH",
"596 29 OFFCURVE",
"511 135 OFFCURVE",
"511 284 CURVE SMOOTH",
"511 301 LINE SMOOTH",
"511 464 OFFCURVE",
"588 561 OFFCURVE",
"717 561 CURVE SMOOTH",
"832 561 OFFCURVE",
"903 471 OFFCURVE",
"903 324 CURVE SMOOTH",
"903 319 LINE",
"938 354 LINE",
"501 354 LINE",
"501 309 LINE",
"955 309 LINE",
"955 318 LINE SMOOTH",
"955 497 OFFCURVE",
"865 606 OFFCURVE",
"718 606 CURVE SMOOTH",
"609 606 OFFCURVE",
"528 545 OFFCURVE",
"499 442 CURVE",
"495 442 LINE",
"485 545 OFFCURVE",
"412 606 OFFCURVE",
"299 606 CURVE SMOOTH",
"185 606 OFFCURVE",
"100 533 OFFCURVE",
"93 444 CURVE SMOOTH",
"92 432 LINE"
);
}
);
width = 1020;
},
{
background = {
paths = (
{
closed = 1;
nodes = (
"26 20 OFFCURVE",
"51 -10 OFFCURVE",
"94 -10 CURVE SMOOTH",
"135 -10 OFFCURVE",
"164 22 OFFCURVE",
"172 76 CURVE",
"172 111 LINE",
"142 111 LINE",
"142 90 LINE SMOOTH",
"142 59 OFFCURVE",
"129 40 OFFCURVE",
"107 40 CURVE SMOOTH",
"88 40 OFFCURVE",
"76 55 OFFCURVE",
"76 80 CURVE SMOOTH",
"76 210 LINE SMOOTH",
"76 244 OFFCURVE",
"92 272 OFFCURVE",
"118 286 CURVE SMOOTH",
"167 312 LINE",
"167 359 LINE",
"95 319 LINE SMOOTH",
"48 293 OFFCURVE",
"26 249 OFFCURVE",
"26 200 CURVE SMOOTH",
"26 70 LINE SMOOTH"
);
},
{
closed = 1;
nodes = (
"86 410 LINE",
"86 525 LINE SMOOTH",
"86 544 OFFCURVE",
"96 555 OFFCURVE",
"114 555 CURVE SMOOTH",
"132 555 OFFCURVE",
"142 544 OFFCURVE",
"142 525 CURVE SMOOTH",
"142 71 LINE SMOOTH",
"142 20 OFFCURVE",
"171 -10 OFFCURVE",
"219 -10 CURVE SMOOTH",
"269 -10 OFFCURVE",
"298 19 OFFCURVE",
"298 68 CURVE SMOOTH",
"298 195 LINE",
"248 195 LINE",
"248 71 LINE SMOOTH",
"248 52 OFFCURVE",
"238 40 OFFCURVE",
"220 40 CURVE SMOOTH",
"202 40 OFFCURVE",
"192 50 OFFCURVE",
"192 68 CURVE SMOOTH",
"192 523 LINE SMOOTH",
"192 540 OFFCURVE",
"202 550 OFFCURVE",
"220 550 CURVE SMOOTH",
"238 550 OFFCURVE",
"248 539 OFFCURVE",
"248 520 CURVE SMOOTH",
"248 329 LINE",
"273 354 LINE",
"182 354 LINE",
"182 309 LINE",
"298 309 LINE",
"298 522 LINE SMOOTH",
"298 571 OFFCURVE",
"271 600 OFFCURVE",
"225 600 CURVE SMOOTH",
"197 600 OFFCURVE",
"172 584 OFFCURVE",
"157 556 CURVE",
"177 556 LINE",
"163 584 OFFCURVE",
"139 600 OFFCURVE",
"111 600 CURVE SMOOTH",
"64 600 OFFCURVE",
"36 568 OFFCURVE",
"36 515 CURVE SMOOTH",
"36 410 LINE"
);
}
);
};
layerId = "1A1EA1E7-9AE6-44CA-95A2-EC2DECCB3A5F";
paths = (
{
closed = 1;
nodes = (
"26 20 OFFCURVE",
"51 -10 OFFCURVE",
"94 -10 CURVE SMOOTH",
"135 -10 OFFCURVE",
"164 22 OFFCURVE",
"172 76 CURVE",
"172 111 LINE",
"142 111 LINE",
"142 90 LINE SMOOTH",
"142 59 OFFCURVE",
"129 40 OFFCURVE",
"107 40 CURVE SMOOTH",
"88 40 OFFCURVE",
"76 55 OFFCURVE",
"76 80 CURVE SMOOTH",
"76 210 LINE SMOOTH",
"76 244 OFFCURVE",
"92 272 OFFCURVE",
"118 286 CURVE SMOOTH",
"167 312 LINE",
"167 359 LINE",
"95 319 LINE SMOOTH",
"48 293 OFFCURVE",
"26 249 OFFCURVE",
"26 200 CURVE SMOOTH",
"26 70 LINE SMOOTH"
);
},
{
closed = 1;
nodes = (
"86 410 LINE",
"86 525 LINE SMOOTH",
"86 544 OFFCURVE",
"96 555 OFFCURVE",
"114 555 CURVE SMOOTH",
"132 555 OFFCURVE",
"142 544 OFFCURVE",
"142 525 CURVE SMOOTH",
"142 71 LINE SMOOTH",
"142 20 OFFCURVE",
"171 -10 OFFCURVE",
"219 -10 CURVE SMOOTH",
"269 -10 OFFCURVE",
"298 19 OFFCURVE",
"298 68 CURVE SMOOTH",
"298 195 LINE",
"248 195 LINE",
"248 71 LINE SMOOTH",
"248 52 OFFCURVE",
"238 40 OFFCURVE",
"220 40 CURVE SMOOTH",
"202 40 OFFCURVE",
"192 50 OFFCURVE",
"192 68 CURVE SMOOTH",
"192 523 LINE SMOOTH",
"192 540 OFFCURVE",
"202 550 OFFCURVE",
"220 550 CURVE SMOOTH",
"238 550 OFFCURVE",
"248 539 OFFCURVE",
"248 520 CURVE SMOOTH",
"248 329 LINE",
"273 354 LINE",
"182 354 LINE",
"182 309 LINE",
"298 309 LINE",
"298 522 LINE SMOOTH",
"298 571 OFFCURVE",
"271 600 OFFCURVE",
"225 600 CURVE SMOOTH",
"199 600 OFFCURVE",
"178 587 OFFCURVE",
"170 566 CURVE",
"164 566 LINE",
"157 587 OFFCURVE",
"137 600 OFFCURVE",
"111 600 CURVE SMOOTH",
"64 600 OFFCURVE",
"36 568 OFFCURVE",
"36 515 CURVE SMOOTH",
"36 410 LINE"
);
}
);
width = 326;
},
{
layerId = "9E3A6CEF-E447-4EE0-94FA-04D82C1F8DD8";
paths = (
{
closed = 1;
nodes = (
"40 48 OFFCURVE",
"117 -16 OFFCURVE",
"246 -16 CURVE SMOOTH",
"374 -16 OFFCURVE",
"467 61 OFFCURVE",
"496 191 CURVE",
"496 281 LINE",
"391 281 LINE",
"391 225 LINE",
"391 155 OFFCURVE",
"358 114 OFFCURVE",
"301 114 CURVE SMOOTH",
"251 114 OFFCURVE",
"222 137 OFFCURVE",
"222 175 CURVE SMOOTH",
"222 180 LINE SMOOTH",
"222 217 OFFCURVE",
"249 244 OFFCURVE",
"296 250 CURVE SMOOTH",
"426 267 LINE",
"426 368 LINE",
"247 345 LINE SMOOTH",
"117 328 OFFCURVE",
"40 259 OFFCURVE",
"40 160 CURVE SMOOTH",
"40 155 LINE SMOOTH"
);
},
{
closed = 1;
nodes = (
"243 406 LINE",
"245 420 LINE SMOOTH",
"250 455 OFFCURVE",
"278 476 OFFCURVE",
"319 476 CURVE SMOOTH",
"364 476 OFFCURVE",
"391 441 OFFCURVE",
"391 383 CURVE SMOOTH",
"391 330 LINE SMOOTH",
"391 113 OFFCURVE",
"498 -16 OFFCURVE",
"680 -16 CURVE SMOOTH",
"828 -16 OFFCURVE",
"922 60 OFFCURVE",
"933 189 CURVE SMOOTH",
"934 201 LINE",
"767 207 LINE",
"765 189 LINE SMOOTH",
"760 142 OFFCURVE",
"729 114 OFFCURVE",
"681 114 CURVE SMOOTH",
"613 114 OFFCURVE",
"573 174 OFFCURVE",
"573 276 CURVE SMOOTH",
"573 331 LINE SMOOTH",
"573 422 OFFCURVE",
"613 476 OFFCURVE",
"682 476 CURVE SMOOTH",
"739 476 OFFCURVE",
"773 425 OFFCURVE",
"773 339 CURVE SMOOTH",
"773 322 LINE",
"805 366 LINE",
"495 366 LINE",
"495 266 LINE",
"943 266 LINE",
"943 286 LINE SMOOTH",
"943 487 OFFCURVE",
"850 606 OFFCURVE",
"693 606 CURVE SMOOTH",
"596 606 OFFCURVE",
"524 561 OFFCURVE",
"498 485 CURVE",
"494 485 LINE",
"471 561 OFFCURVE",
"399 606 OFFCURVE",
"300 606 CURVE SMOOTH",
"160 606 OFFCURVE",
"73 538 OFFCURVE",
"65 424 CURVE SMOOTH",
"64 410 LINE"
);
}
);
width = 999;
},
{
layerId = "3822A8B4-8016-4BEB-9110-8CE71FB015E8";
paths = (
{
closed = 1;
nodes = (
"38 45 OFFCURVE",
"91 -13 OFFCURVE",
"180 -13 CURVE SMOOTH",
"257 -13 OFFCURVE",
"312 38 OFFCURVE",
"329 124 CURVE",
"329 206 LINE",
"302 206 LINE",
"302 168 LINE SMOOTH",
"302 84 OFFCURVE",
"259 35 OFFCURVE",
"185 35 CURVE SMOOTH",
"125 35 OFFCURVE",
"89 78 OFFCURVE",
"89 150 CURVE SMOOTH",
"89 168 LINE SMOOTH",
"89 233 OFFCURVE",
"137 282 OFFCURVE",
"218 300 CURVE SMOOTH",
"329 325 LINE",
"329 371 LINE",
"203 340 LINE SMOOTH",
"99 314 OFFCURVE",
"38 247 OFFCURVE",
"38 160 CURVE SMOOTH",
"38 143 LINE SMOOTH"
);
},
{
closed = 1;
nodes = (
"115 419 LINE",
"115 453 LINE SMOOTH",
"115 519 OFFCURVE",
"149 558 OFFCURVE",
"206 558 CURVE SMOOTH",
"266 558 OFFCURVE",
"302 525 OFFCURVE",
"302 470 CURVE SMOOTH",
"302 181 LINE SMOOTH",
"302 59 OFFCURVE",
"361 -13 OFFCURVE",
"462 -13 CURVE SMOOTH",
"562 -13 OFFCURVE",
"621 46 OFFCURVE",
"621 147 CURVE SMOOTH",
"621 187 LINE",
"571 189 LINE",
"571 151 LINE SMOOTH",
"571 78 OFFCURVE",
"531 35 OFFCURVE",
"463 35 CURVE SMOOTH",
"393 35 OFFCURVE",
"352 87 OFFCURVE",
"352 176 CURVE SMOOTH",
"352 412 LINE SMOOTH",
"352 503 OFFCURVE",
"395 556 OFFCURVE",
"469 556 CURVE SMOOTH",
"536 556 OFFCURVE",
"576 506 OFFCURVE",
"576 422 CURVE SMOOTH",
"576 324 LINE",
"606 354 LINE",
"342 354 LINE",
"342 309 LINE",
"627 309 LINE",
"627 420 LINE SMOOTH",
"627 535 OFFCURVE",
"569 603 OFFCURVE",
"472 603 CURVE SMOOTH",
"404 603 OFFCURVE",
"353 566 OFFCURVE",
"335 504 CURVE",
"330 504 LINE",
"321 566 OFFCURVE",
"274 603 OFFCURVE",
"205 603 CURVE SMOOTH",
"117 603 OFFCURVE",
"65 546 OFFCURVE",
"65 450 CURVE SMOOTH",
"65 421 LINE"
);
}
);
width = 674;
},
{
layerId = "9C5E0400-F04B-47EF-A56D-29B29EB8CC41";
paths = (
{
closed = 1;
nodes = (
"33 49 OFFCURVE",
"95 -13 OFFCURVE",
"200 -13 CURVE SMOOTH",
"295 -13 OFFCURVE",
"367 43 OFFCURVE",
"394 139 CURVE",
"394 232 LINE",
"314 232 LINE",
"314 180 LINE",
"314 134 OFFCURVE",
"293 107 OFFCURVE",
"257 107 CURVE SMOOTH",
"222 107 OFFCURVE",
"202 130 OFFCURVE",
"202 170 CURVE SMOOTH",
"202 175 LINE SMOOTH",
"202 222 OFFCURVE",
"230 258 OFFCURVE",
"278 270 CURVE SMOOTH",
"347 287 LINE",
"347 384 LINE",
"213 347 LINE SMOOTH",
"100 316 OFFCURVE",
"33 248 OFFCURVE",
"33 165 CURVE SMOOTH",
"33 153 LINE SMOOTH"
);
},
{
closed = 1;
nodes = (
"218 403 LINE",
"218 420 LINE SMOOTH",
"218 460 OFFCURVE",
"236 483 OFFCURVE",
"267 483 CURVE SMOOTH",
"297 483 OFFCURVE",
"314 461 OFFCURVE",
"314 424 CURVE SMOOTH",
"314 248 LINE SMOOTH",
"314 84 OFFCURVE",
"399 -13 OFFCURVE",
"542 -13 CURVE SMOOTH",
"678 -13 OFFCURVE",
"758 61 OFFCURVE",
"758 187 CURVE SMOOTH",
"758 203 LINE",
"604 206 LINE",
"604 190 LINE SMOOTH",
"604 138 OFFCURVE",
"582 107 OFFCURVE",
"545 107 CURVE SMOOTH",
"504 107 OFFCURVE",
"480 138 OFFCURVE",
"480 191 CURVE SMOOTH",
"480 396 LINE SMOOTH",
"480 451 OFFCURVE",
"505 483 OFFCURVE",
"546 483 CURVE SMOOTH",
"582 483 OFFCURVE",
"603 453 OFFCURVE",
"603 402 CURVE SMOOTH",
"603 311 LINE",
"656 370 LINE",
"431 370 LINE",
"431 270 LINE",
"763 270 LINE",
"763 355 LINE SMOOTH",
"763 511 OFFCURVE",
"688 603 OFFCURVE",
"562 603 CURVE SMOOTH",
"484 603 OFFCURVE",
"427 569 OFFCURVE",
"407 511 CURVE",
"402 511 LINE",
"383 569 OFFCURVE",
"326 603 OFFCURVE",
"248 603 CURVE SMOOTH",
"129 603 OFFCURVE",
"53 537 OFFCURVE",
"53 425 CURVE SMOOTH",
"53 405 LINE"
);
}
);
width = 805;
}
);
leftKerningGroup = a;
leftMetricsKey = a;
rightKerningGroup = o;
rightMetricsKey = o;
unicode = 00E6;
},
{
color = 6;
glyphname = b;
lastChange = "2018-10-07 20:52:21 +0000";
layers = (
{
layerId = "224C4421-04A1-4518-9520-E7DE557FF670";
paths = (
{
closed = 1;
nodes = (
"30 0 LINE",
"170 0 LINE",
"180 80 LINE",
"180 820 LINE",
"30 820 LINE"
);
},
{
closed = 1;
nodes = (
"174 37 OFFCURVE",
"213 -10 OFFCURVE",
"270 -10 CURVE SMOOTH",
"337 -10 OFFCURVE",
"376 42 OFFCURVE",
"376 130 CURVE SMOOTH",
"376 460 LINE SMOOTH",
"376 555 OFFCURVE",
"345 600 OFFCURVE",
"280 600 CURVE SMOOTH",
"222 600 OFFCURVE",
"185 566 OFFCURVE",
"165 494 CURVE",
"165 445 LINE",
"180 445 LINE",
"180 469 OFFCURVE",
"188 480 OFFCURVE",
"205 480 CURVE SMOOTH",
"219 480 OFFCURVE",
"226 472 OFFCURVE",
"226 455 CURVE SMOOTH",
"226 145 LINE SMOOTH",
"226 121 OFFCURVE",
"218 110 OFFCURVE",
"201 110 CURVE SMOOTH",
"187 110 OFFCURVE",
"180 118 OFFCURVE",
"180 135 CURVE",
"165 135 LINE",
"165 116 LINE"
);
}
);
width = 404;
},
{
layerId = "E3F4EB06-25ED-4CC6-B646-097E6B7CA9B6";
paths = (
{
closed = 1;
nodes = (
"70 0 LINE",
"115 0 LINE",
"120 110 LINE",
"120 820 LINE",
"70 820 LINE"
);
},
{
closed = 1;
nodes = (
"125 42 OFFCURVE",
"205 -16 OFFCURVE",
"315 -16 CURVE SMOOTH",
"463 -16 OFFCURVE",
"554 100 OFFCURVE",
"554 289 CURVE SMOOTH",
"554 300 LINE SMOOTH",
"554 490 OFFCURVE",
"464 606 OFFCURVE",
"317 606 CURVE SMOOTH",
"206 606 OFFCURVE",
"125 548 OFFCURVE",
"105 454 CURVE",
"105 335 LINE",
"120 335 LINE",
"120 475 OFFCURVE",
"196 561 OFFCURVE",
"320 561 CURVE SMOOTH",
"433 561 OFFCURVE",
"502 464 OFFCURVE",
"502 306 CURVE SMOOTH",
"502 289 LINE SMOOTH",
"502 128 OFFCURVE",
"430 29 OFFCURVE",
"312 29 CURVE SMOOTH",
"193 29 OFFCURVE",
"120 115 OFFCURVE",
"120 255 CURVE",
"105 255 LINE",
"105 136 LINE"
);
}
);
width = 619;
},
{
layerId = "1A1EA1E7-9AE6-44CA-95A2-EC2DECCB3A5F";
paths = (
{
closed = 1;
nodes = (
"30 0 LINE",
"70 0 LINE",
"80 75 LINE",
"80 820 LINE",
"30 820 LINE"
);
},
{
closed = 1;
nodes = (
"72 11 OFFCURVE",
"96 -10 OFFCURVE",
"129 -10 CURVE SMOOTH",
"165 -10 OFFCURVE",
"186 20 OFFCURVE",
"186 70 CURVE SMOOTH",
"186 530 LINE SMOOTH",
"186 577 OFFCURVE",
"167 600 OFFCURVE",
"135 600 CURVE SMOOTH",
"99 600 OFFCURVE",
"73 575 OFFCURVE",
"65 534 CURVE",
"65 515 LINE",
"80 515 LINE",
"80 540 OFFCURVE",
"91 555 OFFCURVE",
"110 555 CURVE SMOOTH",
"126 555 OFFCURVE",
"136 544 OFFCURVE",
"136 525 CURVE SMOOTH",
"136 80 LINE SMOOTH",
"136 52 OFFCURVE",
"125 35 OFFCURVE",
"106 35 CURVE SMOOTH",
"90 35 OFFCURVE",
"80 50 OFFCURVE",
"80 75 CURVE",
"65 75 LINE",
"65 46 LINE"
);
}
);
width = 214;
},
{
layerId = "9E3A6CEF-E447-4EE0-94FA-04D82C1F8DD8";
paths = (
{
closed = 1;
nodes = (
"65 0 LINE",
"215 0 LINE",
"245 110 LINE",
"245 820 LINE",
"65 820 LINE"
);
},
{
closed = 1;
nodes = (
"251 35 OFFCURVE",
"318 -16 OFFCURVE",
"410 -16 CURVE SMOOTH",
"548 -16 OFFCURVE",
"629 97 OFFCURVE",
"629 289 CURVE SMOOTH",
"629 300 LINE SMOOTH",
"629 492 OFFCURVE",
"548 606 OFFCURVE",
"412 606 CURVE SMOOTH",
"319 606 OFFCURVE",
"251 555 OFFCURVE",
"230 469 CURVE",
"230 310 LINE",
"245 310 LINE",
"245 414 OFFCURVE",
"284 476 OFFCURVE",
"350 476 CURVE SMOOTH",
"411 476 OFFCURVE",
"447 413 OFFCURVE",
"447 306 CURVE SMOOTH",
"447 289 LINE SMOOTH",
"447 179 OFFCURVE",
"408 114 OFFCURVE",
"342 114 CURVE SMOOTH",
"281 114 OFFCURVE",
"245 176 OFFCURVE",
"245 280 CURVE",
"230 280 LINE",
"230 121 LINE"
);
}
);
width = 685;
},
{
layerId = "3822A8B4-8016-4BEB-9110-8CE71FB015E8";
paths = (
{
closed = 1;
nodes = (
"50 0 LINE",
"93 0 LINE",
"100 93 LINE",
"100 820 LINE",
"50 820 LINE"
);
},
{
closed = 1;
nodes = (
"99 27 OFFCURVE",
"151 -13 OFFCURVE",
"222 -13 CURVE SMOOTH",
"314 -13 OFFCURVE",
"370 60 OFFCURVE",
"370 180 CURVE SMOOTH",
"370 415 LINE SMOOTH",
"370 534 OFFCURVE",
"316 603 OFFCURVE",
"226 603 CURVE SMOOTH",
"153 603 OFFCURVE",
"99 562 OFFCURVE",
"85 494 CURVE",
"85 425 LINE",
"100 425 LINE",
"100 508 OFFCURVE",
"144 558 OFFCURVE",
"215 558 CURVE SMOOTH",
"280 558 OFFCURVE",
"319 504 OFFCURVE",
"319 416 CURVE SMOOTH",
"319 185 LINE SMOOTH",
"319 90 OFFCURVE",
"278 32 OFFCURVE",
"209 32 CURVE SMOOTH",
"142 32 OFFCURVE",
"100 83 OFFCURVE",
"100 165 CURVE",
"85 165 LINE",
"85 91 LINE"
);
}
);
width = 417;
},
{
layerId = "9C5E0400-F04B-47EF-A56D-29B29EB8CC41";
paths = (
{
closed = 1;
nodes = (
"48 0 LINE",
"193 0 LINE",
"213 95 LINE",
"213 820 LINE",
"48 820 LINE"
);
},
{
closed = 1;
nodes = (
"213 36 OFFCURVE",
"266 -13 OFFCURVE",
"340 -13 CURVE SMOOTH",
"443 -13 OFFCURVE",
"503 70 OFFCURVE",
"503 210 CURVE SMOOTH",
"503 380 LINE SMOOTH",
"503 524 OFFCURVE",
"447 603 OFFCURVE",
"346 603 CURVE SMOOTH",
"271 603 OFFCURVE",
"218 561 OFFCURVE",
"198 482 CURVE",
"198 378 LINE",
"213 378 LINE",
"213 442 OFFCURVE",
"236 478 OFFCURVE",
"278 478 CURVE SMOOTH",
"315 478 OFFCURVE",
"337 443 OFFCURVE",
"337 381 CURVE SMOOTH",
"337 217 LINE SMOOTH",
"337 150 OFFCURVE",
"313 112 OFFCURVE",
"272 112 CURVE SMOOTH",
"234 112 OFFCURVE",
"213 147 OFFCURVE",
"213 208 CURVE",
"198 208 LINE",
"198 119 LINE"
);
}
);
width = 545;
}
);
leftKerningGroup = l;
leftMetricsKey = l;
rightKerningGroup = o;
rightMetricsKey = o;
unicode = 0062;
},
{
color = 6;
glyphname = c;
lastChange = "2018-10-07 20:52:21 +0000";
layers = (
{
anchors = (
{
name = bottom;
position = "{201, 0}";
},
{
name = top;
position = "{201, 590}";
}
);
layerId = "224C4421-04A1-4518-9520-E7DE557FF670";
paths = (
{
closed = 1;
nodes = (
"372 384 LINE",
"372 424 LINE SMOOTH",
"372 544 OFFCURVE",
"310 600 OFFCURVE",
"200 600 CURVE SMOOTH",
"88 600 OFFCURVE",
"26 544 OFFCURVE",
"26 425 CURVE SMOOTH",
"26 166 LINE SMOOTH",
"26 46 OFFCURVE",
"88 -10 OFFCURVE",
"198 -10 CURVE SMOOTH",
"310 -10 OFFCURVE",
"372 46 OFFCURVE",
"372 165 CURVE SMOOTH",
"372 205 LINE",
"232 205 LINE",
"232 130 LINE SMOOTH",
"232 110 OFFCURVE",
"220 100 OFFCURVE",
"204 100 CURVE SMOOTH",
"188 100 OFFCURVE",
"176 108 OFFCURVE",
"176 125 CURVE SMOOTH",
"176 460 LINE SMOOTH",
"176 480 OFFCURVE",
"183 490 OFFCURVE",
"199 490 CURVE SMOOTH",
"215 490 OFFCURVE",
"222 482 OFFCURVE",
"222 465 CURVE SMOOTH",
"222 384 LINE"
);
}
);
width = 400;
},
{
anchors = (
{
name = bottom;
position = "{289, 0}";
},
{
name = top;
position = "{309, 590}";
}
);
layerId = "E3F4EB06-25ED-4CC6-B646-097E6B7CA9B6";
paths = (
{
closed = 1;
nodes = (
"545 425 LINE",
"543 437 LINE SMOOTH",
"525 543 OFFCURVE",
"439 606 OFFCURVE",
"312 606 CURVE SMOOTH",
"147 606 OFFCURVE",
"50 493 OFFCURVE",
"50 301 CURVE SMOOTH",
"50 290 LINE SMOOTH",
"50 98 OFFCURVE",
"149 -16 OFFCURVE",
"317 -16 CURVE SMOOTH",
"447 -16 OFFCURVE",
"535 48 OFFCURVE",
"553 156 CURVE SMOOTH",
"555 168 LINE",
"505 172 LINE",
"503 160 LINE SMOOTH",
"489 78 OFFCURVE",
"420 29 OFFCURVE",
"318 29 CURVE SMOOTH",
"182 29 OFFCURVE",
"102 124 OFFCURVE",
"102 284 CURVE SMOOTH",
"102 301 LINE SMOOTH",
"102 464 OFFCURVE",
"180 561 OFFCURVE",
"311 561 CURVE SMOOTH",
"411 561 OFFCURVE",
"479 512 OFFCURVE",
"493 430 CURVE SMOOTH",
"495 418 LINE"
);
}
);
width = 620;
},
{
anchors = (
{
name = bottom;
position = "{106, 0}";
},
{
name = top;
position = "{106, 590}";
}
);
layerId = "1A1EA1E7-9AE6-44CA-95A2-EC2DECCB3A5F";
paths = (
{
closed = 1;
nodes = (
"182 394 LINE",
"182 522 LINE SMOOTH",
"182 571 OFFCURVE",
"153 600 OFFCURVE",
"105 600 CURVE SMOOTH",
"55 600 OFFCURVE",
"26 570 OFFCURVE",
"26 520 CURVE SMOOTH",
"26 71 LINE SMOOTH",
"26 20 OFFCURVE",
"55 -10 OFFCURVE",
"103 -10 CURVE SMOOTH",
"153 -10 OFFCURVE",
"182 19 OFFCURVE",
"182 68 CURVE SMOOTH",
"182 195 LINE",
"132 195 LINE",
"132 71 LINE SMOOTH",
"132 52 OFFCURVE",
"122 40 OFFCURVE",
"104 40 CURVE SMOOTH",
"86 40 OFFCURVE",
"76 50 OFFCURVE",
"76 68 CURVE SMOOTH",
"76 523 LINE SMOOTH",
"76 540 OFFCURVE",
"86 550 OFFCURVE",
"104 550 CURVE SMOOTH",
"122 550 OFFCURVE",
"132 539 OFFCURVE",
"132 520 CURVE SMOOTH",
"132 394 LINE"
);
}
);
width = 210;
},
{
anchors = (
{
name = bottom;
position = "{309, 0}";
},
{
name = top;
position = "{319, 590}";
}
);
layerId = "9E3A6CEF-E447-4EE0-94FA-04D82C1F8DD8";
paths = (
{
closed = 1;
nodes = (
"577 395 LINE",
"575 412 LINE SMOOTH",
"561 534 OFFCURVE",
"471 606 OFFCURVE",
"332 606 CURVE SMOOTH",
"148 606 OFFCURVE",
"40 493 OFFCURVE",
"40 301 CURVE SMOOTH",
"40 290 LINE SMOOTH",
"40 98 OFFCURVE",
"147 -16 OFFCURVE",
"329 -16 CURVE SMOOTH",
"477 -16 OFFCURVE",
"571 64 OFFCURVE",
"582 199 CURVE SMOOTH",
"583 211 LINE",
"416 217 LINE",
"414 199 LINE SMOOTH",
"408 146 OFFCURVE",
"377 114 OFFCURVE",
"330 114 CURVE SMOOTH",
"262 114 OFFCURVE",
"222 177 OFFCURVE",
"222 284 CURVE SMOOTH",
"222 301 LINE SMOOTH",
"222 411 OFFCURVE",
"262 476 OFFCURVE",
"331 476 CURVE SMOOTH",
"371 476 OFFCURVE",
"399 450 OFFCURVE",
"407 405 CURVE SMOOTH",
"410 388 LINE"
);
}
);
width = 639;
},
{
anchors = (
{
name = bottom;
position = "{198, 0}";
},
{
name = top;
position = "{208, 590}";
}
);
layerId = "3822A8B4-8016-4BEB-9110-8CE71FB015E8";
paths = (
{
closed = 1;
nodes = (
"363 410 LINE",
"363 440 LINE SMOOTH",
"363 542 OFFCURVE",
"304 603 OFFCURVE",
"205 603 CURVE SMOOTH",
"100 603 OFFCURVE",
"38 535 OFFCURVE",
"38 421 CURVE SMOOTH",
"38 171 LINE SMOOTH",
"38 55 OFFCURVE",
"100 -13 OFFCURVE",
"206 -13 CURVE SMOOTH",
"308 -13 OFFCURVE",
"368 48 OFFCURVE",
"368 152 CURVE SMOOTH",
"368 182 LINE",
"318 184 LINE",
"318 156 LINE SMOOTH",
"318 80 OFFCURVE",
"277 35 OFFCURVE",
"207 35 CURVE SMOOTH",
"133 35 OFFCURVE",
"89 84 OFFCURVE",
"89 166 CURVE SMOOTH",
"89 422 LINE SMOOTH",
"89 506 OFFCURVE",
"132 556 OFFCURVE",
"204 556 CURVE SMOOTH",
"273 556 OFFCURVE",
"313 511 OFFCURVE",
"313 435 CURVE SMOOTH",
"313 406 LINE"
);
}
);
width = 415;
},
{
anchors = (
{
name = bottom;
position = "{255, 0}";
},
{
name = top;
position = "{260, 590}";
}
);
layerId = "9C5E0400-F04B-47EF-A56D-29B29EB8CC41";
paths = (
{
closed = 1;
nodes = (
"474 390 LINE",
"474 408 LINE SMOOTH",
"474 531 OFFCURVE",
"393 603 OFFCURVE",
"256 603 CURVE SMOOTH",
"116 603 OFFCURVE",
"33 529 OFFCURVE",
"33 403 CURVE SMOOTH",
"33 198 LINE SMOOTH",
"33 65 OFFCURVE",
"116 -13 OFFCURVE",
"256 -13 CURVE SMOOTH",
"395 -13 OFFCURVE",
"477 63 OFFCURVE",
"477 192 CURVE SMOOTH",
"477 208 LINE",
"323 211 LINE",
"323 185 LINE SMOOTH",
"323 136 OFFCURVE",
"299 107 OFFCURVE",
"259 107 CURVE SMOOTH",
"221 107 OFFCURVE",
"199 136 OFFCURVE",
"199 185 CURVE SMOOTH",
"199 411 LINE SMOOTH",
"199 456 OFFCURVE",
"220 483 OFFCURVE",
"255 483 CURVE SMOOTH",
"293 483 OFFCURVE",
"315 458 OFFCURVE",
"315 415 CURVE SMOOTH",
"315 386 LINE"
);
}
);
width = 519;
}
);
leftKerningGroup = o;
leftMetricsKey = o;
rightKerningGroup = o;
rightMetricsKey = o;
unicode = 0063;
},
{
color = 6;
glyphname = d;
lastChange = "2018-10-07 20:52:21 +0000";
layers = (
{
anchors = (
{
name = bottom;
position = "{201, 0}";
},
{
name = center;
position = "{201, 295}";
},
{
name = top;
position = "{201, 820}";
},
{
name = topright;
position = "{402, 820}";
}
);
layerId = "224C4421-04A1-4518-9520-E7DE557FF670";
paths = (
{
closed = 1;
nodes = (
"222 820 LINE",
"222 80 LINE",
"232 0 LINE",
"372 0 LINE",
"372 820 LINE"
);
},
{
closed = 1;
nodes = (
"228 553 OFFCURVE",
"189 600 OFFCURVE",
"132 600 CURVE SMOOTH",
"65 600 OFFCURVE",
"26 548 OFFCURVE",
"26 460 CURVE SMOOTH",
"26 130 LINE SMOOTH",
"26 35 OFFCURVE",
"57 -10 OFFCURVE",
"122 -10 CURVE SMOOTH",
"180 -10 OFFCURVE",
"217 24 OFFCURVE",
"237 96 CURVE",
"237 145 LINE",
"222 145 LINE",
"222 121 OFFCURVE",
"214 110 OFFCURVE",
"197 110 CURVE SMOOTH",
"183 110 OFFCURVE",
"176 118 OFFCURVE",
"176 135 CURVE SMOOTH",
"176 445 LINE SMOOTH",
"176 469 OFFCURVE",
"184 480 OFFCURVE",
"201 480 CURVE SMOOTH",
"215 480 OFFCURVE",
"222 472 OFFCURVE",
"222 455 CURVE",
"237 455 LINE",
"237 474 LINE"
);
}
);
width = 404;
},
{
anchors = (
{
name = bottom;
position = "{310, 0}";
},
{
name = center;
position = "{310, 295}";
},
{
name = top;
position = "{310, 820}";
},
{
name = topright;
position = "{599, 820}";
}
);
layerId = "E3F4EB06-25ED-4CC6-B646-097E6B7CA9B6";
paths = (
{
closed = 1;
nodes = (
"484 820 LINE",
"484 110 LINE",
"489 0 LINE",
"534 0 LINE",
"534 820 LINE"
);
},
{
closed = 1;
nodes = (
"479 548 OFFCURVE",
"399 606 OFFCURVE",
"289 606 CURVE SMOOTH",
"141 606 OFFCURVE",
"50 490 OFFCURVE",
"50 301 CURVE SMOOTH",
"50 290 LINE SMOOTH",
"50 100 OFFCURVE",
"140 -16 OFFCURVE",
"287 -16 CURVE SMOOTH",
"398 -16 OFFCURVE",
"479 42 OFFCURVE",
"499 136 CURVE",
"499 255 LINE",
"484 255 LINE",
"484 115 OFFCURVE",
"408 29 OFFCURVE",
"284 29 CURVE SMOOTH",
"171 29 OFFCURVE",
"102 126 OFFCURVE",
"102 284 CURVE SMOOTH",
"102 301 LINE SMOOTH",
"102 462 OFFCURVE",
"172 561 OFFCURVE",
"292 561 CURVE SMOOTH",
"411 561 OFFCURVE",
"484 475 OFFCURVE",
"484 335 CURVE",
"499 335 LINE",
"499 454 LINE"
);
}
);
width = 619;
},
{
anchors = (
{
name = bottom;
position = "{107, 0}";
},
{
name = center;
position = "{197, 295}";
},
{
name = top;
position = "{107, 820}";
},
{
name = topright;
position = "{212, 820}";
}
);
layerId = "1A1EA1E7-9AE6-44CA-95A2-EC2DECCB3A5F";
paths = (
{
closed = 1;
nodes = (
"132 820 LINE",
"132 75 LINE",
"142 0 LINE",
"182 0 LINE",
"182 820 LINE"
);
},
{
closed = 1;
nodes = (
"140 579 OFFCURVE",
"116 600 OFFCURVE",
"83 600 CURVE SMOOTH",
"47 600 OFFCURVE",
"26 570 OFFCURVE",
"26 520 CURVE SMOOTH",
"26 60 LINE SMOOTH",
"26 13 OFFCURVE",
"45 -10 OFFCURVE",
"77 -10 CURVE SMOOTH",
"113 -10 OFFCURVE",
"139 15 OFFCURVE",
"147 56 CURVE",
"147 75 LINE",
"132 75 LINE",
"132 50 OFFCURVE",
"121 35 OFFCURVE",
"102 35 CURVE SMOOTH",
"86 35 OFFCURVE",
"76 46 OFFCURVE",
"76 65 CURVE SMOOTH",
"76 510 LINE SMOOTH",
"76 538 OFFCURVE",
"87 555 OFFCURVE",
"106 555 CURVE SMOOTH",
"122 555 OFFCURVE",
"132 540 OFFCURVE",
"132 515 CURVE",
"147 515 LINE",
"147 544 LINE"
);
}
);
width = 214;
},
{
anchors = (
{
name = bottom;
position = "{300, 0}";
},
{
name = center;
position = "{300, 295}";
},
{
name = top;
position = "{300, 820}";
},
{
name = topright;
position = "{654, 820}";
}
);
layerId = "9E3A6CEF-E447-4EE0-94FA-04D82C1F8DD8";
paths = (
{
closed = 1;
nodes = (
"424 820 LINE",
"424 110 LINE",
"454 0 LINE",
"604 0 LINE",
"604 820 LINE"
);
},
{
closed = 1;
nodes = (
"418 555 OFFCURVE",
"351 606 OFFCURVE",
"259 606 CURVE SMOOTH",
"121 606 OFFCURVE",
"40 493 OFFCURVE",
"40 301 CURVE SMOOTH",
"40 290 LINE SMOOTH",
"40 98 OFFCURVE",
"121 -16 OFFCURVE",
"257 -16 CURVE SMOOTH",
"350 -16 OFFCURVE",
"418 35 OFFCURVE",
"439 121 CURVE",
"439 280 LINE",
"424 280 LINE",
"424 176 OFFCURVE",
"385 114 OFFCURVE",
"319 114 CURVE SMOOTH",
"258 114 OFFCURVE",
"222 177 OFFCURVE",
"222 284 CURVE SMOOTH",
"222 301 LINE SMOOTH",
"222 411 OFFCURVE",
"261 476 OFFCURVE",
"327 476 CURVE SMOOTH",
"388 476 OFFCURVE",
"424 414 OFFCURVE",
"424 310 CURVE",
"439 310 LINE",
"439 469 LINE"
);
}
);
width = 679;
},
{
anchors = (
{
name = bottom;
position = "{209, 0}";
},
{
name = center;
position = "{254, 295}";
},
{
name = top;
position = "{209, 820}";
},
{
name = topright;
position = "{406, 820}";
}
);
layerId = "3822A8B4-8016-4BEB-9110-8CE71FB015E8";
paths = (
{
closed = 1;
nodes = (
"308 820 LINE",
"308 93 LINE",
"316 0 LINE",
"358 0 LINE",
"358 820 LINE"
);
},
{
closed = 1;
nodes = (
"310 564 OFFCURVE",
"258 603 OFFCURVE",
"186 603 CURVE SMOOTH",
"94 603 OFFCURVE",
"38 530 OFFCURVE",
"38 411 CURVE SMOOTH",
"38 175 LINE SMOOTH",
"38 57 OFFCURVE",
"93 -13 OFFCURVE",
"182 -13 CURVE SMOOTH",
"256 -13 OFFCURVE",
"309 29 OFFCURVE",
"323 96 CURVE",
"323 165 LINE",
"308 165 LINE",
"308 83 OFFCURVE",
"265 32 OFFCURVE",
"193 32 CURVE SMOOTH",
"129 32 OFFCURVE",
"89 86 OFFCURVE",
"89 175 CURVE SMOOTH",
"89 406 LINE SMOOTH",
"89 500 OFFCURVE",
"130 558 OFFCURVE",
"199 558 CURVE SMOOTH",
"267 558 OFFCURVE",
"308 508 OFFCURVE",
"308 425 CURVE",
"323 425 LINE",
"323 499 LINE"
);
}
);
width = 417;
},
{
anchors = (
{
name = bottom;
position = "{251, 0}";
},
{
name = center;
position = "{251, 295}";
},
{
name = top;
position = "{251, 820}";
},
{
name = topright;
position = "{528, 820}";
}
);
layerId = "9C5E0400-F04B-47EF-A56D-29B29EB8CC41";
paths = (
{
closed = 1;
nodes = (
"323 820 LINE",
"323 95 LINE",
"343 0 LINE",
"488 0 LINE",
"488 820 LINE"
);
},
{
closed = 1;
nodes = (
"323 554 OFFCURVE",
"270 603 OFFCURVE",
"196 603 CURVE SMOOTH",
"93 603 OFFCURVE",
"33 521 OFFCURVE",
"33 381 CURVE SMOOTH",
"33 210 LINE SMOOTH",
"33 67 OFFCURVE",
"89 -13 OFFCURVE",
"190 -13 CURVE SMOOTH",
"265 -13 OFFCURVE",
"318 30 OFFCURVE",
"338 109 CURVE",
"338 213 LINE",
"323 213 LINE",
"323 149 OFFCURVE",
"300 112 OFFCURVE",
"258 112 CURVE SMOOTH",
"221 112 OFFCURVE",
"199 148 OFFCURVE",
"199 210 CURVE SMOOTH",
"199 373 LINE SMOOTH",
"199 440 OFFCURVE",
"223 478 OFFCURVE",
"264 478 CURVE SMOOTH",
"302 478 OFFCURVE",
"323 443 OFFCURVE",
"323 383 CURVE",
"338 383 LINE",
"338 472 LINE"
);
}
);
width = 541;
}
);
leftKerningGroup = o;
leftMetricsKey = o;
rightKerningGroup = l;
rightMetricsKey = l;
unicode = 0064;
},
{
color = 6;
glyphname = eth;
lastChange = "2018-10-07 20:52:21 +0000";
layers = (
{
layerId = "224C4421-04A1-4518-9520-E7DE557FF670";
paths = (
{
closed = 1;
nodes = (
"26 166 LINE SMOOTH",
"26 46 OFFCURVE",
"88 -10 OFFCURVE",
"198 -10 CURVE SMOOTH",
"310 -10 OFFCURVE",
"372 46 OFFCURVE",
"372 165 CURVE SMOOTH",
"372 560 LINE SMOOTH",
"372 599 OFFCURVE",
"367 624 OFFCURVE",
"355 656 CURVE SMOOTH",
"294 820 LINE",
"135 820 LINE",
"214 604 LINE SMOOTH",
"219 591 OFFCURVE",
"222 577 OFFCURVE",
"222 560 CURVE SMOOTH",
"222 130 LINE SMOOTH",
"222 110 OFFCURVE",
"215 100 OFFCURVE",
"199 100 CURVE SMOOTH",
"183 100 OFFCURVE",
"176 108 OFFCURVE",
"176 125 CURVE SMOOTH",
"176 445 LINE SMOOTH",
"176 469 OFFCURVE",
"184 480 OFFCURVE",
"201 480 CURVE SMOOTH",
"215 480 OFFCURVE",
"222 472 OFFCURVE",
"222 455 CURVE",
"237 455 LINE",
"237 494 LINE",
"217 566 OFFCURVE",
"180 600 OFFCURVE",
"122 600 CURVE SMOOTH",
"57 600 OFFCURVE",
"26 555 OFFCURVE",
"26 460 CURVE SMOOTH"
);
},
{
closed = 1;
nodes = (
"396 672 LINE",
"396 783 LINE",
"117 739 LINE",
"117 628 LINE"
);
}
);
width = 424;
},
{
layerId = "E3F4EB06-25ED-4CC6-B646-097E6B7CA9B6";
paths = (
{
closed = 1;
nodes = (
"50 290 LINE SMOOTH",
"50 100 OFFCURVE",
"140 -16 OFFCURVE",
"287 -16 CURVE SMOOTH",
"440 -16 OFFCURVE",
"534 87 OFFCURVE",
"534 255 CURVE SMOOTH",
"534 530 LINE SMOOTH",
"534 575 OFFCURVE",
"524 629 OFFCURVE",
"508 670 CURVE SMOOTH",
"450 820 LINE",
"396 820 LINE",
"459 658 LINE SMOOTH",
"475 618 OFFCURVE",
"484 569 OFFCURVE",
"484 530 CURVE SMOOTH",
"484 255 LINE SMOOTH",
"484 115 OFFCURVE",
"408 29 OFFCURVE",
"284 29 CURVE SMOOTH",
"171 29 OFFCURVE",
"102 126 OFFCURVE",
"102 284 CURVE SMOOTH",
"102 301 LINE SMOOTH",
"102 462 OFFCURVE",
"174 561 OFFCURVE",
"292 561 CURVE SMOOTH",
"411 561 OFFCURVE",
"484 475 OFFCURVE",
"484 335 CURVE",
"499 335 LINE",
"499 454 LINE",
"479 548 OFFCURVE",
"399 606 OFFCURVE",
"289 606 CURVE SMOOTH",
"141 606 OFFCURVE",
"50 490 OFFCURVE",
"50 301 CURVE SMOOTH"
);
},
{
closed = 1;
nodes = (
"574 717 LINE",
"574 763 LINE",
"324 723 LINE",
"324 677 LINE"
);
}
);
width = 639;
},
{
layerId = "1A1EA1E7-9AE6-44CA-95A2-EC2DECCB3A5F";
paths = (
{
closed = 1;
nodes = (
"26 66 LINE",
"26 18 OFFCURVE",
"55 -10 OFFCURVE",
"103 -10 CURVE SMOOTH",
"153 -10 OFFCURVE",
"182 17 OFFCURVE",
"182 63 CURVE SMOOTH",
"182 530 LINE SMOOTH",
"182 578 OFFCURVE",
"174 630 OFFCURVE",
"161 670 CURVE SMOOTH",
"113 820 LINE",
"59 820 LINE",
"112 658 LINE SMOOTH",
"125 618 OFFCURVE",
"132 571 OFFCURVE",
"132 530 CURVE SMOOTH",
"132 66 LINE SMOOTH",
"132 47 OFFCURVE",
"122 35 OFFCURVE",
"104 35 CURVE SMOOTH",
"86 35 OFFCURVE",
"76 45 OFFCURVE",
"76 63 CURVE",
"76 510 LINE",
"76 538 OFFCURVE",
"87 555 OFFCURVE",
"106 555 CURVE SMOOTH",
"122 555 OFFCURVE",
"132 540 OFFCURVE",
"132 515 CURVE",
"147 515 LINE",
"147 544 LINE",
"140 579 OFFCURVE",
"116 600 OFFCURVE",
"83 600 CURVE SMOOTH",
"47 600 OFFCURVE",
"26 570 OFFCURVE",
"26 520 CURVE"
);
},
{
closed = 1;
nodes = (
"203 714 LINE",
"203 760 LINE",
"26 732 LINE",
"26 686 LINE"
);
}
);
width = 231;
},
{
layerId = "9E3A6CEF-E447-4EE0-94FA-04D82C1F8DD8";
paths = (
{
closed = 1;
nodes = (
"40 290 LINE SMOOTH",
"40 98 OFFCURVE",
"145 -16 OFFCURVE",
"323 -16 CURVE SMOOTH",
"500 -16 OFFCURVE",
"604 105 OFFCURVE",
"604 310 CURVE SMOOTH",
"604 524 LINE SMOOTH",
"604 598 OFFCURVE",
"587 685 OFFCURVE",
"557 760 CURVE SMOOTH",
"533 820 LINE",
"344 820 LINE",
"400 667 LINE SMOOTH",
"415 626 OFFCURVE",
"424 573 OFFCURVE",
"424 524 CURVE SMOOTH",
"424 310 LINE SMOOTH",
"424 187 OFFCURVE",
"385 114 OFFCURVE",
"319 114 CURVE SMOOTH",
"258 114 OFFCURVE",
"222 177 OFFCURVE",
"222 284 CURVE SMOOTH",
"222 301 LINE SMOOTH",
"222 411 OFFCURVE",
"261 476 OFFCURVE",
"327 476 CURVE SMOOTH",
"388 476 OFFCURVE",
"424 414 OFFCURVE",
"424 310 CURVE",
"439 310 LINE",
"439 469 LINE",
"418 555 OFFCURVE",
"351 606 OFFCURVE",
"259 606 CURVE SMOOTH",
"121 606 OFFCURVE",
"40 493 OFFCURVE",
"40 301 CURVE SMOOTH"
);
},
{
closed = 1;
nodes = (
"654 693 LINE",
"654 794 LINE",
"274 737 LINE",
"274 636 LINE"
);
}
);
width = 710;
},
{
layerId = "3822A8B4-8016-4BEB-9110-8CE71FB015E8";
paths = (
{
closed = 1;
nodes = (
"38 178 LINE",
"38 59 OFFCURVE",
"98 -13 OFFCURVE",
"195 -13 CURVE SMOOTH",
"297 -13 OFFCURVE",
"358 52 OFFCURVE",
"358 159 CURVE SMOOTH",
"358 530 LINE SMOOTH",
"358 577 OFFCURVE",
"349 630 OFFCURVE",
"335 670 CURVE SMOOTH",
"282 820 LINE",
"228 820 LINE",
"286 658 LINE SMOOTH",
"300 618 OFFCURVE",
"308 570 OFFCURVE",
"308 530 CURVE SMOOTH",
"308 161 LINE SMOOTH",
"308 81 OFFCURVE",
"265 32 OFFCURVE",
"194 32 CURVE SMOOTH",
"129 32 OFFCURVE",
"89 86 OFFCURVE",
"89 174 CURVE",
"89 406 LINE",
"89 500 OFFCURVE",
"131 558 OFFCURVE",
"199 558 CURVE SMOOTH",
"267 558 OFFCURVE",
"308 508 OFFCURVE",
"308 425 CURVE",
"323 425 LINE",
"323 499 LINE",
"310 564 OFFCURVE",
"258 603 OFFCURVE",
"186 603 CURVE SMOOTH",
"94 603 OFFCURVE",
"38 530 OFFCURVE",
"38 411 CURVE"
);
},
{
closed = 1;
nodes = (
"389 716 LINE",
"389 762 LINE",
"175 728 LINE",
"175 682 LINE"
);
}
);
width = 436;
},
{
layerId = "9C5E0400-F04B-47EF-A56D-29B29EB8CC41";
paths = (
{
closed = 1;
nodes = (
"33 218 LINE SMOOTH",
"33 73 OFFCURVE",
"118 -13 OFFCURVE",
"261 -13 CURVE SMOOTH",
"404 -13 OFFCURVE",
"488 77 OFFCURVE",
"488 228 CURVE SMOOTH",
"488 542 LINE SMOOTH",
"488 599 OFFCURVE",
"477 655 OFFCURVE",
"456 708 CURVE SMOOTH",
"414 820 LINE",
"240 820 LINE",
"307 636 LINE SMOOTH",
"317 609 OFFCURVE",
"323 575 OFFCURVE",
"323 542 CURVE SMOOTH",
"323 220 LINE SMOOTH",
"323 149 OFFCURVE",
"299 107 OFFCURVE",
"259 107 CURVE SMOOTH",
"221 107 OFFCURVE",
"199 143 OFFCURVE",
"199 205 CURVE SMOOTH",
"199 373 LINE SMOOTH",
"199 440 OFFCURVE",
"223 478 OFFCURVE",
"264 478 CURVE SMOOTH",
"302 478 OFFCURVE",
"323 443 OFFCURVE",
"323 383 CURVE",
"338 383 LINE",
"338 482 LINE",
"318 561 OFFCURVE",
"266 603 OFFCURVE",
"191 603 CURVE SMOOTH",
"89 603 OFFCURVE",
"33 524 OFFCURVE",
"33 381 CURVE SMOOTH"
);
},
{
closed = 1;
nodes = (
"525 683 LINE",
"525 789 LINE",
"196 738 LINE",
"196 632 LINE"
);
}
);
width = 567;
}
);
leftKerningGroup = o;
leftMetricsKey = d;
rightKerningGroup = l;
rightMetricsKey = o;
unicode = 00F0;
},
{
color = 6;
glyphname = dcroat;
lastChange = "2018-10-07 20:52:21 +0000";
layers = (
{
components = (
{
name = d;
}
);
layerId = "224C4421-04A1-4518-9520-E7DE557FF670";
paths = (
{
closed = 1;
nodes = (
"406 630 LINE",
"426 740 LINE",
"136 740 LINE",
"116 630 LINE"
);
}
);
width = 400;
},
{
components = (
{
name = d;
}
);
layerId = "E3F4EB06-25ED-4CC6-B646-097E6B7CA9B6";
paths = (
{
closed = 1;
nodes = (
"596 695 LINE",
"616 740 LINE",
"366 740 LINE",
"346 695 LINE"
);
}
);
width = 590;
},
{
components = (
{
name = d;
}
);
layerId = "1A1EA1E7-9AE6-44CA-95A2-EC2DECCB3A5F";
paths = (
{
closed = 1;
nodes = (
"227 683 LINE",
"237 728 LINE",
"87 728 LINE",
"77 683 LINE"
);
}
);
width = 211;
},
{
components = (
{
name = d;
}
);
layerId = "9E3A6CEF-E447-4EE0-94FA-04D82C1F8DD8";
paths = (
{
closed = 1;
nodes = (
"654 660 LINE",
"694 760 LINE",
"334 760 LINE",
"294 660 LINE"
);
}
);
width = 668;
},
{
components = (
{
alignment = -1;
name = d;
}
);
layerId = "3822A8B4-8016-4BEB-9110-8CE71FB015E8";
paths = (
{
closed = 1;
nodes = (
"412 689 LINE",
"427 734 LINE",
"227 734 LINE",
"212 689 LINE"
);
}
);
width = 401;
},
{
components = (
{
alignment = -1;
name = d;
}
);
layerId = "9C5E0400-F04B-47EF-A56D-29B29EB8CC41";
paths = (
{
closed = 1;
nodes = (
"530 645 LINE",
"560 750 LINE",
"235 750 LINE",
"205 645 LINE"
);
}
);
width = 534;
}
);
leftKerningGroup = o;
leftMetricsKey = d;
rightKerningGroup = l;
unicode = 0111;
},
